<svg xmlns="http://www.w3.org/2000/svg" width="20.23" height="20.272" viewBox="0 0 20.23 20.272">
  <path id="_928412_call_communication_contact_phone_service_icon" data-name="928412_call_communication_contact_phone_service_icon" d="M25.183,27.832a16.609,16.609,0,0,1-3.509-4.2l-.455-.858c.159-.171,1.373-1.47,1.9-2.176.661-.885-.3-1.685-.3-1.685s-2.7-2.7-3.311-3.232a1.323,1.323,0,0,0-1.322-.238c-1.292.835-2.63,1.56-2.711,5.049,0,3.267,2.477,6.636,5.159,9.245,2.686,2.946,6.374,5.9,9.94,5.9,3.489-.08,4.214-1.418,5.049-2.71a1.323,1.323,0,0,0-.237-1.322c-.536-.615-3.233-3.312-3.233-3.312s-.8-.958-1.685-.3c-.66.493-1.845,1.591-2.131,1.857A23.642,23.642,0,0,1,25.183,27.832Z" transform="translate(-15.476 -15.364)" fill="#fff"/>
</svg>
