<svg xmlns="http://www.w3.org/2000/svg" width="233.515" height="155.703" viewBox="0 0 233.515 155.703">
  <g id="Groupe_39598" data-name="Groupe 39598" transform="translate(0 0)">
    <g id="Groupe_39561" data-name="Groupe 39561" transform="translate(158.94 93.42)">
      <path id="Tracé_34536" data-name="Tracé 34536" d="M320.166,239.544s24.175-11.473,45.072-14.751,22.536-1.434,22.741,2.663-17.21,13.316-44.252,15.775-30.321.41-30.321.41Z" transform="translate(-313.406 -223.111)" fill="#fdc2c8"/>
      <path id="Tracé_34537" data-name="Tracé 34537" d="M320.079,260.265s34.828,1.229,49.579,5.941,18.438,10.039,15.57,14.546-25.2,2.048-38.926-3.073S320.079,260.265,320.079,260.265Z" transform="translate(-316.392 -239.734)" fill="#fdc2c8"/>
      <g id="Groupe_39544" data-name="Groupe 39544" transform="translate(7.58 3.171)">
        <path id="Tracé_34538" data-name="Tracé 34538" d="M327.261,246.876c8.31-3.162,17.011-5.305,25.588-7.609,9.754-2.619,19.518-5.209,29.3-7.7,1.942-.5,3.886-.986,5.834-1.46.706-.171,1.42-.32,2.122-.5.463-.121.918-.36,1.385-.451.194-.038.112-.334-.082-.3-.4.078-.839.057-1.249.123-.6.1-1.2.266-1.792.407-1.658.393-3.312.8-4.965,1.216q-6.815,1.7-13.609,3.487c-9.548,2.492-19.086,5.031-28.586,7.7-1.628.458-3.255.917-4.872,1.412a50.277,50.277,0,0,0-9.164,3.476c-.108.058-.034.247.085.2Z" transform="translate(-327.123 -228.848)" fill="#c44f50"/>
      </g>
      <g id="Groupe_39545" data-name="Groupe 39545" transform="translate(6.983 22.851)">
        <path id="Tracé_34539" data-name="Tracé 34539" d="M326.2,264.9c14.975,4.9,30.582,7.477,45.629,12.131q3.156.976,6.278,2.064c2.071.725,4.128,1.561,6.242,2.148.334.093.561-.4.241-.57a63.792,63.792,0,0,0-10.9-3.917c-3.805-1.152-7.643-2.2-11.493-3.2-7.625-1.97-15.307-3.711-22.941-5.647-4.325-1.1-8.651-2.207-12.941-3.436a.221.221,0,0,0-.117.426Z" transform="translate(-326.043 -264.463)" fill="#c44f50"/>
      </g>
      <g id="Groupe_39546" data-name="Groupe 39546" transform="translate(24.553 15.687)">
        <path id="Tracé_34540" data-name="Tracé 34540" d="M358.264,251.5l-.41.205c-.035.018,0,.071.031.053l.41-.2c.035-.018,0-.071-.031-.053Z" transform="translate(-357.839 -251.498)" fill="#c44f50"/>
      </g>
      <g id="Groupe_39547" data-name="Groupe 39547" transform="translate(24.261 6.405)">
        <path id="Tracé_34541" data-name="Tracé 34541" d="M357.727,244.208l-.235.056a.281.281,0,0,0,.1-.062c.046-.057.191-.157.23-.2.162-.177.305-.383.451-.573.324-.422.623-.863.944-1.287.7-.919,1.47-1.792,2.242-2.65.723-.8,1.461-1.593,2.228-2.355a23.428,23.428,0,0,0,2.267-2.341c.038-.05-.036-.119-.086-.086a14.923,14.923,0,0,0-2.3,2.179c-.781.83-1.559,1.664-2.32,2.512-.74.826-1.456,1.675-2.195,2.5-.368.412-.753.811-1.106,1.236-.262.316-.649.684-.635,1.122a.036.036,0,0,0,.026.034.339.339,0,0,0,.4-.081,0,0,0,0,0-.007-.007Z" transform="translate(-357.309 -234.701)" fill="#c44f50"/>
      </g>
      <g id="Groupe_39548" data-name="Groupe 39548" transform="translate(36.956 12.177)">
        <path id="Tracé_34542" data-name="Tracé 34542" d="M380.429,245.574a45.793,45.793,0,0,0,7.979,2.071l4.1.848a18.515,18.515,0,0,0,4.058.563c.1,0,.161-.159.055-.206a17.748,17.748,0,0,0-3.778-1.012l-4.264-.828a74.317,74.317,0,0,1-8.039-1.851c-.272-.085-.366.316-.115.417Z" transform="translate(-380.283 -245.146)" fill="#c44f50"/>
      </g>
      <g id="Groupe_39549" data-name="Groupe 39549" transform="translate(45.797 2.066)">
        <path id="Tracé_34543" data-name="Tracé 34543" d="M396.555,234.835c.706-.648,1.391-1.306,2.074-1.978.7-.687,1.339-1.435,2.058-2.1q1.05-.976,2.155-1.89.537-.446,1.082-.882a4.164,4.164,0,0,0,1.044-.957.117.117,0,0,0-.13-.17,3.286,3.286,0,0,0-1.022.692q-.565.47-1.122.95-1.113.962-2.2,1.953c-.708.643-1.461,1.238-2.147,1.9a23.863,23.863,0,0,0-2.022,2.249.163.163,0,0,0,.231.23Z" transform="translate(-396.283 -226.85)" fill="#c44f50"/>
      </g>
      <g id="Groupe_39550" data-name="Groupe 39550" transform="translate(60.022 0.793)">
        <path id="Tracé_34544" data-name="Tracé 34544" d="M422.321,229.419c1.616-1.709,3.427-3.2,5.183-4.759.059-.052-.017-.141-.082-.106a19.261,19.261,0,0,0-5.352,4.614c-.145.172.092.419.251.251Z" transform="translate(-422.024 -224.546)" fill="#c44f50"/>
      </g>
      <g id="Groupe_39551" data-name="Groupe 39551" transform="translate(55.646 7.836)">
        <path id="Tracé_34545" data-name="Tracé 34545" d="M414.225,237.622c1.854.269,3.71.538,5.546.916.9.185,1.8.379,2.686.614a24.338,24.338,0,0,0,2.772.681.082.082,0,0,0,.063-.149,14.466,14.466,0,0,0-5.382-1.649c-1.869-.321-3.755-.533-5.64-.743-.186-.021-.232.3-.045.33Z" transform="translate(-414.105 -237.291)" fill="#c44f50"/>
      </g>
      <g id="Groupe_39552" data-name="Groupe 39552" transform="translate(20.922 16.938)">
        <path id="Tracé_34546" data-name="Tracé 34546" d="M351.275,253.838c.288.515,1.159.591,1.68.7.823.172,1.641.356,2.453.572s1.62.448,2.419.7a18.457,18.457,0,0,0,2.418.681.1.1,0,0,0,.074-.175,15.13,15.13,0,0,0-4.517-1.687q-1.18-.3-2.377-.534c-.364-.071-.73-.118-1.1-.179a4.328,4.328,0,0,0-1.012-.153.049.049,0,0,0-.041.072Z" transform="translate(-351.268 -253.762)" fill="#c44f50"/>
      </g>
      <g id="Groupe_39553" data-name="Groupe 39553" transform="translate(20.106 22.064)">
        <path id="Tracé_34547" data-name="Tracé 34547" d="M350.025,267.64c1.523-.663,3.04-1.32,4.534-2.046.732-.355,1.453-.729,2.172-1.11a9.029,9.029,0,0,0,2.029-1.25.116.116,0,0,0-.112-.193,10.071,10.071,0,0,0-2.192.972c-.726.366-1.454.729-2.177,1.1-1.469.754-2.929,1.529-4.409,2.261-.18.089-.022.343.155.265Z" transform="translate(-349.79 -263.039)" fill="#c44f50"/>
      </g>
      <g id="Groupe_39554" data-name="Groupe 39554" transform="translate(33.765 25.217)">
        <path id="Tracé_34548" data-name="Tracé 34548" d="M374.759,273.364c3.044-1.586,6.262-2.837,9.268-4.492.065-.036.021-.149-.052-.123-1.64.583-3.22,1.306-4.813,2a31.992,31.992,0,0,0-4.572,2.32.168.168,0,0,0,.17.29Z" transform="translate(-374.509 -268.745)" fill="#c44f50"/>
      </g>
      <g id="Groupe_39555" data-name="Groupe 39555" transform="translate(47.802 29.767)">
        <path id="Tracé_34549" data-name="Tracé 34549" d="M400.117,280.866c1.606-.57,3.2-1.175,4.789-1.788q1.175-.452,2.354-.89a7.279,7.279,0,0,0,2.136-.955.15.15,0,0,0-.1-.254,6.956,6.956,0,0,0-2.273.671q-1.22.459-2.434.934c-1.554.607-3.088,1.264-4.593,1.984a.164.164,0,0,0,.126.3Z" transform="translate(-399.911 -276.978)" fill="#c44f50"/>
      </g>
      <g id="Groupe_39556" data-name="Groupe 39556" transform="translate(60.212 35.298)">
        <path id="Tracé_34550" data-name="Tracé 34550" d="M422.651,289.03a21.471,21.471,0,0,1,3.08-.994c.527-.126,1.053-.242,1.584-.35a8.953,8.953,0,0,0,1.562-.387c.108-.043.146-.235,0-.259a7.79,7.79,0,0,0-3.246.41,21.9,21.9,0,0,0-3.153,1.167c-.23.106-.064.51.174.413Z" transform="translate(-422.368 -286.988)" fill="#c44f50"/>
      </g>
      <g id="Groupe_39557" data-name="Groupe 39557" transform="translate(53.514 35.586)">
        <path id="Tracé_34551" data-name="Tracé 34551" d="M410.289,287.854c.838,1.114,1.7,2.194,2.627,3.239a22.137,22.137,0,0,0,2.918,2.955c.172.132.413-.124.3-.3a15.251,15.251,0,0,0-1.272-1.538c-.471-.523-.932-1.054-1.4-1.579-.922-1.034-1.863-2.046-2.806-3.061-.174-.187-.522.067-.362.28Z" transform="translate(-410.248 -287.509)" fill="#c44f50"/>
      </g>
      <g id="Groupe_39558" data-name="Groupe 39558" transform="translate(39.052 31.532)">
        <path id="Tracé_34552" data-name="Tracé 34552" d="M384.091,280.427a20.047,20.047,0,0,0,2.776,4.762,20.568,20.568,0,0,0,3.919,3.925c.129.094.26-.1.163-.211a51.536,51.536,0,0,1-3.522-4.146c-1.05-1.452-2.048-2.945-2.959-4.489-.114-.194-.47-.063-.377.159Z" transform="translate(-384.075 -280.173)" fill="#c44f50"/>
      </g>
      <g id="Groupe_39559" data-name="Groupe 39559" transform="translate(25.721 28.292)">
        <path id="Tracé_34553" data-name="Tracé 34553" d="M359.986,274.6a44.035,44.035,0,0,0,4.377,5.759c.81.9,1.646,1.777,2.5,2.639.425.43.855.857,1.295,1.274a6.738,6.738,0,0,0,1.378,1.136c.19.1.452-.113.315-.315a7.782,7.782,0,0,0-1.17-1.209c-.418-.393-.834-.788-1.243-1.191q-1.3-1.276-2.491-2.644c-1.6-1.824-3.141-3.72-4.607-5.653-.152-.2-.492-.021-.349.2Z" transform="translate(-359.952 -274.309)" fill="#c44f50"/>
      </g>
      <g id="Groupe_39560" data-name="Groupe 39560" transform="translate(15.04 25.401)">
        <path id="Tracé_34554" data-name="Tracé 34554" d="M340.645,269.344a18.7,18.7,0,0,0,1.848,3.154,16.021,16.021,0,0,0,1.148,1.393,8.146,8.146,0,0,0,1.306,1.26c.213.145.46-.135.341-.342a13.855,13.855,0,0,0-1.048-1.382q-.545-.719-1.1-1.431c-.73-.943-1.472-1.88-2.183-2.838a.182.182,0,0,0-.315.184Z" transform="translate(-340.623 -269.077)" fill="#c44f50"/>
      </g>
    </g>
    <g id="Groupe_39562" data-name="Groupe 39562" transform="translate(167.891 121.437)">
      <path id="Tracé_34555" data-name="Tracé 34555" d="M356.838,300.1a.252.252,0,0,0,.166.419c.02.005.034.019.056.019a38.034,38.034,0,0,0,10.458-1.307c.548-.157,1.188-.448,1.178-1.119-.01-.733-.723-1.072-1.347-1.162a12.672,12.672,0,0,0-5.45.789A12.909,12.909,0,0,0,356.838,300.1Z" transform="translate(-341.757 -284.135)" fill="#dc9596"/>
      <path id="Tracé_34556" data-name="Tracé 34556" d="M386.9,297.027a14.718,14.718,0,0,0-7.146-2.418,25.555,25.555,0,0,0-4.768-.049,19.98,19.98,0,0,0-3.676.524q-2.15-.516-4.3-1.022c-.272-.065-.544-.125-.817-.188a3.7,3.7,0,0,0-.4-.185.283.283,0,0,0-.284.028l-.177-.041c.345-.042.686-.091,1.01-.132a32.061,32.061,0,0,0,3.825-.716,30.829,30.829,0,0,0,3.949-1.281,10.222,10.222,0,0,0,3.023-1.554,1.913,1.913,0,0,0,.6-2.445c-.524-.728-1.548-.665-2.334-.576a22.968,22.968,0,0,0-6.785,1.857A20.657,20.657,0,0,0,365,290.907a11.367,11.367,0,0,0-2.467,2.165c-1.436-.291-2.878-.553-4.333-.769q-9.1-1.351-18.23-2.434-1.149-.134-2.3-.229l.009,0q1.2-.343,2.4-.707c1.5-.458,2.983-.948,4.449-1.5a27.231,27.231,0,0,0,7.653-4.033c.67-.541,2.339-1.749,1.809-2.8-.521-1.034-2.157-.749-3.054-.618a21.844,21.844,0,0,0-8.23,3.372,29.512,29.512,0,0,0-3.84,2.911,18.9,18.9,0,0,0-2.951,3.078c-.119.053-.237.106-.35.167h0c-.744-.033-1.489-.05-2.233-.045l.044-.165a27.057,27.057,0,0,0,2.463-2.45c.97-1.024,1.943-2.06,2.829-3.159.906-1.126,1.769-2.287,2.567-3.492a11.018,11.018,0,0,0,1.845-3.524,2.512,2.512,0,0,0-.832-2.689c-.929-.569-1.887.421-2.53.988a19.081,19.081,0,0,0-4.421,6.006,28.782,28.782,0,0,0-2.6,8.156c-.09.1-.188.2-.274.3a.223.223,0,0,0-.025.046c-.919.027-1.837.084-2.756.182-.039,0-.04.064,0,.062.918-.047,1.835-.051,2.752-.028a.2.2,0,0,0,.309.1c.043-.028.083-.059.125-.087l.087,0a.325.325,0,0,0,.192.007c.653.028,1.3.072,1.957.128a.219.219,0,0,0,.041.138c.009.012.02.023.029.034a13.967,13.967,0,0,0,1.936,5.744,16.027,16.027,0,0,0,3.977,4.855c.7.539,1.827,1.215,2.745.813.827-.361.5-1.572.313-2.226a14.459,14.459,0,0,0-3.241-5.475,19.878,19.878,0,0,0-2.569-2.422c-.463-.36-.939-.7-1.43-1.025-.151-.1-.3-.2-.454-.3l.03-.007c2.184.239,4.362.595,6.53.968a7.612,7.612,0,0,0,1.389,2.85,23.163,23.163,0,0,0,2.128,2.636,24.313,24.313,0,0,0,5.414,4.354,2.8,2.8,0,0,0,2.763.427A1.607,1.607,0,0,0,355.23,299c-.906-2.033-3.02-3.5-4.794-4.732a35.61,35.61,0,0,0-3.591-2.174c-.482-.256-.973-.5-1.465-.73.781.134,1.56.266,2.338.391,5.858.937,11.761,1.609,17.539,2.979a14.936,14.936,0,0,0,.989,2.684c.51,1.165,1,2.342,1.574,3.477a26.454,26.454,0,0,0,4.317,5.968c.561.6,1.542,1.559,2.457,1.1s.492-1.692.234-2.42a24.79,24.79,0,0,0-3.392-6.4,25.636,25.636,0,0,0-2.543-2.965c-.25-.249-.517-.522-.8-.8.948.213,1.894.434,2.833.681a9.665,9.665,0,0,0,3.417,1.716,39.168,39.168,0,0,0,4,1.324,36.8,36.8,0,0,0,8.3,1.26c.765.028,1.977.156,1.939-.944A3.519,3.519,0,0,0,386.9,297.027Z" transform="translate(-329.603 -273.813)" fill="#dc9596"/>
    </g>
    <g id="Groupe_39568" data-name="Groupe 39568" transform="translate(158.629 18.789)">
      <path id="Tracé_34557" data-name="Tracé 34557" d="M332.257,115.476c7.374-6.577,9.368-9.965,11.759-14.749s6.776-14.549,17.938-12.357,11.161,11.759,8.57,17.539-6.577,5.979-6.377,13.752,1.4,16.144-10.762,23.717-34.879,19.732-39.662,15.546S324.883,122.053,332.257,115.476Z" transform="translate(-312.842 -88.055)" fill="#fdc2c8"/>
      <g id="Groupe_39563" data-name="Groupe 39563" transform="translate(12.209 7.965)">
        <path id="Tracé_34558" data-name="Tracé 34558" d="M334.991,151.827c2.363-3.223,4.769-6.412,7.1-9.658s4.636-6.5,7-9.709c4.8-6.513,9.645-12.987,14.716-19.29q2.1-2.606,4.221-5.189c1.4-1.7,2.887-3.356,4.137-5.173.151-.22-.176-.45-.36-.277a50.022,50.022,0,0,0-4.06,4.567q-1.91,2.3-3.77,4.641-3.7,4.665-7.28,9.424c-4.809,6.364-9.407,12.877-14.061,19.354-2.658,3.7-5.144,7.512-7.7,11.283-.02.03.028.057.049.028Z" transform="translate(-334.937 -102.469)" fill="#c44f50"/>
      </g>
      <g id="Groupe_39564" data-name="Groupe 39564" transform="translate(31.599 8.285)">
        <path id="Tracé_34559" data-name="Tracé 34559" d="M370.162,124.466a110.377,110.377,0,0,1,2.694-10.889c1.075-3.6,2.7-6.945,4.093-10.426.036-.092-.1-.141-.154-.065a45.192,45.192,0,0,0-4.536,10.326,46.815,46.815,0,0,0-2.234,11.035.07.07,0,0,0,.138.019Z" transform="translate(-370.025 -103.049)" fill="#c44f50"/>
      </g>
      <g id="Groupe_39565" data-name="Groupe 39565" transform="translate(36.848 16.188)">
        <path id="Tracé_34560" data-name="Tracé 34560" d="M379.79,124.6c2.964-1.161,5.913-2.356,8.87-3.533q2.187-.87,4.381-1.719,1.1-.424,2.2-.843a5.935,5.935,0,0,0,1.836-.841.184.184,0,0,0-.129-.311,6.1,6.1,0,0,0-2.006.619q-1.1.419-2.2.844-2.263.875-4.517,1.774c-2.888,1.155-5.762,2.347-8.6,3.625-.215.1-.061.471.162.385Z" transform="translate(-379.525 -117.35)" fill="#c44f50"/>
      </g>
      <g id="Groupe_39566" data-name="Groupe 39566" transform="translate(22.023 34.138)">
        <path id="Tracé_34561" data-name="Tracé 34561" d="M352.856,159.134a131.909,131.909,0,0,0,13.485-4.075q3.3-1.124,6.587-2.3a33.785,33.785,0,0,0,6.391-2.6.179.179,0,0,0-.136-.325,39.627,39.627,0,0,0-6.617,2.16q-3.283,1.176-6.585,2.3c-4.4,1.5-8.865,2.869-13.194,4.583a.131.131,0,0,0,.07.252Z" transform="translate(-352.696 -149.833)" fill="#c44f50"/>
      </g>
      <g id="Groupe_39567" data-name="Groupe 39567" transform="translate(19.588 29.673)">
        <path id="Tracé_34562" data-name="Tracé 34562" d="M348.584,159.322a57.032,57.032,0,0,0,1.927-8.733c.228-1.365.423-2.736.6-4.109a34.909,34.909,0,0,0,.305-4.591.141.141,0,0,0-.275-.037c-.63,2.908-.983,5.865-1.453,8.809-.46,2.874-1.08,5.727-1.4,8.621-.02.175.243.191.293.04Z" transform="translate(-348.289 -141.752)" fill="#c44f50"/>
      </g>
    </g>
    <path id="Tracé_34563" data-name="Tracé 34563" d="M400.392,181.541c-.824-.874-2.413-.865-3.494-.72a20.516,20.516,0,0,0-7.961,3.167,38.939,38.939,0,0,0-7.161,5.78c-.092.035-.185.061-.276.1,0,0,0,.006-.008.008-.752.245-1.505.485-2.253.74-2.787.95-5.536,2.007-8.27,3.1-.811.324-1.62.655-2.429.984a14.39,14.39,0,0,0,1.734-1.487,24.616,24.616,0,0,0,2.381-2.634,23.591,23.591,0,0,0,3.447-6.21c.3-.817.856-2.03.122-2.786-.758-.781-1.674.151-2.261.663a20.658,20.658,0,0,0-4.466,5.581,19.953,19.953,0,0,0-2.46,7.436.171.171,0,0,0,0,.045q-3.693,1.516-7.359,3.1a2.172,2.172,0,0,0-.785.311c-.017.012-.023.029-.036.043q-1.908.827-3.809,1.671c-.756.336-1.51.68-2.255,1.039a18.274,18.274,0,0,0,1.171-1.71,29.474,29.474,0,0,0,1.762-3.119,16.033,16.033,0,0,0,1.739-6.593,2.888,2.888,0,0,0-.775-2.378,1.53,1.53,0,0,0-1.969.022,7.146,7.146,0,0,0-1.861,2.725,15.642,15.642,0,0,0-1.061,3.187,28.629,28.629,0,0,0-.447,8.6c-.128.067-.258.132-.385.2a13.372,13.372,0,0,0-3.588,2.584.089.089,0,0,0,.107.139c1.175-.631,2.278-1.387,3.46-2.012,1.034-.546,2.089-1.043,3.156-1.517a11.757,11.757,0,0,0,1.3,2.37c.548.842,1.109,1.677,1.731,2.466a11.373,11.373,0,0,0,4.525,3.725,3.291,3.291,0,0,0,2.451.118,1.673,1.673,0,0,0,.98-1.865,5.081,5.081,0,0,0-1.571-2.422,23.434,23.434,0,0,0-2.413-2.224,17.984,17.984,0,0,0-3.028-1.881c-.549-.277-1.111-.533-1.683-.758-.2-.08-.415-.172-.633-.254q1.515-.655,3.033-1.3c3.806,3.408,9.01,5.945,14.224,5.1.815-.132,2.178-.323,2.6-1.183.377-.775-.394-1.344-.987-1.685a24.667,24.667,0,0,0-7.167-2.984,26.478,26.478,0,0,0-4.267-.55c-.432-.02-.865-.023-1.3-.015l.423-.18c3.74-1.583,8.049-3.35,11.839-4.8.591.816,5.989,3.4,9.32,4.107a37.252,37.252,0,0,0,5.089.736,6.188,6.188,0,0,0,4.6-1.094.37.37,0,0,0-.074-.575,24.785,24.785,0,0,0-9.591-4.022,21.693,21.693,0,0,0-5.183-.464c-.193.008-.4.017-.6.029.276-.1.549-.206.825-.305q1.888-.681,3.794-1.31a9.32,9.32,0,0,0,1.316-.124q1.371-.2,2.731-.458a43.246,43.246,0,0,0,4.94-1.2,20.858,20.858,0,0,0,4.277-1.778,19.676,19.676,0,0,0,3.64-2.519C399.872,183.707,401.245,182.446,400.392,181.541Z" transform="translate(-169.657 -110.738)" fill="#dc9596"/>
    <g id="Groupe_39574" data-name="Groupe 39574" transform="translate(0 67.462)">
      <path id="Tracé_34564" data-name="Tracé 34564" d="M94.511,202.479c-7.187-12.671-9.456-15.508-13.239-12.293a11.992,11.992,0,0,0-3.972,7.944s-8.321-17.778-14.562-18.913-3.215,14-3.215,13.428S46.1,175.056,33.8,176.191s-9.078,18.912.378,25.531S60.847,209.1,60.847,209.1s-17.588-.189-13.239,10.023S80.327,228.2,80.327,228.2s-17.21.567-14,6.619,35.366,1.135,35.366,1.135S101.7,215.15,94.511,202.479Z" transform="translate(-25.781 -176.137)" fill="#fdc2c8"/>
      <g id="Groupe_39569" data-name="Groupe 39569" transform="translate(13.279 13.168)">
        <path id="Tracé_34565" data-name="Tracé 34565" d="M49.981,200.46a110.837,110.837,0,0,1,25.786,13.973,253.959,253.959,0,0,1,23.809,19.678c4.406,4,8.684,8.141,13.278,11.922.234.192.561-.117.339-.339-3.76-3.753-7.7-7.314-11.614-10.914s-7.864-7.143-11.9-10.594a150.8,150.8,0,0,0-24.534-17.444,96.208,96.208,0,0,0-15.028-6.76c-.3-.106-.429.37-.132.479Z" transform="translate(-49.812 -199.967)" fill="#c44f50"/>
      </g>
      <g id="Groupe_39570" data-name="Groupe 39570" transform="translate(37.922 10.311)">
        <path id="Tracé_34566" data-name="Tracé 34566" d="M94.415,194.875c2.079,3.766,4.149,7.551,5.99,11.441q1.407,2.973,2.639,6.026.585,1.451,1.129,2.919a16.557,16.557,0,0,0,1.2,2.944c.066.107.271.073.256-.07a12.967,12.967,0,0,0-.913-3.025q-.545-1.467-1.132-2.919-1.21-3-2.588-5.922a78.645,78.645,0,0,0-6.492-11.449.053.053,0,0,0-.092.054Z" transform="translate(-94.407 -194.797)" fill="#c44f50"/>
      </g>
      <g id="Groupe_39571" data-name="Groupe 39571" transform="translate(29.937 40.44)">
        <path id="Tracé_34567" data-name="Tracé 34567" d="M80.106,251.791c4.352-.045,8.695-.266,13.033-.612q3.217-.257,6.426-.6,1.6-.171,3.206-.365a11.891,11.891,0,0,0,3.1-.545.165.165,0,0,0-.044-.322,13.457,13.457,0,0,0-3.2.293q-1.6.209-3.206.4-3.209.372-6.427.65c-4.289.369-8.592.612-12.893.795a.155.155,0,0,0,0,.31Z" transform="translate(-79.956 -249.318)" fill="#c44f50"/>
      </g>
      <g id="Groupe_39572" data-name="Groupe 39572" transform="translate(59.83 23.291)">
        <path id="Tracé_34568" data-name="Tracé 34568" d="M134.066,218.508c1.924,4.282,3.568,8.7,5.1,13.136.758,2.188,1.446,4.4,2.109,6.617.331,1.109.661,2.219.959,3.337a27.857,27.857,0,0,0,.946,3.339c.044.109.236.111.226-.03a20.123,20.123,0,0,0-.708-3.437c-.281-1.123-.559-2.246-.865-3.363-.622-2.275-1.338-4.526-2.1-6.758a118.485,118.485,0,0,0-5.421-12.988c-.082-.171-.329-.022-.253.148Z" transform="translate(-134.052 -218.285)" fill="#c44f50"/>
      </g>
      <g id="Groupe_39573" data-name="Groupe 39573" transform="translate(51.388 52.892)">
        <path id="Tracé_34569" data-name="Tracé 34569" d="M119.114,276.873q4.5-.912,8.935-2.094c1.434-.38,2.866-.764,4.294-1.165a44.025,44.025,0,0,0,4.526-1.372.2.2,0,0,0-.106-.385c-1.5.3-2.954.808-4.425,1.213s-2.953.8-4.437,1.168c-2.968.738-5.949,1.434-8.93,2.113-.34.077-.2.59.144.522Z" transform="translate(-118.776 -271.852)" fill="#c44f50"/>
      </g>
    </g>
    <path id="Tracé_34570" data-name="Tracé 34570" d="M117.253,289.981a18.207,18.207,0,0,0-4.9-.366c-1.227.024-2.451.1-3.674.206a9.237,9.237,0,0,0-1.452-1.488c-.624-.594-1.269-1.169-1.933-1.719a14.65,14.65,0,0,0-4.252-2.641,3.755,3.755,0,0,0-2.157-.364c-.692.219-.591.906-.352,1.441.646,1.443,2.113,2.286,3.423,3.043a13.417,13.417,0,0,0,4.78,1.913c-2.4.273-4.777.667-7.137,1.16a12.607,12.607,0,0,0-5.554-2.812,19.588,19.588,0,0,0-6.718-.829c-.923.091-4.976.9-3.685,2.549.621.791,1.975.91,2.878,1.107a34.227,34.227,0,0,0,3.75.6,33.445,33.445,0,0,0,4.489.161c.616-.019,1.241-.041,1.862-.1-3.221.78-6.4,1.712-9.559,2.716-1.9.6-3.785,1.231-5.649,1.926-1.925-2.392-5.594-3.3-8.558-3.018-.54.051-3.726.419-3.013,1.481.181.271.621.369.906.485q.706.286,1.434.517a21.221,21.221,0,0,0,2.781.628,24.533,24.533,0,0,0,3.074.329,15.437,15.437,0,0,0,2.235.011c-.649.255-1.3.518-1.936.8a41.318,41.318,0,0,0-4.546,2.31.3.3,0,0,0-.077-.033,6.861,6.861,0,0,0-3.006.279,13.888,13.888,0,0,0-2.838,1.063,12.241,12.241,0,0,0-4.573,3.975c-.466.682-1.395,1.787-1.073,2.673a1.558,1.558,0,0,0,1.915.736,11.573,11.573,0,0,0,2.9-1.28,21.066,21.066,0,0,0,2.678-1.822,19.95,19.95,0,0,0,2.682-2.569,9.383,9.383,0,0,0,1.638-2.457,52.23,52.23,0,0,1,6.742-3.065c-.425.382-.86.757-1.251,1.174a15.818,15.818,0,0,0-1.941,2.6,15.241,15.241,0,0,0-2.237,6.222c-.093.87-.389,4.788,1.572,3.65a7.446,7.446,0,0,0,2.119-2.621,17.342,17.342,0,0,0,1.475-3.286,18.758,18.758,0,0,0,.809-4.042,32.411,32.411,0,0,1,.484-4.08c1.484-.539,2.982-1.036,4.476-1.511q1.53-.486,3.071-.951a13.335,13.335,0,0,0-1.3,1.288,12.607,12.607,0,0,0-2.364,3.816,9.6,9.6,0,0,0-.344,1.058,4.785,4.785,0,0,0-.235,1.179c.01.619.661.634,1.084.4a10.544,10.544,0,0,0,3.266-3.2,25.615,25.615,0,0,0,2.554-5.324c1.44-.409,2.884-.8,4.336-1.158a14.1,14.1,0,0,0-1.664,3.628,11.945,11.945,0,0,0-.576,4.9c.077.552.223,1.434.753,1.75s1.033-.115,1.324-.543a7.261,7.261,0,0,0,1.386-4.4c-.039-.959-.025-1.913-.078-2.872a15.3,15.3,0,0,0-.036-2.712c0-.006-.007-.01-.01-.015a82.682,82.682,0,0,1,8.453-1.568c.359-.046.718-.086,1.078-.126-.122.09-.242.18-.359.27a14.679,14.679,0,0,0-1.919,1.824,17.489,17.489,0,0,0-2.965,4.509c-.295.653-.715,1.536-.2,2.193.477.613,1.4.454,2.025.2a8.289,8.289,0,0,0,3.7-3.687,20.953,20.953,0,0,0,1.436-2.929,9.44,9.44,0,0,0,.841-2.612c.668-.047,1.337-.087,2.007-.111,1.89-.067,3.784.065,5.666-.135C117.386,290.294,117.451,290.032,117.253,289.981Z" transform="translate(-42.055 -156.73)" fill="#dc9596"/>
    <g id="Groupe_39576" data-name="Groupe 39576" transform="translate(31.98 20.543)">
      <path id="Tracé_34571" data-name="Tracé 34571" d="M124.409,137.028l-1.161,5.606-.175.844-1.594,7.721s-10.045-2.381-21.644-15.339c-.463-.513-.917-1.053-1.359-1.609q-.193-.23-.386-.478a66.814,66.814,0,0,1-7.73-13.115l-.139-.3c-5.506-12.166-8.054-25.148-5.674-27.391,3.142-2.958,5.572-2.936,17.87,6.4l.556.424c1.3,1,2.713,2.09,4.243,3.293a41.609,41.609,0,0,1,5.481,5.182l.523.609C123.92,121.5,124.409,137.028,124.409,137.028Z" transform="translate(-83.654 -91.231)" fill="#fdc2c8"/>
      <g id="Groupe_39575" data-name="Groupe 39575" transform="translate(3.348 4.389)">
        <path id="Tracé_34572" data-name="Tracé 34572" d="M105.127,102.923q.5,3.844.913,7.7c.223,2.035.44,4.075.634,6.119.1,1.017.189,2.038.277,3.059.048.568.077,1.152.14,1.738q-4.437-5.8-8.87-11.591-4.12-5.4-8.334-10.735c-.082-.1-.235.025-.154.135,4.681,6.406,9.5,12.7,14.306,19.018,1.079,1.42,2.152,2.85,3.224,4.275.024.116.043.232.073.342a.129.129,0,0,0,.223.054q5.452,7.218,10.884,14.452,2,2.658,4.013,5.306c1.084,1.432,2.143,2.884,3.324,4.238.306.351.623.7.953,1.039.125.13.393-.006.289-.186q-.506-.864-1.067-1.7c-1.8-2.718-3.949-5.25-5.926-7.818-2.442-3.183-4.914-6.346-7.35-9.528l-5.036-6.585c.008-.757-.084-1.539-.146-2.273-.082-1.026-.165-2.047-.259-3.069-.185-2.089-.386-4.173-.622-6.26-.279-2.445-.588-4.874-.936-7.308Z" transform="translate(-89.712 -99.174)" fill="#c44f50"/>
        <path id="Tracé_34573" data-name="Tracé 34573" d="M136.259,122.672q.035,3.659-.148,7.322c-.185,3.668-.252,7.415-.788,11.054a.088.088,0,0,1-.175-.015c.091-3.7.471-7.379.522-11.077.039-2.628.067-5.262.066-7.893Z" transform="translate(-110.04 -109.415)" fill="#c44f50"/>
        <path id="Tracé_34574" data-name="Tracé 34574" d="M95.675,143.334c1.713-.051,3.428-.132,5.14-.229q2.078-.128,4.156-.314a20.6,20.6,0,0,0,4.262-.555c.153-.05.173-.287-.014-.3a22.7,22.7,0,0,0-3.927.305c-1.379.143-2.762.269-4.145.388-1.866.17-3.739.3-5.61.411Z" transform="translate(-92.318 -118.295)" fill="#c44f50"/>
        <path id="Tracé_34575" data-name="Tracé 34575" d="M126.421,166.4a35.784,35.784,0,0,1-5.536.878q-2.647.284-5.315.419-2.7.134-5.407.092-.193-.23-.386-.478c1.992.013,3.989-.026,5.973-.123q2.668-.137,5.32-.412c1.77-.189,3.532-.481,5.307-.59A.109.109,0,0,1,126.421,166.4Z" transform="translate(-98.689 -129.153)" fill="#c44f50"/>
      </g>
    </g>
    <path id="Tracé_34576" data-name="Tracé 34576" d="M109.191,175.394c-1.729-1.134-3.627-1.974-5.438-2.969s-3.575-2.081-5.3-3.223a97.2,97.2,0,0,1-8.466-6.347,14.2,14.2,0,0,0,.211-2.418,30.091,30.091,0,0,0-.046-3.045c-.064-.976-.159-1.958-.3-2.925a5.312,5.312,0,0,0-.739-2.214,2.064,2.064,0,0,0-1.519-1.053,1.079,1.079,0,0,0-1.1,1.032,16.005,16.005,0,0,0,.436,5.462,19.16,19.16,0,0,0,1.141,3.537q-4.685-4.065-9.156-8.426a10.838,10.838,0,0,0,.385-2.833,21.73,21.73,0,0,0-.024-3.754,24,24,0,0,0-1.206-5.877c-.23-.633-.474-1.819-1.306-1.868-.79-.046-1.331.914-1.612,1.528-.808,1.767-.417,3.841.055,5.644a30.466,30.466,0,0,0,1.837,5.3q-3.757-3.768-7.3-7.717c-.991-1.11-1.94-2.257-2.859-3.429a6.265,6.265,0,0,0-.42-1.66c-.364-1.138-.774-2.26-1.172-3.386a37.712,37.712,0,0,0-3.067-6.888c-.984-1.646-4.352-6.4-6.117-3.017-.734,1.41-.356,3.214.087,4.656a13.982,13.982,0,0,0,2.145,4.151,21.353,21.353,0,0,0,3.733,3.913,20.878,20.878,0,0,0,2.1,1.513,6.959,6.959,0,0,0,2.355,1.121q1.528,2,3.139,3.936a16.163,16.163,0,0,0-11.1-1.447c-1.177.273-4.755,1.207-3.468,3.112.609.9,1.835.852,2.8.907,1.4.081,2.792.151,4.19.162a32.951,32.951,0,0,0,4.591-.254,22,22,0,0,0,2.2-.4,7.733,7.733,0,0,0,1.989-.652q.657.767,1.326,1.525a11.365,11.365,0,0,0-5.379,1.616,15.066,15.066,0,0,0-2.419,1.758,9.644,9.644,0,0,0-2.074,2.295,3.6,3.6,0,0,0-.476,2.77c.248.934.938,1.079,1.815.924a6.3,6.3,0,0,0,2.652-1.338c.827-.633,1.627-1.309,2.4-2.007a23.136,23.136,0,0,0,2.491-2.591,7.169,7.169,0,0,0,1.645-2.689q2.132,2.368,4.376,4.626,2.569,2.576,5.205,5.1c-3.63-.21-7.349-.234-10.7,1.378-.664.319-1.456.742-1.566,1.552a1.173,1.173,0,0,0,1.077,1.374,12.049,12.049,0,0,0,3.08-.143,23.438,23.438,0,0,0,3.12-.636,32.627,32.627,0,0,0,3.452-1.175q.836-.333,1.659-.7a9.472,9.472,0,0,0,1.083-.511,125.117,125.117,0,0,0,10.394,8.847,12.593,12.593,0,0,0-9.572,2.274,5.791,5.791,0,0,0-1.829,1.8c-.377.824.425,1.139,1.094,1.229a11.207,11.207,0,0,0,5.739-1.19A20.365,20.365,0,0,0,92.583,170q.671-.437,1.3-.926a3.426,3.426,0,0,0,.974-.933c.522.383,1.041.773,1.572,1.145a71.27,71.27,0,0,0,6.072,3.828,24.513,24.513,0,0,0,6.455,2.828A.3.3,0,0,0,109.191,175.394Z" transform="translate(-38.78 -85.197)" fill="#dc9596"/>
    <g id="Groupe_39597" data-name="Groupe 39597" transform="translate(56.199 0)">
      <path id="Tracé_34577" data-name="Tracé 34577" d="M128.6,113.2c-3.281-9.022,1.367-15.448,4.921-19.822s6.7-8.2,5.331-14.354-.547-13.26,4.1-17.361,7.792-1.367,7.792-1.367,7.792-9.3,17.909-5.195a25.712,25.712,0,0,1,16.131,22.01c.411,8.476-3.144,23.513-.273,27.888s4.9,9.631,3.554,13.671c-2.734,8.2-14.628,10.918-23.513,11.21C147.874,130.424,131.88,122.222,128.6,113.2Z" transform="translate(-127.482 -54.055)" fill="#51382f"/>
      <path id="Tracé_34578" data-name="Tracé 34578" d="M216.955,162.508A49.2,49.2,0,0,1,227,173.479c5.126,7.382,11.688,19.173,11.688,19.173s-1.435,12.714-2.973,15.584-3.076,2.256-3.076,2.256a31.325,31.325,0,0,1-8.612-7.69C220.339,197.88,216.955,162.508,216.955,162.508Z" transform="translate(-167.513 -102.577)" fill="#fff"/>
      <path id="Tracé_34579" data-name="Tracé 34579" d="M313.651,75.485a10.668,10.668,0,0,1,9.774.957c4.853,3.213,5.879,7.519,5.263,12.235-.5,3.8-4.1,12.372-3.486,16.746s5.6,8,4.443,13.944-7.656,10.526-14.354,9.774-14.764-6.562-14.969-15.858S313.651,75.485,313.651,75.485Z" transform="translate(-204.81 -63.298)" fill="#472d24"/>
      <path id="Tracé_34580" data-name="Tracé 34580" d="M281.276,137.25s.1,7.689,0,8.1-5.195,2.358-5.195,2.358-3.725,9.877,2.734,11.62,14.7-4.272,16.541-6.22a34.286,34.286,0,0,0,4.033-6.357s-4.272-1.094-4.58-2.119-.205-8.1-.205-8.1Z" transform="translate(-193.488 -90.955)" fill="#fda2ab"/>
      <path id="Tracé_34581" data-name="Tracé 34581" d="M286.392,143.16a10.377,10.377,0,0,0,2.186.111,25.442,25.442,0,0,0,7.761-1.609,19.529,19.529,0,0,0,3.324-1.583c-.011-1.851.013-3.546.013-3.546l-13.329.718S286.393,140.757,286.392,143.16Z" transform="translate(-198.559 -90.955)" fill="#d5cfcd" style="mix-blend-mode: multiply;isolation: isolate"/>
      <path id="Tracé_34582" data-name="Tracé 34582" d="M251.89,185.369s-.513,6.151-.718,12.816c-.18,5.864-.82,11.791-.82,11.791s6.972-3.794,9.023-6.972,3.281-6.459,2.563-9.433-4.306-9.535-5.434-9.74S251.89,185.369,251.89,185.369Z" transform="translate(-182.455 -112.11)" fill="#fda2ab"/>
      <path id="Tracé_34583" data-name="Tracé 34583" d="M337.3,197.177c-2.458-3.6-13.124,4.2-13.124,4.2s3.691,7.895,3.179,12.816c-.386,3.705-2.458,6.887-4.814,9.809.4.453.8.914,1.17,1.392a42.333,42.333,0,0,1,3.975,6.22c3.853-3.123,7.489-6.892,9.408-10.347C341.807,212.784,340.283,201.556,337.3,197.177Z" transform="translate(-214.75 -117.663)" fill="#fda2ab"/>
      <path id="Tracé_34584" data-name="Tracé 34584" d="M261.7,158.982s-3.589.411-6.767,5.639A25.448,25.448,0,0,0,251.651,176l9.433.41s1.845-9.022,1.845-12.2A10.949,10.949,0,0,0,261.7,158.982Z" transform="translate(-183.036 -101)" fill="#fff"/>
      <path id="Tracé_34585" data-name="Tracé 34585" d="M316.9,156.855s4.511-.922,7.074,2.666,8.51,20.813,8.51,20.813-3.794,1.538-8,2.973a52.305,52.305,0,0,0-7.075,2.974s-8.3-5.434-8.817-12.611S315.666,156.753,316.9,156.855Z" transform="translate(-208.5 -100)" fill="#fff"/>
      <path id="Tracé_34586" data-name="Tracé 34586" d="M139.307,225.775c-.444,5.582-.888,12.732-1.162,17.374,1.381-.024,2.763-.055,4.144-.063,2.145-.013,4.29-.027,6.434-.03q11.425-.018,22.85-.027l11.346.006c1.806,0,3.614,0,5.421.007-.354-5.08-.862-12.67-1.113-17.9-.411-8.51.959-27.524.959-27.524s2.8-12.96-1.921-24.546c-3.429-8.425-4.125-15.113-8.47-20.265-1.631-1.933-4.143-3.45-6.909-5.162-5.6-3.468-15.237-2.066-15.237-2.066s-12.97,5.126-19.52,13.037c-6.158,7.437-4.234,23.627-2.256,29.939a63.713,63.713,0,0,0,4.511,11.073S140.024,216.753,139.307,225.775Z" transform="translate(-129.48 -94.879)" fill="#fff"/>
      <path id="Tracé_34587" data-name="Tracé 34587" d="M172.288,125.4s.308,10.765-.1,12-2.358,2.256-2.358,2.256,6.87,7.177,13.021,5.639,6.357-4.716,6.357-4.716a13.506,13.506,0,0,1-2.563-2.358c-.82-1.128-.513-8.51-.513-8.51Z" transform="translate(-146.427 -85.975)" fill="#fda2ab"/>
      <path id="Tracé_34588" data-name="Tracé 34588" d="M177.039,130.267A24.441,24.441,0,0,0,184.4,134a13.753,13.753,0,0,0,3.7.665c-.084-2.352.024-4.96.024-4.96L174.28,125.4s.029,1.022.057,2.471A20.5,20.5,0,0,0,177.039,130.267Z" transform="translate(-148.42 -85.975)" fill="#d5cfcd" style="mix-blend-mode: multiply;isolation: isolate"/>
      <path id="Tracé_34589" data-name="Tracé 34589" d="M163.89,73.658s1.333,17.532,2.461,21.634,3.794,7.484,12.406,9.945,11.688.718,14.867-6.664,1.846-22.351.307-25.427-15.687-6.767-21.018-4.921A27.026,27.026,0,0,0,163.89,73.658Z" transform="translate(-143.771 -60.172)" fill="#fda2ab"/>
      <path id="Tracé_34590" data-name="Tracé 34590" d="M268.875,78.053s-2.952,15.624-2.514,18.64c.422,2.9,3.539,12.939,8.871,14.17s11.586.82,16.3-2.768c3.408-2.593,5.947-11.586,6.972-18.352s-14.661-19.481-19.685-18.558S269.183,76.822,268.875,78.053Z" transform="translate(-189.597 -61.697)" fill="#fda2ab"/>
      <path id="Tracé_34591" data-name="Tracé 34591" d="M160.965,88.912s3.828-2.392,5.81-8.954,1.777-11.62.889-12.85-7.382-.684-10.116,3.622-1.3,13.192-.171,15.516A5.055,5.055,0,0,0,160.965,88.912Z" transform="translate(-140.231 -59.638)" fill="#51382f"/>
      <path id="Tracé_34592" data-name="Tracé 34592" d="M163.026,104.194s-3.076-3.691-5.537-2.256-1.183,5.741,2.666,6.664a6.044,6.044,0,0,0,4.511-.718Z" transform="translate(-140.344 -75.33)" fill="#fda2ab"/>
      <path id="Tracé_34593" data-name="Tracé 34593" d="M173.128,68.644a29.1,29.1,0,0,1,16.131,2.188c8.544,3.759,11.893,8.544,11.893,8.544s-1.3-11.209-6.289-15.653-15.584-4.989-19.549-1.845a16.145,16.145,0,0,0-4.374,6.494Z" transform="translate(-146.926 -56.663)" fill="#51382f"/>
      <path id="Tracé_34594" data-name="Tracé 34594" d="M278.955,71.4s-2.8.615-6.426,3.964a16.821,16.821,0,0,0-4.648,6.221,32.914,32.914,0,0,0-1.094,5.263,20.385,20.385,0,0,1,1.025-13.055c3.418-7.519,10.937-11.347,20.164-10.116s13.671,7.177,14.833,15.311c1.231,8.62-1.231,12.372-1.231,12.372a15.92,15.92,0,0,1-4.1-.547c-.957-.479-8.271-7.45-12.987-12.919C280.479,73.243,278.955,71.4,278.955,71.4Z" transform="translate(-189.527 -58.259)" fill="#51382f"/>
      <path id="Tracé_34595" data-name="Tracé 34595" d="M318.192,112.271s5.893-4.467,7.177-2.358c1.435,2.358-.411,6.151-3.486,7.177a7.37,7.37,0,0,1-4.921-.411Z" transform="translate(-212.256 -78.793)" fill="#fda2ab"/>
      <path id="Tracé_34596" data-name="Tracé 34596" d="M164.168,152.137l3.948-2.153s6.254,6.767,11.944,5.639S185.9,150.7,185.9,150.7s4.511,2.615,4.973,3.64.146,16.892-1.443,21.917-3.171,10.124-4.3,9.663S164.168,152.137,164.168,152.137Z" transform="translate(-143.895 -96.974)" fill="#c44f50"/>
      <path id="Tracé_34597" data-name="Tracé 34597" d="M262.166,155.008s-5.81,1.231-6.9,2.461.41,4.306-.684,8.271-5.126,7.519-6.22,11.62A9.588,9.588,0,0,0,250.2,185.9c1.094,1.367,2.6,2.939,2.6,2.939a47.049,47.049,0,0,0-9.091,9.911c-3.281,5.263-4.306,13.6-2.256,18.866a29.822,29.822,0,0,0,5.741,9.022,93.739,93.739,0,0,0-.11,11.8,81.809,81.809,0,0,0,.957,8.134l43.377.022s2.461-12.406,1.743-20.4c-.651-7.255-1.879-11.381-4.34-18.216a110.568,110.568,0,0,0-4.785-11.415l3.691-11.688s-4.716-2.119-6.083-9.3.889-13.329,3.349-15.994a14.674,14.674,0,0,1,4.823-3.7c.342-.137-6.805-1.357-6.805-1.357S277,166.286,266.473,166.012,262.166,155.008,262.166,155.008Z" transform="translate(-178.001 -99.007)" fill="#c44f50"/>
      <path id="Tracé_34598" data-name="Tracé 34598" d="M235.414,250.386a54.252,54.252,0,0,0,5.81-1.435c.752-.41,2.974-5.058,5.024-7.314s2.871-2.871,2.631-3.247c-.316-.5-2.187.205-3.9,1.709s-2.871,2.734-2.871,2.734a16.459,16.459,0,0,1,4.716-5.024c1.509-1.064,2.6-1.3,2.119-1.982s-2.6-.137-4.785,1.572a17.935,17.935,0,0,0-3.417,3.486,14.252,14.252,0,0,1,3.349-4.033c2.187-1.777,3.144-2.392,3.007-3.007s-2.974.239-4.887,2.084a23.224,23.224,0,0,0-2.9,3.315,17.654,17.654,0,0,1,3.069-4.1c1.466-1.187,3.053-2.288,2.912-2.834s-1.974-.349-4.259,1.664a16.759,16.759,0,0,0-3.568,4.658s.547-1.777-.684-1.23-3.622,4.1-3.622,4.1.889,2.939,1.572,5.195A14.12,14.12,0,0,1,235.414,250.386Z" transform="translate(-174.762 -133.688)" fill="#fda2ab"/>
      <path id="Tracé_34599" data-name="Tracé 34599" d="M162.122,150.976s10.355,17.84,14.354,23.992,5.844,8.407,5.844,8.407a90.469,90.469,0,0,0,3.384-15.892c.615-7.074.581-14.388.581-14.388a18.2,18.2,0,0,1,4.751,3.9,2.7,2.7,0,0,1,.615,1.777s.308,8.715-.307,9.228-4-.205-4-.205,4.409,4.409,4.1,5.434-6.869,19.07-8.2,19.993-5.536-7.69-9.945-12.2-8.1-6.459-8-6.972,1.436-6.767.616-6.767-2.563,2.768-3.281,2.461-7.279-14.764-6.254-15.994S161.3,150.669,162.122,150.976Z" transform="translate(-140.363 -97.403)" fill="#fff"/>
      <path id="Tracé_34600" data-name="Tracé 34600" d="M308.577,241.212c-1.084-1.055-2.194-2.165-3.4-3.142a41.785,41.785,0,0,1-5.533,7.458,24.94,24.94,0,0,1-7.279,5.639s-9.228-.615-9.741.82,5.844,1.743,5.844,1.743a22.574,22.574,0,0,1-5.417,2.512c-2.461.615-6.579.359-6.169,1.384s3.868,1.147,5.622,1.094a12.51,12.51,0,0,0,3.606-.82s-1.555,1.384-5.877,2.116c-2.947.5-3.835.251-3.515,1.209s3.783.7,5.751.4a26.539,26.539,0,0,0,4.084-1.008,14.687,14.687,0,0,1-5.54,2.3c-1.789.321-3.29.471-3.023,1.3.209.649,4.29.5,6.065-.013a24.565,24.565,0,0,0,3.8-1.577,10.378,10.378,0,0,1-3.948,2.358c-2.089.831-2.841,1.018-2.425,1.422.913.885,5.058-.178,8.244-2.216a29.773,29.773,0,0,0,6.229-6.049s10.25-6,16.641-12.777C311.3,243.937,309.956,242.555,308.577,241.212Z" transform="translate(-194.226 -136.384)" fill="#fda2ab"/>
      <path id="Tracé_34601" data-name="Tracé 34601" d="M206.114,103.133a7.947,7.947,0,0,0-2.068.066l-.717.043c-.117.007-.458.089-.538.033-.231-.162-.159-1.077-.174-1.333-.1-1.7-.129-3.413-.151-5.115a.21.21,0,0,0-.419,0,23.535,23.535,0,0,0-.014,4.385,11.764,11.764,0,0,0,.259,2.057c.148.526.672.385,1.126.379.717-.01,1.434-.028,2.151-.031.327,0,.792-.014.523.451a2.851,2.851,0,0,1-.638.64,4.4,4.4,0,0,1-1.663.851c-.587.161-1.184.2-1.757.408a.223.223,0,0,0,0,.425c1.2.481,2.612-.323,3.547-1.044.421-.324,1.064-.827,1.186-1.377C206.866,103.516,206.517,103.221,206.114,103.133Z" transform="translate(-160.766 -73.101)" fill="#b4a9a5" style="mix-blend-mode: multiply;isolation: isolate"/>
      <path id="Tracé_34602" data-name="Tracé 34602" d="M212.236,100.45a1.868,1.868,0,0,0-.671-.673,1.081,1.081,0,0,0-1.208.056,1.8,1.8,0,0,0-.542,1.251,3.5,3.5,0,0,0,.063,1.177,1.654,1.654,0,0,0,.346.732.964.964,0,0,0,.828.247,1.915,1.915,0,0,0,.959-.379,1.364,1.364,0,0,0,.406-.656,2.237,2.237,0,0,0,.074-1.121A1.968,1.968,0,0,0,212.236,100.45Z" transform="translate(-164.308 -74.441)" fill="#472d24"/>
      <path id="Tracé_34603" data-name="Tracé 34603" d="M193.205,100.665a2.014,2.014,0,0,0-.723-.725,1.165,1.165,0,0,0-1.3.061,1.942,1.942,0,0,0-.583,1.347,3.757,3.757,0,0,0,.067,1.268,1.777,1.777,0,0,0,.373.789,1.036,1.036,0,0,0,.892.266,2.056,2.056,0,0,0,1.033-.407,1.472,1.472,0,0,0,.437-.707,2.409,2.409,0,0,0,.08-1.208A2.141,2.141,0,0,0,193.205,100.665Z" transform="translate(-155.71 -74.509)" fill="#472d24"/>
      <path id="Tracé_34604" data-name="Tracé 34604" d="M192.071,93.685a7.321,7.321,0,0,0-2.911-.128,1.9,1.9,0,0,0-1.584.97" transform="translate(-154.368 -71.688)" fill="none" stroke="#472d24" stroke-miterlimit="10" stroke-width="1.215"/>
      <path id="Tracé_34605" data-name="Tracé 34605" d="M209.54,93.326a4.694,4.694,0,0,1,2.161-.133,2.84,2.84,0,0,1,1.817,1.184" transform="translate(-164.195 -71.533)" fill="none" stroke="#472d24" stroke-miterlimit="10" stroke-width="1.173"/>
      <g id="Groupe_39577" data-name="Groupe 39577" transform="translate(34.874 35.48)">
        <path id="Tracé_34606" data-name="Tracé 34606" d="M190.591,118.26a50.7,50.7,0,0,0,7.718.448,24.376,24.376,0,0,0,5.09-.392s-1.4,5.649-6.264,5.761S190.591,118.26,190.591,118.26Z" transform="translate(-190.591 -118.26)" fill="#472d24"/>
        <path id="Tracé_34607" data-name="Tracé 34607" d="M196.371,119.257a3.421,3.421,0,0,0,1.648.7,14.241,14.241,0,0,0,3.5.15,5.519,5.519,0,0,0,2.471-.565,2.517,2.517,0,0,0,.924-.9,37.265,37.265,0,0,1-4.2.241c-1.85.023-3.47-.048-4.746-.139A2.687,2.687,0,0,0,196.371,119.257Z" transform="translate(-192.997 -118.427)" fill="#fff"/>
        <path id="Tracé_34608" data-name="Tracé 34608" d="M201.056,126.394a6.438,6.438,0,0,0-2.615-1.082,12.437,12.437,0,0,0-2.584-.113,8.274,8.274,0,0,0-1.151.115,5.617,5.617,0,0,0,6.617,1.3C201.234,126.542,201.154,126.462,201.056,126.394Z" transform="translate(-192.432 -121.356)" fill="#fb6776"/>
      </g>
      <path id="Tracé_34609" data-name="Tracé 34609" d="M275.489,110.935a8.119,8.119,0,0,1,2.1.306l.724.127c.118.02.456.143.543.1.254-.139.286-1.077.33-1.336.3-1.717.524-3.457.743-5.186a.215.215,0,0,1,.427.048,24.084,24.084,0,0,1-.492,4.463,11.984,11.984,0,0,1-.5,2.063c-.211.518-.728.314-1.189.255-.728-.093-1.456-.193-2.184-.28-.331-.04-.8-.1-.584.4a2.941,2.941,0,0,0,.576.724,4.507,4.507,0,0,0,1.594,1.058c.578.232,1.181.34,1.741.617a.228.228,0,0,1-.049.432c-1.271.351-2.62-.629-3.487-1.471a3.087,3.087,0,0,1-1.048-1.537C274.679,111.238,275.068,110.979,275.489,110.935Z" transform="translate(-193.359 -76.739)" fill="#b4a9a5" style="mix-blend-mode: multiply;isolation: isolate"/>
      <g id="Groupe_39578" data-name="Groupe 39578" transform="translate(104.449 73.054)">
        <path id="Tracé_34610" data-name="Tracé 34610" d="M316.507,186.466q1.265,3.3,2.56,6.582l1.278,3.226a15.641,15.641,0,0,1,1.145,3.17c.018.119.19.078.2-.027a6.105,6.105,0,0,0-.663-3.065L319.59,192.9q-1.369-3.292-2.78-6.566c-.073-.171-.371-.048-.3.128Z" transform="translate(-316.497 -186.256)" fill="#bbb1ae"/>
      </g>
      <g id="Groupe_39579" data-name="Groupe 39579" transform="translate(84.657 89.098)" style="mix-blend-mode: multiply;isolation: isolate">
        <path id="Tracé_34611" data-name="Tracé 34611" d="M280.72,215.675c1.344,2.328,4.039,3.256,6.574,3.587,2.621.343,5.9.052,8.014-1.719.1-.08-.009-.214-.112-.193-1.2.251-2.358.634-3.567.84a15.364,15.364,0,0,1-3.906.173c-2.3-.2-5.119-.995-6.547-2.955-.2-.27-.63-.035-.456.267Z" transform="translate(-280.68 -215.29)" fill="#c8c0bd"/>
      </g>
      <g id="Groupe_39580" data-name="Groupe 39580" transform="translate(96.187 104.218)" style="mix-blend-mode: multiply;isolation: isolate">
        <path id="Tracé_34612" data-name="Tracé 34612" d="M301.913,245.843a15.273,15.273,0,0,0,2.309-1.216,5.771,5.771,0,0,0,1.894-1.738.16.16,0,0,0-.217-.217,20.408,20.408,0,0,0-2.05,1.461,15.258,15.258,0,0,1-2.178,1.3c-.283.138-.035.532.243.415Z" transform="translate(-301.546 -242.653)" fill="#c8c0bd"/>
      </g>
      <g id="Groupe_39581" data-name="Groupe 39581" transform="translate(98.068 107.525)" style="mix-blend-mode: multiply;isolation: isolate">
        <path id="Tracé_34613" data-name="Tracé 34613" d="M305.326,250.511a28.39,28.39,0,0,0,2.683-1.591c.126-.09.054-.341-.115-.272a28.969,28.969,0,0,0-2.82,1.432c-.282.154-.029.589.253.432Z" transform="translate(-304.95 -248.636)" fill="#c8c0bd"/>
      </g>
      <g id="Groupe_39582" data-name="Groupe 39582" transform="translate(71.412 128.842)" style="mix-blend-mode: multiply;isolation: isolate">
        <path id="Tracé_34614" data-name="Tracé 34614" d="M256.892,287.749a15.608,15.608,0,0,0,4.972,1.108,10.017,10.017,0,0,0,4.887-.794.184.184,0,0,0-.092-.34,41.428,41.428,0,0,1-4.795.406,15.156,15.156,0,0,1-4.829-.9c-.331-.119-.458.392-.143.519Z" transform="translate(-256.711 -287.213)" fill="#c8c0bd"/>
      </g>
      <g id="Groupe_39583" data-name="Groupe 39583" transform="translate(41.956 86.578)">
        <path id="Tracé_34615" data-name="Tracé 34615" d="M203.413,210.845c-.044,3.925.174,7.858.257,11.781q.123,5.816.371,11.628c.323,7.8.457,15.606.679,23.409q.092,3.213.186,6.426c.066,2.231,0,4.513.245,6.732a.224.224,0,0,0,.447,0c.091-1.926-.077-3.886-.139-5.814q-.1-2.984-.193-5.967-.192-5.815-.384-11.628c-.27-7.8-.425-15.607-.708-23.409-.159-4.38-.206-8.787-.523-13.158a.119.119,0,0,0-.238,0Z" transform="translate(-203.407 -210.731)" fill="#bbb1ae"/>
      </g>
      <g id="Groupe_39584" data-name="Groupe 39584" transform="translate(17.36 55.023)">
        <path id="Tracé_34616" data-name="Tracé 34616" d="M158.9,153.915c.544,2.9,1.331,5.759,2.161,8.585a80.024,80.024,0,0,0,2.884,8.371.211.211,0,0,0,.346.092,17.732,17.732,0,0,1,3.191-2.2l-.283-.162q-.2,2.279-.4,4.558a5.4,5.4,0,0,0-.082,2.092,1.537,1.537,0,0,0,.6.647,60.563,60.563,0,0,1,6.227,5.566,68.881,68.881,0,0,1,5.554,6.426c.822,1.078,1.622,2.173,2.388,3.292.724,1.06,1.357,2.188,2.177,3.179.127.154.419-.012.343-.2a17.4,17.4,0,0,0-1.884-3.2q-1.09-1.6-2.279-3.13a74.969,74.969,0,0,0-5.281-6.023,59.207,59.207,0,0,0-5.8-5.245,7.334,7.334,0,0,1-1.51-1.2c-.38-.558-.077-1.585-.027-2.213l.36-4.558a.189.189,0,0,0-.283-.162,31.336,31.336,0,0,0-3.251,2.2l.3.124c-.994-2.78-2-5.551-2.846-8.382s-1.491-5.706-2.153-8.587c-.067-.292-.5-.166-.445.123Z" transform="translate(-158.897 -153.627)" fill="#bbb1ae"/>
      </g>
      <g id="Groupe_39585" data-name="Groupe 39585" transform="translate(42.378 60.205)">
        <path id="Tracé_34617" data-name="Tracé 34617" d="M212.551,163.139c-.162,3.538-.435,7.025-.837,10.544l.23-.23a17.554,17.554,0,0,1-2.431-.344.234.234,0,0,0-.261.339q.844,1.568,1.652,3.156c.464.907,1.278,2.044,1.217,3.1a6.83,6.83,0,0,1-.522,1.765q-.291.826-.592,1.648c-.386,1.051-.806,2.091-1.23,3.127-1.745,4.266-3.738,8.42-5.6,12.632-.046.1.094.193.156.091.652-1.092,1.31-2.151,1.864-3.3q.763-1.577,1.483-3.175,1.488-3.292,2.782-6.662c.434-1.136.855-2.277,1.274-3.418a8.238,8.238,0,0,0,.888-3.088,7.736,7.736,0,0,0-1.142-2.718c-.586-1.145-1.2-2.272-1.835-3.392l-.2.347a17.533,17.533,0,0,1,2.431.343.235.235,0,0,0,.283-.161,44.324,44.324,0,0,0,.665-10.6.14.14,0,0,0-.281,0Z" transform="translate(-204.172 -163.004)" fill="#bbb1ae"/>
      </g>
      <path id="Tracé_34618" data-name="Tracé 34618" d="M216.549,180.223c-.109-1.407-.282-2.819-.516-4.211a5.132,5.132,0,0,0-1.425-3.148,13.844,13.844,0,0,0-6.22-2.886,14.42,14.42,0,0,0,.316-3.006q.075-1.732.136-3.464a31.447,31.447,0,0,0-.2-6.674c-.593-3.324-2.639-6.561-6.2-7.106a.159.159,0,0,0-.067.31c3.482,1.073,5.012,4.98,5.275,8.293a48.175,48.175,0,0,1-.057,5.85,28.762,28.762,0,0,0-.044,5.653,13.656,13.656,0,0,0-5.744,3.544,5.156,5.156,0,0,0-1.054,3.291c-.073,1.41-.081,2.833-.029,4.243a82.566,82.566,0,0,0,.889,8.735c.125.863,0,2.313,1.026,2.577a7.717,7.717,0,0,0,1.911.1,11.563,11.563,0,0,0,1.849-.152c0,.033,0,.065,0,.1a1.209,1.209,0,0,0,.125.779.553.553,0,0,0,.861.049,1.7,1.7,0,0,0,.389-.808,3.031,3.031,0,0,0-.1-1.8,1.342,1.342,0,0,0-.536-.745.62.62,0,0,0-.867.253,1.962,1.962,0,0,0-.075,1.037c.007.072.019.141.027.212-.476.032-.95.076-1.428.082-.3,0-.593,0-.889-.015-.144-.007-.957.019-1.045-.091.023.028-.007-.743-.007-.736-.034-.3-.071-.6-.1-.9q-.1-.9-.186-1.8c-.222-2.36-.305-4.731-.418-7.1-.055-1.158-.126-2.316-.176-3.474-.054-1.255-.278-2.429.632-3.437A11.994,11.994,0,0,1,205.3,171.6a1.882,1.882,0,0,0,1,.313,7.712,7.712,0,0,0,1.532.013,9.04,9.04,0,0,0,1.468-.266,3.406,3.406,0,0,0,1.066-.4,12.539,12.539,0,0,1,3.5,2.083c.984.868.924,1.977,1.011,3.191s.154,2.415.235,3.622c.16,2.364.35,4.73.4,7.1q.02.907.023,1.814c0,.3,0,.6,0,.906,0,.147.1.689.078.732-.114.223-1.456.276-1.761.311-.525.059-1.049.072-1.574.1,0-.034,0-.068,0-.1a3.122,3.122,0,0,0-.1-.923.648.648,0,0,0-.79-.464,1.009,1.009,0,0,0-.587.7,3.034,3.034,0,0,0-.025,1.8,2.29,2.29,0,0,0,.38.788c.229.28.6.448.9.172a.867.867,0,0,0,.17-.821c-.011-.068-.022-.136-.033-.2a9.75,9.75,0,0,0,3.741-.38c.98-.358.7-1.826.723-2.678A82.492,82.492,0,0,0,216.549,180.223Zm-9.629,11.036c-.007-.006-.017,0-.024-.01q0-.227.009-.455a2.464,2.464,0,0,1,.1.559A.4.4,0,0,0,206.92,191.259Zm-.119,1.357-.012.025C206.783,192.633,206.79,192.624,206.8,192.616Zm2.453-21.686a7.881,7.881,0,0,1-1.318.269,10.119,10.119,0,0,1-1.3.064,4.935,4.935,0,0,1-.661-.044c.562-.3,1.133-.574,1.7-.812a.334.334,0,0,0,.426.081c.421.115.851.25,1.282.4C209.339,170.9,209.294,170.918,209.254,170.93Zm2.284,19.817q.031.227.062.455c-.007.006-.017.006-.023.012a.4.4,0,0,0-.065.1c0-.05-.015-.1-.015-.15A2.1,2.1,0,0,1,211.538,190.747Z" transform="translate(-160.233 -96.858)" fill="#472d24"/>
      <g id="Groupe_39588" data-name="Groupe 39588" transform="translate(21.405 48.817)">
        <g id="Groupe_39586" data-name="Groupe 39586">
          <path id="Tracé_34619" data-name="Tracé 34619" d="M172.2,175.959a.261.261,0,0,1-.443.178c-.978-.812-1.415-2.621-1.827-3.784-.517-1.44-.978-2.9-1.4-4.38a58.4,58.4,0,0,1-2.313-15.724,13.456,13.456,0,0,1,1.495-6.9,7.538,7.538,0,0,1,3.051-2.953c-.007.394-.019.763-.031,1.089a7.449,7.449,0,0,0-2.8,3.968,19.225,19.225,0,0,0-.351,7.191,70.542,70.542,0,0,0,.972,7.369c.437,2.405,1,4.786,1.673,7.13.326,1.157.7,2.294,1.07,3.433C171.636,173.6,172.313,174.864,172.2,175.959Z" transform="translate(-166.217 -142.395)" fill="#472d24"/>
        </g>
        <path id="Tracé_34620" data-name="Tracé 34620" d="M180.02,201.208a2.488,2.488,0,0,0-2.273-.467,4.274,4.274,0,0,0-1.332.664c-.255.181-.469.411-.719.6a3.29,3.29,0,0,1-.732.347,3.268,3.268,0,0,0-2.063,2.862c-.072.729-.148,1.708.5,2.213a2.362,2.362,0,0,0,1.859.3,7.435,7.435,0,0,0,4.066-2.305C180.275,204.375,181.345,202.4,180.02,201.208Z" transform="translate(-169.187 -168.458)" fill="#a0928d"/>
        <g id="Groupe_39587" data-name="Groupe 39587" transform="translate(5.454 35.118)">
          <path id="Tracé_34621" data-name="Tracé 34621" d="M176.133,208.409a1.786,1.786,0,0,0,.526.171,1.958,1.958,0,0,0,.634-.039,2.968,2.968,0,0,0,1.133-.531,4.566,4.566,0,0,0,1.482-1.984c.026-.064-.065-.1-.108-.063a19.733,19.733,0,0,1-1.594,1.551,3.388,3.388,0,0,1-.934.494,3.894,3.894,0,0,1-1.091.227c-.085,0-.138.133-.048.175Z" transform="translate(-176.086 -205.946)" fill="#472d24"/>
        </g>
        <path id="Tracé_34622" data-name="Tracé 34622" d="M177.757,202.592a3.914,3.914,0,0,0-.442-.983,1.935,1.935,0,0,0-1.645-.954,1.373,1.373,0,0,0-1.385,1.157,2.7,2.7,0,0,0,.17,1.285,5.345,5.345,0,0,0,.283.686,1.312,1.312,0,0,0,.531.614,1.108,1.108,0,0,0,.916-.075c.287-.1.568-.235.859-.335a1.3,1.3,0,0,0,.7-.468A1.066,1.066,0,0,0,177.757,202.592Z" transform="translate(-169.817 -168.461)" fill="#472d24"/>
      </g>
      <path id="Tracé_34623" data-name="Tracé 34623" d="M184.553,236.773a33.884,33.884,0,0,0,10.355,4.409c5.434,1.128,10.775,1.691,10.775,1.691a13.169,13.169,0,0,1,2.759,5.793c.936,3.893.769,4.674.769,4.674s-4.519,2.566-15.423,3.411c-11.256.873-16.617-.805-20.615-1.933S176.351,234.619,184.553,236.773Z" transform="translate(-147.414 -135.728)" fill="#fff"/>
      <g id="Groupe_39589" data-name="Groupe 39589" transform="translate(20.419 73.855)">
        <path id="Tracé_34624" data-name="Tracé 34624" d="M164.434,187.89c.444,6.917,2.6,14.042,6.938,19.527,4.445,5.613,11.041,9.259,17.8,11.322a60.592,60.592,0,0,0,6.523,1.578,34.232,34.232,0,0,0,6.584.885.174.174,0,0,0,.046-.34c-1.821-.484-3.773-.611-5.629-.957-1.873-.349-3.735-.761-5.573-1.261a44.8,44.8,0,0,1-10.145-4.016,30.105,30.105,0,0,1-13.529-15.272,44.846,44.846,0,0,1-2.638-11.466c-.027-.239-.4-.25-.382,0Z" transform="translate(-164.433 -187.706)" fill="#bbb1ae"/>
      </g>
      <g id="Groupe_39590" data-name="Groupe 39590" transform="translate(8.581 104.174)">
        <path id="Tracé_34625" data-name="Tracé 34625" d="M143.018,242.651a32.144,32.144,0,0,0,17.891,15.091c7.375,2.426,15.464,2.649,23.111,1.628a51.564,51.564,0,0,0,12.428-3.174c.3-.122.17-.616-.136-.494a54.906,54.906,0,0,1-22.271,3.527c-7.655-.277-15.6-1.922-21.825-6.622-3.661-2.765-6.407-6.35-9.106-10.012a.054.054,0,0,0-.093.055Z" transform="translate(-143.01 -242.572)" fill="#bbb1ae"/>
      </g>
      <g id="Groupe_39591" data-name="Groupe 39591" transform="translate(52.911 69.575)">
        <path id="Tracé_34626" data-name="Tracé 34626" d="M223.251,180.205c2.145,4.33,4.391,8.642,5.489,13.383a26.044,26.044,0,0,1,.627,7.341c-.14,2.57-.509,5.12-.668,7.689-.09,1.464-.14,2.932-.169,4.4a36.965,36.965,0,0,0,.007,4.556.213.213,0,0,0,.426,0c.153-1.3.072-2.641.1-3.948.025-1.366.065-2.733.137-4.1.141-2.675.517-5.325.7-7.995a30.411,30.411,0,0,0-2.747-13.972c-1.086-2.565-2.313-5.057-3.615-7.519-.1-.186-.372-.022-.28.164Z" transform="translate(-223.233 -179.96)" fill="#bbb1ae"/>
      </g>
      <g id="Groupe_39592" data-name="Groupe 39592" transform="translate(91.424 25.714)">
        <path id="Tracé_34627" data-name="Tracé 34627" d="M293.342,101.481a3.48,3.48,0,0,1,2.061.535,5.013,5.013,0,0,1,.835.624c.155.135.3.293.458.419a4.083,4.083,0,0,0,.443.339.259.259,0,0,0,.385-.221,1.884,1.884,0,0,0-.525-1.3,3.318,3.318,0,0,0-1.065-.828,4.393,4.393,0,0,0-2.7-.4c-.469.078-.361.86.113.832Z" transform="translate(-292.927 -100.588)" fill="#472d24"/>
      </g>
      <g id="Groupe_39593" data-name="Groupe 39593" transform="translate(79.15 24.807)">
        <path id="Tracé_34628" data-name="Tracé 34628" d="M273.709,99.009a2.8,2.8,0,0,0-2.03.338,2.189,2.189,0,0,0-.768.779,1.514,1.514,0,0,0-.136.293.688.688,0,0,0-.023.191c0,.1.024-.087,0,.018a1.164,1.164,0,0,0,0,.545.263.263,0,0,0,.436.115c.045-.046.095-.088.14-.133a1.322,1.322,0,0,0,.092-.114c.017-.023.014-.019-.008.009l.033-.039c.022-.023.013-.019-.026.011l.026-.017a.89.89,0,0,0,.152-.11c.046-.045.087-.1.133-.141.1-.1.2-.193.3-.282l.069-.057c.053-.044-.1.067-.012.011.06-.04.117-.084.176-.126a2.5,2.5,0,0,1,.34-.2l.1-.045c.089-.041-.075.027-.012,0s.123-.046.187-.065.138-.038.207-.052l.087-.015c.062-.012-.1.008-.008,0a2.584,2.584,0,0,1,.429,0,.468.468,0,0,0,.124-.918Z" transform="translate(-270.714 -98.946)" fill="#472d24"/>
      </g>
      <g id="Groupe_39594" data-name="Groupe 39594" transform="translate(83.377 40.104)">
        <path id="Tracé_34629" data-name="Tracé 34629" d="M278.543,128.745a10.5,10.5,0,0,0,2.864.856,10.334,10.334,0,0,0,2.924-.091,8.42,8.42,0,0,0,2.433-.833,3.354,3.354,0,0,0,1.787-1.741.243.243,0,0,0-.3-.3,11.653,11.653,0,0,0-1.963,1.073,8.32,8.32,0,0,1-2.241.78,9.7,9.7,0,0,1-2.644.121,16.132,16.132,0,0,1-2.725-.37.261.261,0,0,0-.139.5Z" transform="translate(-278.365 -126.629)" fill="#472d24"/>
      </g>
      <g id="Groupe_39595" data-name="Groupe 39595" transform="translate(78.764 28.537)">
        <path id="Tracé_34630" data-name="Tracé 34630" d="M270.659,109.4a7.933,7.933,0,0,1,.337-1.082,4.5,4.5,0,0,1,.517-1.014,1.423,1.423,0,0,1,1.489-.656,1.911,1.911,0,0,1,.99,1.188,5.4,5.4,0,0,1,.257,1.019c.029.181.043.364.065.547a1.05,1.05,0,0,0,.1.4c.006.01.25.3.159.17a.3.3,0,0,0,.508,0,1.848,1.848,0,0,0,.154-.225.905.905,0,0,0,.052-.305,3.463,3.463,0,0,0-.086-.677,6.656,6.656,0,0,0-.233-.971,3.538,3.538,0,0,0-.954-1.563,2.156,2.156,0,0,0-1.789-.5,2.474,2.474,0,0,0-1.637,1.157,4.953,4.953,0,0,0-.573,2.428c-.025.37.549.438.64.087Z" transform="translate(-270.018 -105.697)" fill="#472d24"/>
      </g>
      <g id="Groupe_39596" data-name="Groupe 39596" transform="translate(89.498 29.64)">
        <path id="Tracé_34631" data-name="Tracé 34631" d="M290.083,111.384a6.417,6.417,0,0,1,.39-1.136,3.875,3.875,0,0,1,.553-.921,1.907,1.907,0,0,1,1.837-.681,2.1,2.1,0,0,1,1.231,1.18,4.082,4.082,0,0,1,.3.923c.051.233.077.467.115.7a.991.991,0,0,0,.086.311.845.845,0,0,0,.114.167c.1.072.118.089.06.048a.3.3,0,0,0,.521,0,1.036,1.036,0,0,0,.191-.555,3.836,3.836,0,0,0-.116-.729,5.878,5.878,0,0,0-.306-1,3.551,3.551,0,0,0-1.123-1.507,2.759,2.759,0,0,0-3.792.655,4.626,4.626,0,0,0-.7,2.456c-.035.373.545.433.64.087Z" transform="translate(-289.441 -107.693)" fill="#472d24"/>
      </g>
    </g>
  </g>
</svg>
