<svg xmlns="http://www.w3.org/2000/svg" xmlns:xlink="http://www.w3.org/1999/xlink" width="154.393" height="153.047" viewBox="0 0 154.393 153.047">
  <defs>
    <clipPath id="clip-path">
      <path id="Tracé_34511" data-name="Tracé 34511" d="M194.362,133.8c26.069-.095,41.093,24.971,30.121,64.347s-31.424,54.648-69.81,61.479c-12.206,2.172-61.608-8.389-74.208-41.169-14.239-37.047-5.174-72.2,19.972-73.264,0,0,5.317-22.879,42.6-27.368C178.459,113.562,194.362,133.8,194.362,133.8Z" transform="translate(-73.717 -117.236)" fill="none"/>
    </clipPath>
  </defs>
  <g id="Groupe_39543" data-name="Groupe 39543" transform="translate(0 0)">
    <g id="Groupe_39463" data-name="Groupe 39463" transform="translate(0 16.564)">
      <path id="Tracé_34349" data-name="Tracé 34349" d="M154.672,282.49c-12.206,2.172-61.608-8.389-74.208-41.169-14.239-37.047-5.174-72.2,19.972-73.264s50.316,8.955,50.316,8.955,21.249-20.267,43.61-20.348c26.069-.095,41.093,24.971,30.121,64.347S193.058,275.659,154.672,282.49Z" transform="translate(-73.717 -156.663)" fill="#fff4e6"/>
      <path id="Tracé_34350" data-name="Tracé 34350" d="M166.214,302.063c-10.835,1.928-54.691-7.448-65.875-36.547-12.641-32.888-4.593-64.1,17.729-65.038s44.666,7.949,44.666,7.949,18.863-17.992,38.713-18.064c23.142-.084,36.479,22.168,26.739,57.123S200.29,296,166.214,302.063Z" transform="translate(-85.681 -176.205)" fill="#fff3dc" opacity="0.7" style="mix-blend-mode: multiply;isolation: isolate"/>
      <path id="Tracé_34351" data-name="Tracé 34351" d="M178.624,323.109c-9.362,1.666-47.253-6.435-56.916-31.577-10.921-28.415-3.968-55.379,15.318-56.192s38.592,6.868,38.592,6.868,16.3-15.545,33.448-15.607c19.995-.073,31.518,19.153,23.1,49.354S208.066,317.869,178.624,323.109Z" transform="translate(-98.545 -197.219)" fill="#fff3dc" opacity="0.7" style="mix-blend-mode: multiply;isolation: isolate"/>
    </g>
    <g id="Groupe_39535" data-name="Groupe 39535" transform="translate(0 0)">
      <g id="Groupe_39522" data-name="Groupe 39522">
        <g id="Groupe_39521" data-name="Groupe 39521" clip-path="url(#clip-path)">
          <g id="Groupe_39482" data-name="Groupe 39482" transform="translate(18.885 1.9)">
            <g id="Groupe_39465" data-name="Groupe 39465" transform="translate(10.845)">
              <path id="Tracé_34352" data-name="Tracé 34352" d="M182.718,126.2s-8.333-4.893-17.872,3.558-11.763,28.308-7.908,38.989.593,20.912-9.489,31.884,6.072,28.32,40.622,25.206,45.522-10.23,41.371-25.354-16.9-22.7-13.937-31.735,5.155-29.707-7.949-41.465S182.718,126.2,182.718,126.2Z" transform="translate(-144.485 -121.757)" fill="#5b2526"/>
              <g id="Groupe_39464" data-name="Groupe 39464" transform="translate(7.083 6.466)" opacity="0.5" style="mix-blend-mode: multiply;isolation: isolate">
                <path id="Tracé_34353" data-name="Tracé 34353" d="M173.37,244.731c-.638-3.293-1.279-6.65-3-9.572-.075-.127-.252-.005-.19.121a36.08,36.08,0,0,1,2.478,8.66,21.215,21.215,0,0,1-.221,10.806c-1.738,5.739-5.575,12.127-11.073,14.842a.033.033,0,0,0,.029.06c5.85-2.53,9.749-8.845,11.544-14.77A20.785,20.785,0,0,0,173.37,244.731Z" transform="translate(-161.344 -193.951)" fill="#5b2526"/>
                <path id="Tracé_34354" data-name="Tracé 34354" d="M199.85,256.188c-.085-.214-.45-.1-.389.123,1.168,4.272,2.424,8.515,2.325,13-.083,3.8-1.149,8.7-4.068,11.411a.027.027,0,0,0,.035.04c2.783-2.38,4.033-6.657,4.422-10.185A31.154,31.154,0,0,0,199.85,256.188Z" transform="translate(-182.432 -206.111)" fill="#5b2526"/>
                <path id="Tracé_34355" data-name="Tracé 34355" d="M312.229,268.054c-1.31-2.326-3.028-4.381-4.372-6.684a38.76,38.76,0,0,1-3.652-8.452c-1.792-6.035-1.133-12.079.562-18.04.039-.137-.181-.211-.237-.08a27.433,27.433,0,0,0-.907,17.862,36.126,36.126,0,0,0,3.5,8.193c1.483,2.559,3.489,4.728,5.061,7.223C312.2,268.105,312.246,268.085,312.229,268.054Z" transform="translate(-243.227 -193.734)" fill="#5b2526"/>
                <path id="Tracé_34356" data-name="Tracé 34356" d="M292.857,259.91a23.374,23.374,0,0,1,.791-8.176,18.137,18.137,0,0,0,1.05-5.583c-.005-.131-.224-.156-.236-.019-.23,2.58-1.235,4.951-1.719,7.477a23.553,23.553,0,0,0-.33,5.99c.335,5.023,2.584,8.953,4.965,13.255.012.022.047.007.036-.016C295.394,268.585,293.238,264.715,292.857,259.91Z" transform="translate(-237.314 -200.293)" fill="#5b2526"/>
                <path id="Tracé_34357" data-name="Tracé 34357" d="M279.763,283.24c-3.171-5.073-4.031-13.065-2.236-18.75.069-.218-.258-.351-.333-.131-1.937,5.679-.958,14.01,2.514,18.917C279.729,283.306,279.782,283.271,279.763,283.24Z" transform="translate(-227.954 -210.85)" fill="#5b2526"/>
                <path id="Tracé_34358" data-name="Tracé 34358" d="M193.543,137.156a19.415,19.415,0,0,0-12.516,10.45c-2.755,5.62-4.345,13.595-2.462,19.7.012.04.076.029.065-.012-1.507-5.591-.133-12.751,2.063-18a19.642,19.642,0,0,1,12.91-11.752C193.837,137.469,193.783,137.091,193.543,137.156Z" transform="translate(-170.855 -137.148)" fill="#5b2526"/>
              </g>
            </g>
            <path id="Tracé_34359" data-name="Tracé 34359" d="M210.8,273.063c-3.361-2.471-23.4-9.344-24.385-10.827s-.425-8.448-.425-8.448H170.08s1.68,8.5,0,9.984-19.176,7.512-22.339,9.983-16.705,25.008-19.374,37.561c-1.159,5.453,3.745,12.789,11.929,19.6,14.712,10.311,30.939,16.406,40.254,18.345.761.116,1.522.219,2.281.306a33.831,33.831,0,0,0,4.6.208,105.815,105.815,0,0,0,21.972-8.24c11.98-9.147,19.073-23.22,19.691-27.849C230.08,306.275,214.165,275.534,210.8,273.063Z" transform="translate(-124.195 -198.319)" fill="#ffaf8e"/>
            <path id="Tracé_34360" data-name="Tracé 34360" d="M205.279,290.745c-1.854-1.363-8.783-4.066-14.79-6.465-2.307,2.586-6.74,5.928-14.37,6.168a37.894,37.894,0,0,1-20.063-5.223c-5.543,2.224-12.033,4.8-13.841,6.211-3.163,2.471-21.973,20.456-23.436,34.052-1.207,11.2,7.807,16.3,15.991,23.112,14.712,10.311,30.939,16.406,40.254,18.345.761.116,1.522.219,2.281.306a33.807,33.807,0,0,0,4.6.208,105.814,105.814,0,0,0,21.972-8.24c11.98-9.147,22.5-16.08,21.908-26.08C224.9,318.36,208.64,293.216,205.279,290.745Z" transform="translate(-118.67 -216.001)" fill="#5a3082"/>
            <path id="Tracé_34361" data-name="Tracé 34361" d="M200.154,288.487s21.455,17.389,41.209-.768" transform="translate(-165.921 -217.995)" fill="none" stroke="#fff" stroke-miterlimit="10" stroke-width="1.01" opacity="0.3" style="mix-blend-mode: overlay;isolation: isolate"/>
            <g id="Groupe_39466" data-name="Groupe 39466" transform="translate(38.055 79.295)" opacity="0.4" style="mix-blend-mode: overlay;isolation: isolate">
              <path id="Tracé_34362" data-name="Tracé 34362" d="M241.54,383.644a2.093,2.093,0,0,1-.992-1.6c-.086-1.1,1.1-1.186,1.618-.518a2.048,2.048,0,0,1,.28,1.6,1.917,1.917,0,0,1,1.424-1.424c1.273-.388,1.618,1.446,0,2.158a1.962,1.962,0,0,1,1.7.863c.539.928-1.057,1.812-2.093.367,0,0,.062,1.937-1.316,1.834-1.446-.108-.431-2.114-.431-2.114s-1.187,1.273-1.92.3C239.138,384.215,240.267,383.342,241.54,383.644Z" transform="translate(-226.857 -351.444)" fill="#fff"/>
              <path id="Tracé_34363" data-name="Tracé 34363" d="M211.521,312.69a2.094,2.094,0,0,1,.434-1.829c.72-.836,1.617-.055,1.507.784a2.048,2.048,0,0,1-.936,1.324,1.916,1.916,0,0,1,2.014.008c1.172.63.114,2.167-1.531,1.52a1.962,1.962,0,0,1,.588,1.818c-.279,1.036-2.031.526-1.735-1.227,0,0-1.331,1.408-2.229.358-.942-1.1,1.2-1.8,1.2-1.8s-1.74.055-1.567-1.15C209.423,311.388,210.838,311.574,211.521,312.69Z" transform="translate(-209.251 -310.503)" fill="#fff"/>
              <path id="Tracé_34364" data-name="Tracé 34364" d="M251.646,452.386a2.094,2.094,0,0,1,.434-1.829c.72-.836,1.617-.055,1.508.784a2.048,2.048,0,0,1-.936,1.324,1.916,1.916,0,0,1,2.014.008c1.173.63.114,2.167-1.531,1.52a1.962,1.962,0,0,1,.588,1.818c-.279,1.036-2.031.526-1.735-1.227,0,0-1.331,1.408-2.229.357-.941-1.1,1.2-1.8,1.2-1.8s-1.739.055-1.567-1.15C249.548,451.083,250.964,451.269,251.646,452.386Z" transform="translate(-232.52 -391.51)" fill="#fff"/>
              <path id="Tracé_34365" data-name="Tracé 34365" d="M263.391,343.319a2.094,2.094,0,0,1,1.86-.274c1.044.359.65,1.482-.17,1.691a2.049,2.049,0,0,1-1.576-.379,1.916,1.916,0,0,1,.739,1.873c-.151,1.323-1.97.908-1.979-.86a1.962,1.962,0,0,1-1.471,1.22c-1.065.125-1.241-1.692.5-2.066,0,0-1.8-.715-1.158-1.938.675-1.283,2.111.447,2.111.447s-.694-1.6.488-1.882C263.824,340.887,264.176,342.271,263.391,343.319Z" transform="translate(-238.673 -328.256)" fill="#fff"/>
              <path id="Tracé_34366" data-name="Tracé 34366" d="M259.667,425.06a2.094,2.094,0,0,1,1.86-.274c1.044.359.65,1.482-.17,1.691a2.048,2.048,0,0,1-1.576-.379,1.917,1.917,0,0,1,.739,1.873c-.151,1.323-1.971.908-1.979-.86a1.962,1.962,0,0,1-1.471,1.22c-1.066.125-1.241-1.692.5-2.066,0,0-1.8-.715-1.158-1.938.675-1.283,2.112.447,2.112.447s-.695-1.6.488-1.881C260.1,422.629,260.451,424.013,259.667,425.06Z" transform="translate(-236.513 -375.657)" fill="#fff"/>
              <path id="Tracé_34367" data-name="Tracé 34367" d="M217.11,415.607a2.094,2.094,0,0,1,1.86-.274c1.044.359.65,1.482-.17,1.691a2.049,2.049,0,0,1-1.576-.379,1.916,1.916,0,0,1,.739,1.873c-.151,1.323-1.971.908-1.979-.86a1.961,1.961,0,0,1-1.47,1.22c-1.066.125-1.241-1.692.5-2.066,0,0-1.8-.715-1.158-1.938.675-1.283,2.111.447,2.111.447s-.695-1.6.488-1.881C217.542,413.175,217.894,414.559,217.11,415.607Z" transform="translate(-211.835 -370.175)" fill="#fff"/>
              <path id="Tracé_34368" data-name="Tracé 34368" d="M291.928,378.483a2.094,2.094,0,0,1,1.86-.274c1.044.359.65,1.482-.17,1.691a2.048,2.048,0,0,1-1.576-.379,1.916,1.916,0,0,1,.739,1.873c-.151,1.322-1.97.908-1.979-.86a1.963,1.963,0,0,1-1.471,1.22c-1.066.125-1.241-1.692.5-2.066,0,0-1.8-.715-1.157-1.938.675-1.283,2.111.447,2.111.447s-.695-1.6.488-1.881C292.361,376.052,292.712,377.436,291.928,378.483Z" transform="translate(-255.22 -348.648)" fill="#fff"/>
            </g>
            <g id="Groupe_39467" data-name="Groupe 39467" transform="translate(30.381 74.609)" opacity="0.2" style="mix-blend-mode: multiply;isolation: isolate">
              <path id="Tracé_34369" data-name="Tracé 34369" d="M231.676,327.432s-1.878,3.657,1.68,4.646C233.356,332.078,235.036,328.816,231.676,327.432Z" transform="translate(-214.294 -315.633)" fill="#5a3082"/>
              <path id="Tracé_34370" data-name="Tracé 34370" d="M190.985,299.582s.873,3.855,5.124,1.977A4.242,4.242,0,0,0,190.985,299.582Z" transform="translate(-190.985 -299.348)" fill="#5a3082"/>
              <path id="Tracé_34371" data-name="Tracé 34371" d="M266.653,320.443a3.682,3.682,0,0,1,4.25-2.866S271.1,320.641,266.653,320.443Z" transform="translate(-234.864 -309.89)" fill="#5a3082"/>
              <path id="Tracé_34372" data-name="Tracé 34372" d="M239.762,359.339a3.682,3.682,0,0,1,4.25-2.866S244.21,359.537,239.762,359.339Z" transform="translate(-219.27 -332.445)" fill="#5a3082"/>
              <path id="Tracé_34373" data-name="Tracé 34373" d="M260.975,442.648a3.682,3.682,0,0,1,4.25-2.867S265.423,442.846,260.975,442.648Z" transform="translate(-231.571 -380.754)" fill="#5a3082"/>
              <path id="Tracé_34374" data-name="Tracé 34374" d="M213.539,359.906s3.64-.174,3.982,4.015C217.521,363.921,213.465,364.749,213.539,359.906Z" transform="translate(-204.063 -334.464)" fill="#5a3082"/>
              <path id="Tracé_34375" data-name="Tracé 34375" d="M260.975,378.7s3.527-1.186,4.511,3.164A3.505,3.505,0,0,1,260.975,378.7Z" transform="translate(-231.571 -345.275)" fill="#5a3082"/>
              <path id="Tracé_34376" data-name="Tracé 34376" d="M231.18,422.553s3.527-1.186,4.511,3.163A3.505,3.505,0,0,1,231.18,422.553Z" transform="translate(-214.293 -370.707)" fill="#5a3082"/>
              <path id="Tracé_34377" data-name="Tracé 34377" d="M289.537,362.09s.3-3.163,4.547-1.878C294.083,360.212,293.1,363.968,289.537,362.09Z" transform="translate(-248.134 -334.464)" fill="#5a3082"/>
              <path id="Tracé_34378" data-name="Tracé 34378" d="M213.538,397.438s1.876-2.867,4.941,0A3.02,3.02,0,0,1,213.538,397.438Z" transform="translate(-204.063 -355.49)" fill="#5a3082"/>
              <path id="Tracé_34379" data-name="Tracé 34379" d="M249.882,414.931s.061-3.973,3.816-3.973C253.7,410.957,254.963,414.357,249.882,414.931Z" transform="translate(-225.138 -364.068)" fill="#5a3082"/>
            </g>
            <g id="Groupe_39468" data-name="Groupe 39468" transform="translate(39.737 79.545)" opacity="0.2" style="mix-blend-mode: overlay;isolation: isolate">
              <path id="Tracé_34380" data-name="Tracé 34380" d="M229.966,313.813a.715.715,0,0,0-.774-.6.7.7,0,0,0-.6.774.714.714,0,0,0,.774.6A.694.694,0,0,0,229.966,313.813Z" transform="translate(-222.144 -312.324)" fill="#fff"/>
              <path id="Tracé_34381" data-name="Tracé 34381" d="M247.434,322.434a.822.822,0,0,0-.784.846.832.832,0,0,0,.846.783.822.822,0,0,0,.784-.846A.832.832,0,0,0,247.434,322.434Z" transform="translate(-232.62 -317.672)" fill="#fff"/>
              <path id="Tracé_34382" data-name="Tracé 34382" d="M273.755,311.1a.736.736,0,1,0,.675.792A.751.751,0,0,0,273.755,311.1Z" transform="translate(-247.879 -311.098)" fill="#fff"/>
              <path id="Tracé_34383" data-name="Tracé 34383" d="M248.38,339.571a.553.553,0,0,0-.59.478.541.541,0,0,0,.478.591.553.553,0,0,0,.59-.478A.541.541,0,0,0,248.38,339.571Z" transform="translate(-233.28 -327.609)" fill="#fff"/>
              <path id="Tracé_34384" data-name="Tracé 34384" d="M226.1,342.214a.61.61,0,1,0,.612.608A.62.62,0,0,0,226.1,342.214Z" transform="translate(-220.354 -329.142)" fill="#fff"/>
              <path id="Tracé_34385" data-name="Tracé 34385" d="M277.015,358.258l-.044.01a.713.713,0,0,0,.026,1.41l.07.013a.723.723,0,1,0-.052-1.433Z" transform="translate(-249.857 -338.436)" fill="#fff"/>
              <path id="Tracé_34386" data-name="Tracé 34386" d="M255.047,367.3a.568.568,0,0,0-.6.507.558.558,0,0,0,.507.6.568.568,0,0,0,.6-.507A.558.558,0,0,0,255.047,367.3Z" transform="translate(-237.143 -343.687)" fill="#fff"/>
              <path id="Tracé_34387" data-name="Tracé 34387" d="M235,379.312c-.827,0-.76,1.284.067,1.284S235.825,379.312,235,379.312Z" transform="translate(-225.523 -350.654)" fill="#fff"/>
              <path id="Tracé_34388" data-name="Tracé 34388" d="M238.228,397.447a.736.736,0,1,0,.675.792A.751.751,0,0,0,238.228,397.447Z" transform="translate(-227.277 -361.17)" fill="#fff"/>
              <path id="Tracé_34389" data-name="Tracé 34389" d="M214.473,404.124a.624.624,0,0,0-.6-.608.618.618,0,0,0-.608.6l-.005.054a.61.61,0,0,0,1.22,0Z" transform="translate(-213.256 -364.69)" fill="#fff"/>
              <path id="Tracé_34390" data-name="Tracé 34390" d="M245.275,442.44l-.026-.008a.783.783,0,0,0-.928.442.8.8,0,0,0,.308.98l.036.028a.788.788,0,1,0,.609-1.441Z" transform="translate(-231.232 -387.239)" fill="#fff"/>
              <path id="Tracé_34391" data-name="Tracé 34391" d="M270.211,450.428a.7.7,0,0,0-.741-.6.679.679,0,0,0-.6.741.7.7,0,0,0,.741.6A.679.679,0,0,0,270.211,450.428Z" transform="translate(-245.5 -391.542)" fill="#fff"/>
              <path id="Tracé_34392" data-name="Tracé 34392" d="M268.418,474.65c-.6,0-.553.93.046.93S269.018,474.65,268.418,474.65Z" transform="translate(-244.996 -405.939)" fill="#fff"/>
              <path id="Tracé_34393" data-name="Tracé 34393" d="M277.969,412.517a.711.711,0,0,0-.768-.6.691.691,0,0,0-.6.768.71.71,0,0,0,.767.6A.691.691,0,0,0,277.969,412.517Z" transform="translate(-249.985 -369.56)" fill="#fff"/>
              <path id="Tracé_34394" data-name="Tracé 34394" d="M259.4,396.942c-.96,0-1.056,1.5-.09,1.5S260.369,396.942,259.4,396.942Z" transform="translate(-239.57 -360.877)" fill="#fff"/>
              <path id="Tracé_34395" data-name="Tracé 34395" d="M279.559,385.853a1.04,1.04,0,0,0-.665.08.632.632,0,0,0,0,1.07c-.087-.04-.063-.018.086.074a.888.888,0,0,0,.679.053A.668.668,0,0,0,279.559,385.853Z" transform="translate(-251.147 -354.436)" fill="#fff"/>
              <path id="Tracé_34396" data-name="Tracé 34396" d="M249.131,426.674a1.04,1.04,0,0,0-.666.08.631.631,0,0,0,0,1.07c-.088-.04-.064-.018.086.074a.888.888,0,0,0,.679.053A.668.668,0,0,0,249.131,426.674Z" transform="translate(-233.502 -378.108)" fill="#fff"/>
              <path id="Tracé_34397" data-name="Tracé 34397" d="M304.657,362.8a.643.643,0,1,0,.675.609A.65.65,0,0,0,304.657,362.8Z" transform="translate(-265.904 -341.078)" fill="#fff"/>
            </g>
            <path id="Tracé_34398" data-name="Tracé 34398" d="M243.8,253.788H227.889s.4,2.02.613,4.262c.031.32,4.412,3.353,7.769,3.45,2.7.078,7.379-2.877,7.375-3.173C243.617,256.088,243.8,253.788,243.8,253.788Z" transform="translate(-182.004 -198.319)" fill="#ffaf8e" opacity="0.4" style="mix-blend-mode: multiply;isolation: isolate"/>
            <g id="Groupe_39481" data-name="Groupe 39481" transform="translate(28.035 3.227)">
              <g id="Groupe_39474" data-name="Groupe 39474" transform="translate(5.969 6.33)">
                <g id="Groupe_39469" data-name="Groupe 39469">
                  <path id="Tracé_34399" data-name="Tracé 34399" d="M219.537,195.609c-8.842-.09-18.777-8.662-19.785-24.519-1.072-16.867,3.722-26.313,18.508-26.577s22.449,7.1,21.142,26.98C238.12,190.991,226.168,195.676,219.537,195.609Z" transform="translate(-199.608 -144.506)" fill="#ffaf8e"/>
                  <path id="Tracé_34400" data-name="Tracé 34400" d="M242.771,169.272a32.348,32.348,0,0,0-2.717-13.4,17.341,17.341,0,0,0-11.164-8.232c-15.045-3.67-25.986,6.084-23.251,21.51,0,0,4.576-1.955,5.112-6.022s2.091-7.474,3.8-8.12c0,0,2.43,13.928,15.431,9.614C229.985,164.625,235.454,172.069,242.771,169.272Z" transform="translate(-202.861 -145.876)" fill="#ffaf8e" opacity="0.3" style="mix-blend-mode: multiply;isolation: isolate"/>
                  <path id="Tracé_34401" data-name="Tracé 34401" d="M243.56,256.339a17.809,17.809,0,0,1-11.134,4.032,17,17,0,0,1-10.591-4.183" transform="translate(-212.498 -209.268)" fill="none" stroke="#9e4733" stroke-linecap="round" stroke-linejoin="round" stroke-width="1.01"/>
                </g>
                <g id="Groupe_39473" data-name="Groupe 39473" transform="translate(5.234 18.589)">
                  <path id="Tracé_34402" data-name="Tracé 34402" d="M221.74,200.813s-1.217,3.219-4.119,2.917-2.916-4.329-2.916-4.329l-1.558-.219" transform="translate(-212.693 -194.801)" fill="none" stroke="#9e4733" stroke-linecap="round" stroke-linejoin="round" stroke-width="2.02"/>
                  <path id="Tracé_34403" data-name="Tracé 34403" d="M213.2,191.124a14.073,14.073,0,0,1,6.246-.421c3.007.622,3.487.971,3.552-.142S217.921,186.842,213.2,191.124Z" transform="translate(-212.722 -188.753)" fill="#5b2526"/>
                  <path id="Tracé_34404" data-name="Tracé 34404" d="M261.007,201.333s1.151,3.243,4.059,3,3-4.269,3-4.269l1.562-.188" transform="translate(-240.446 -195.204)" fill="none" stroke="#9e4733" stroke-linecap="round" stroke-linejoin="round" stroke-width="2.02"/>
                  <path id="Tracé_34405" data-name="Tracé 34405" d="M268.077,191.658a14.072,14.072,0,0,0-6.236-.548c-3.019.561-3.506.9-3.549-.214S263.44,187.281,268.077,191.658Z" transform="translate(-238.872 -188.995)" fill="#5b2526"/>
                  <path id="Tracé_34406" data-name="Tracé 34406" d="M243.305,206.918s.494,3.595-1.235,3.8-1.878,1.48-.613,2.266,3.812.447,4.239-1.365" transform="translate(-228.626 -199.287)" fill="none" stroke="#9e4733" stroke-linecap="round" stroke-linejoin="round" stroke-width="1.01"/>
                  <g id="Groupe_39471" data-name="Groupe 39471" transform="translate(8.906 18.619)">
                    <path id="Tracé_34407" data-name="Tracé 34407" d="M241.978,234.346s-1.243-1.877-2.66-1.076a3.181,3.181,0,0,0-1.644,1.834s1.294,3.441,4.388,3.333c3.756-.131,4.081-3.109,4.081-3.109s-.787-2.2-2.22-2.218A2.784,2.784,0,0,0,241.978,234.346Z" transform="translate(-235.821 -233.071)" fill="#ffaf8e" opacity="0.6" style="mix-blend-mode: multiply;isolation: isolate"/>
                    <g id="Groupe_39470" data-name="Groupe 39470" transform="translate(0 1.207)">
                      <path id="Tracé_34408" data-name="Tracé 34408" d="M233.265,235.945s6.272,3.7,12.313.125" transform="translate(-233.265 -235.945)" fill="none" stroke="#9e4733" stroke-linecap="round" stroke-linejoin="round" stroke-width="1.01"/>
                    </g>
                  </g>
                  <g id="Groupe_39472" data-name="Groupe 39472" transform="translate(0 10.42)" opacity="0.3" style="mix-blend-mode: multiply;isolation: isolate">
                    <path id="Tracé_34409" data-name="Tracé 34409" d="M219.234,217.179c-.382.99-2.28,1.18-4.241.424s-3.24-2.171-2.859-3.161,2.28-1.179,4.241-.423S219.615,216.189,219.234,217.179Z" transform="translate(-212.067 -213.556)" fill="#ffaf8e"/>
                    <path id="Tracé_34410" data-name="Tracé 34410" d="M264.578,217.685c.361,1,2.256,1.225,4.231.51s3.284-2.1,2.923-3.1-2.256-1.225-4.231-.51S264.217,216.688,264.578,217.685Z" transform="translate(-242.482 -213.91)" fill="#ffaf8e"/>
                  </g>
                </g>
              </g>
              <g id="Groupe_39476" data-name="Groupe 39476" transform="translate(3.172)">
                <path id="Tracé_34411" data-name="Tracé 34411" d="M200.808,159.914c1.175-3.2,1.087-12.554,7.216-13.246,0,0,2.866,11.367,12.554,9.885,0,0-2.669-3.36-2.274-9.885,0,0,6.539,16.137,17.355,15.383h2.3a34.485,34.485,0,0,0-3.658-17.558c-4.526-8.5-22.517-13.245-33.389-6.129s-7.444,23.229-7.444,23.229S199.029,164.757,200.808,159.914Z" transform="translate(-192.951 -132.606)" fill="#5b2526"/>
                <path id="Tracé_34412" data-name="Tracé 34412" d="M228.655,169.173a9.785,9.785,0,0,1-2.94-4.989c-.489-2.422.336-4.008,1.009-6.219.039-.13-.147-.177-.21-.076a11.7,11.7,0,0,0-.689,1.265c-2.557,1.635-2.652,7.526-.941,9.557.025.03.068,0,.055-.036a9.63,9.63,0,0,1,.461-8.43,7.651,7.651,0,0,0-.079,4.374c.46,1.746,1.57,3.844,3.267,4.635C228.637,169.277,228.7,169.218,228.655,169.173Z" transform="translate(-210.799 -145.904)" fill="#5b2526"/>
                <g id="Groupe_39475" data-name="Groupe 39475" transform="translate(1.743)" opacity="0.5" style="mix-blend-mode: multiply;isolation: isolate">
                  <path id="Tracé_34413" data-name="Tracé 34413" d="M207.454,147c-2.767,1.646-5.3,3.341-6.692,6.364a8.766,8.766,0,0,0-.844,4.293c.115,2.419.294,5.688-2.792,6.2-.036.006-.035.067,0,.066,2.444-.083,3.332-2.332,3.361-4.533.035-2.657-.132-4.693,1.385-7.092,1.425-2.254,3.674-3.457,5.768-4.982C207.809,147.2,207.635,146.9,207.454,147Z" transform="translate(-197.1 -139.61)" fill="#5b2526"/>
                  <path id="Tracé_34414" data-name="Tracé 34414" d="M241.277,154.828a14.7,14.7,0,0,1-5.682-8.222,22.8,22.8,0,0,1-.61-10.748.14.14,0,0,0-.263-.083c-.9,1.957-.7,3.992-.431,6.072a29.877,29.877,0,0,0,1.23,6.174,13.1,13.1,0,0,0,5.693,6.908A.06.06,0,0,0,241.277,154.828Z" transform="translate(-218.534 -133.068)" fill="#5b2526"/>
                  <path id="Tracé_34415" data-name="Tracé 34415" d="M269.918,155.186c-2.939.761-6.318-.993-8.772-2.472a22.964,22.964,0,0,1-7.158-6.552,38.976,38.976,0,0,1-3.78-7.145,19.953,19.953,0,0,1-1.423-4.383c-.22-1.329-.132-2.648-.433-3.966a.1.1,0,0,0-.195.029,24.325,24.325,0,0,0,.482,5.444,29.683,29.683,0,0,0,1.567,4.111,30.888,30.888,0,0,0,5.2,8.491,23.212,23.212,0,0,0,7.438,5.307c2.159.99,4.72,1.928,7.078,1.149C269.929,155.2,269.925,155.184,269.918,155.186Z" transform="translate(-226.707 -130.11)" fill="#5b2526"/>
                  <path id="Tracé_34416" data-name="Tracé 34416" d="M279.451,149.972c-4-1.8-7.855-3.587-10.957-6.794a24.689,24.689,0,0,1-3.648-5.032c-1.15-2.023-1.709-4.2-2.659-6.3a.119.119,0,0,0-.227.073c2.283,8.849,8.486,15.733,17.482,18.077A.013.013,0,0,0,279.451,149.972Z" transform="translate(-234.708 -130.79)" fill="#5b2526"/>
                  <path id="Tracé_34417" data-name="Tracé 34417" d="M288.047,143.244a32.345,32.345,0,0,1-7-5.793c-2.006-2.437-3.125-5.262-4.7-7.949-.086-.146-.305-.016-.256.134a25.694,25.694,0,0,0,4.4,7.837,27.021,27.021,0,0,0,7.47,5.934C288.061,143.47,288.144,143.311,288.047,143.244Z" transform="translate(-242.9 -129.438)" fill="#5b2526"/>
                </g>
              </g>
              <g id="Groupe_39478" data-name="Groupe 39478" transform="translate(0 27.891)">
                <path id="Tracé_34418" data-name="Tracé 34418" d="M192.128,197.891s-.912-3.1-4.683-1.7-2.615,13.439,5.9,11.554Z" transform="translate(-185.401 -195.826)" fill="#ffaf8e"/>
                <g id="Groupe_39477" data-name="Groupe 39477" transform="translate(1.436 1.555)">
                  <path id="Tracé_34419" data-name="Tracé 34419" d="M188.82,201.071a2.831,2.831,0,0,1,4.5-.73" transform="translate(-188.82 -199.527)" fill="none" stroke="#9e4733" stroke-linecap="round" stroke-linejoin="round" stroke-width="1.01"/>
                  <path id="Tracé_34420" data-name="Tracé 34420" d="M192.728,201.352s.059-1.315,1.786-1.34" transform="translate(-191.086 -199.808)" fill="none" stroke="#9e4733" stroke-linecap="round" stroke-linejoin="round" stroke-width="1.01"/>
                </g>
                <path id="Tracé_34421" data-name="Tracé 34421" d="M193.163,221.8a2.764,2.764,0,1,1-1.546.472" transform="translate(-188.298 -210.888)" fill="none" stroke="#fff" stroke-linecap="round" stroke-linejoin="round" stroke-width="1.01"/>
              </g>
              <g id="Groupe_39480" data-name="Groupe 39480" transform="translate(44.205 27.891)">
                <path id="Tracé_34422" data-name="Tracé 34422" d="M291.837,197.891s.912-3.1,4.682-1.7,2.615,13.439-5.9,11.554Z" transform="translate(-290.621 -195.826)" fill="#ffaf8e"/>
                <g id="Groupe_39479" data-name="Groupe 39479" transform="translate(2.009 1.555)">
                  <path id="Tracé_34423" data-name="Tracé 34423" d="M299.9,201.071a2.831,2.831,0,0,0-4.5-.73" transform="translate(-295.404 -199.527)" fill="none" stroke="#9e4733" stroke-linecap="round" stroke-linejoin="round" stroke-width="1.01"/>
                  <path id="Tracé_34424" data-name="Tracé 34424" d="M299.735,201.352s-.059-1.315-1.786-1.34" transform="translate(-296.88 -199.808)" fill="none" stroke="#9e4733" stroke-linecap="round" stroke-linejoin="round" stroke-width="1.01"/>
                </g>
                <path id="Tracé_34425" data-name="Tracé 34425" d="M294.132,221.8a2.764,2.764,0,1,0,1.546.472" transform="translate(-291.053 -210.888)" fill="none" stroke="#fff" stroke-linecap="round" stroke-linejoin="round" stroke-width="1.01"/>
              </g>
            </g>
          </g>
          <g id="Groupe_39502" data-name="Groupe 39502" transform="translate(17.115 68.153)">
            <g id="Groupe_39483" data-name="Groupe 39483" transform="translate(18.403 41.286)">
              <path id="Tracé_34426" data-name="Tracé 34426" d="M196.718,413.439A162.1,162.1,0,0,0,187.438,394c-6.734-11.256-12.454-13.815-12.454-13.815l-13.509,4.263s-3.741,4.039-3.15,12.205c.07,5.58,4.741,21.03,4.741,21.03S183.8,421.778,196.718,413.439Z" transform="translate(-158.261 -379.155)" fill="#ff6d83"/>
              <path id="Tracé_34427" data-name="Tracé 34427" d="M204.8,417.308c-1.135-2.3-2.327-4.549-3.512-6.529-.345-.578-.687-1.126-1.027-1.659a10.222,10.222,0,0,1-5.522,4.059c-4.022.939-9.385-1.542-9.385-1.542s-9.233,9.291,3.62,12.737C199.608,427.225,203.7,419.917,204.8,417.308Z" transform="translate(-172.11 -395.934)" fill="#ff6d83" opacity="0.3" style="mix-blend-mode: multiply;isolation: isolate"/>
              <path id="Tracé_34428" data-name="Tracé 34428" d="M165.321,380.585a2.673,2.673,0,0,0-2.172,2.7c-.056,2.372,4.178,1.454,4.178,1.454s-.143,2.909,2.685,2.835,2.8-2.388,2.8-2.388,2.1,2.409,4.4.634-.112-4.009-.112-4.009,2.344-.167,2.313-2.072-1.96-2.418-4.744-1.683S165.321,380.585,165.321,380.585Z" transform="translate(-161.095 -377.732)" fill="#fff"/>
            </g>
            <g id="Groupe_39498" data-name="Groupe 39498">
              <g id="Groupe_39489" data-name="Groupe 39489" transform="translate(17.758 10.519)">
                <path id="Tracé_34429" data-name="Tracé 34429" d="M165.91,372.114a40.7,40.7,0,0,0,1.425,6.456c.668,1.409,3.762,3.262,7.293,1.705s3.162-3.768,2.2-5.7Z" transform="translate(-162.052 -343.707)" fill="#dca183"/>
                <g id="Groupe_39484" data-name="Groupe 39484">
                  <path id="Tracé_34430" data-name="Tracé 34430" d="M157.184,320.565c1.078,3.8,2.571,10.6,3.4,12.338s9.934,4.465,16.33,1.155,10.155-9.772,6.824-14.089-5.142-13.392-5.142-13.392-8.954-4.681-16.519,0S157.184,320.565,157.184,320.565Z" transform="translate(-156.727 -304.497)" fill="#dca183"/>
                  <path id="Tracé_34431" data-name="Tracé 34431" d="M179.876,311.514c-.841-2.742-1.279-4.937-1.279-4.937s-8.954-4.681-16.519,0-4.894,13.988-4.894,13.988c.075.263.152.543.23.833a9.45,9.45,0,0,0,.922.941,7.59,7.59,0,0,0,4.239-5.278S175.41,315.183,179.876,311.514Z" transform="translate(-156.727 -304.497)" fill="#dca183" opacity="0.2" style="mix-blend-mode: multiply;isolation: isolate"/>
                  <path id="Tracé_34432" data-name="Tracé 34432" d="M180.376,376.18a17.188,17.188,0,0,0,10.252-1.318" transform="translate(-170.441 -345.3)" fill="none" stroke="#7a312a" stroke-linecap="round" stroke-linejoin="round" stroke-width="0.774"/>
                </g>
                <g id="Groupe_39488" data-name="Groupe 39488" transform="translate(8.966 9.087)">
                  <path id="Tracé_34433" data-name="Tracé 34433" d="M183.067,339.036s-.6-1.974.763-2.736,2.219,2.035,2.219,2.035" transform="translate(-180.89 -331.95)" fill="none" stroke="#7a312a" stroke-linecap="round" stroke-linejoin="round" stroke-width="1.515"/>
                  <path id="Tracé_34434" data-name="Tracé 34434" d="M196.868,336.482s-.124,2.393,1.018,2.123c1.191-.282,2.225.2,1.939,1.439a1.6,1.6,0,0,1-2.639.668" transform="translate(-188.967 -332.131)" fill="none" stroke="#7a312a" stroke-linecap="round" stroke-linejoin="round" stroke-width="0.774"/>
                  <path id="Tracé_34435" data-name="Tracé 34435" d="M179.921,334.024a2.126,2.126,0,0,1,2.067-2" transform="translate(-179.143 -329.544)" fill="none" stroke="#7a312a" stroke-linecap="round" stroke-linejoin="round" stroke-width="0.774"/>
                  <g id="Groupe_39485" data-name="Groupe 39485" transform="translate(0 8.41)" opacity="0.5" style="mix-blend-mode: multiply;isolation: isolate">
                    <path id="Tracé_34436" data-name="Tracé 34436" d="M179.744,347.144c-.376,0-.347.583.028.583S180.119,347.144,179.744,347.144Z" transform="translate(-178.885 -346.724)" fill="#dca183"/>
                    <path id="Tracé_34437" data-name="Tracé 34437" d="M183.081,346.144c-.37,0-.345.573.023.573S183.45,346.144,183.081,346.144Z" transform="translate(-180.821 -346.144)" fill="#dca183"/>
                    <path id="Tracé_34438" data-name="Tracé 34438" d="M181.688,348.93c-.393,0-.35.608.041.608S182.079,348.93,181.688,348.93Z" transform="translate(-180.008 -347.76)" fill="#dca183"/>
                    <path id="Tracé_34439" data-name="Tracé 34439" d="M178.345,349.6c-.4,0-.351.621.048.621S178.744,349.6,178.345,349.6Z" transform="translate(-178.068 -348.146)" fill="#dca183"/>
                    <path id="Tracé_34440" data-name="Tracé 34440" d="M180.816,351.1c-.368,0-.345.57.022.57S181.182,351.1,180.816,351.1Z" transform="translate(-179.508 -349.015)" fill="#dca183"/>
                    <path id="Tracé_34441" data-name="Tracé 34441" d="M184.018,350.6a.272.272,0,0,0,.01.544A.272.272,0,0,0,184.018,350.6Z" transform="translate(-181.369 -348.726)" fill="#dca183"/>
                    <path id="Tracé_34442" data-name="Tracé 34442" d="M185.826,347.664c-.3,0-.318.464-.019.464S186.125,347.664,185.826,347.664Z" transform="translate(-182.431 -347.025)" fill="#dca183"/>
                  </g>
                  <path id="Tracé_34443" data-name="Tracé 34443" d="M205.863,332.709s-.391-2.027-1.956-2.059-1.008,2.837-1.008,2.837" transform="translate(-192.411 -328.749)" fill="none" stroke="#7a312a" stroke-linecap="round" stroke-linejoin="round" stroke-width="1.515"/>
                  <path id="Tracé_34444" data-name="Tracé 34444" d="M205.9,326.84a2.127,2.127,0,0,0-2.869-.227" transform="translate(-192.543 -326.126)" fill="none" stroke="#7a312a" stroke-linecap="round" stroke-linejoin="round" stroke-width="0.774"/>
                  <g id="Groupe_39486" data-name="Groupe 39486" transform="translate(13.178 4.848)" opacity="0.5" style="mix-blend-mode: multiply;isolation: isolate">
                    <path id="Tracé_34445" data-name="Tracé 34445" d="M214.584,337.7c.333-.176.579.352.248.528S214.253,337.876,214.584,337.7Z" transform="translate(-212.331 -337.665)" fill="#dca183"/>
                    <path id="Tracé_34446" data-name="Tracé 34446" d="M211.176,338.379c.327-.173.574.345.248.517S210.85,338.551,211.176,338.379Z" transform="translate(-210.356 -338.058)" fill="#dca183"/>
                    <path id="Tracé_34447" data-name="Tracé 34447" d="M213.683,340.19c.347-.184.594.374.249.557S213.337,340.374,213.683,340.19Z" transform="translate(-211.802 -339.108)" fill="#dca183"/>
                    <path id="Tracé_34448" data-name="Tracé 34448" d="M216.937,339.214c.355-.188.6.384.248.571S216.584,339.4,216.937,339.214Z" transform="translate(-213.687 -338.542)" fill="#dca183"/>
                    <path id="Tracé_34449" data-name="Tracé 34449" d="M215.5,341.692c.325-.173.572.342.248.513S215.175,341.863,215.5,341.692Z" transform="translate(-212.864 -339.98)" fill="#dca183"/>
                    <path id="Tracé_34450" data-name="Tracé 34450" d="M212.457,342.749a.272.272,0,0,1,.246.485A.272.272,0,0,1,212.457,342.749Z" transform="translate(-211.105 -340.593)" fill="#dca183"/>
                    <path id="Tracé_34451" data-name="Tracé 34451" d="M209.553,340.995c.263-.139.5.261.234.4S209.288,341.135,209.553,340.995Z" transform="translate(-209.437 -339.579)" fill="#dca183"/>
                  </g>
                  <g id="Groupe_39487" data-name="Groupe 39487" transform="translate(5.807 10.28)">
                    <path id="Tracé_34452" data-name="Tracé 34452" d="M195.192,352.071c-1.2.364-3.021-1.044-3.275.45a3.379,3.379,0,0,0,4.8,3.466c3.5-1.431,1.94-5.391.922-5.391C196.1,350.6,196.845,351.567,195.192,352.071Z" transform="translate(-191.89 -350.596)" fill="#5b2526"/>
                    <path id="Tracé_34453" data-name="Tracé 34453" d="M198.353,351.135c-.221-.333-.48-.539-.712-.539-1.538,0-.795.971-2.448,1.475-1.2.364-3.021-1.044-3.275.45a2.282,2.282,0,0,0-.017.556,3.555,3.555,0,0,0,3.037.525l.448-.922.7.736S198.27,352.561,198.353,351.135Z" transform="translate(-191.891 -350.596)" fill="#fff"/>
                    <path id="Tracé_34454" data-name="Tracé 34454" d="M193.455,360.075a3.169,3.169,0,0,0,4.17,1.1,4.372,4.372,0,0,0,.646-.327C197.078,358.831,194.489,359.644,193.455,360.075Z" transform="translate(-192.798 -355.784)" fill="#ff6d83"/>
                  </g>
                </g>
              </g>
              <g id="Groupe_39497" data-name="Groupe 39497">
                <g id="Groupe_39491" data-name="Groupe 39491">
                  <path id="Tracé_34455" data-name="Tracé 34455" d="M128.609,284.457s-.155-5.283-6.827-4.986-8.822,8.643-6.3,12.587.252,5.8-1.023,4.834c0,0,1.381,5.634,8.653,1.557S128.609,284.457,128.609,284.457Z" transform="translate(-114.457 -279.459)" fill="#fccb68"/>
                  <g id="Groupe_39490" data-name="Groupe 39490" transform="translate(1.462 1.504)" opacity="0.6" style="mix-blend-mode: multiply;isolation: isolate">
                    <path id="Tracé_34456" data-name="Tracé 34456" d="M123.862,283.039c-2.92.2-4.876,3.221-5.226,5.918-.423,3.253,4.824,10.25-.694,11.117-.007,0-.008.013,0,.013,2.624.178,3.5-2.111,2.925-4.39s-2-4.17-1.728-6.643a6.687,6.687,0,0,1,4.78-5.745A.14.14,0,0,0,123.862,283.039Z" transform="translate(-117.936 -283.039)" fill="#fccb68"/>
                    <path id="Tracé_34457" data-name="Tracé 34457" d="M128.732,288.554c-1.908,1.578-2.249,3.613-1.883,5.972a33.027,33.027,0,0,1,.743,4.715c.025,2.887-1.492,3.839-3.952,4.735-.014.005-.007.027.008.025,2.669-.321,4.395-1.626,4.453-4.478.077-3.8-2.409-7.519.933-10.637A.225.225,0,0,0,128.732,288.554Z" transform="translate(-121.239 -286.205)" fill="#fccb68"/>
                  </g>
                </g>
                <path id="Tracé_34458" data-name="Tracé 34458" d="M145.115,288.923c.423-2.5-2.272-2.5-5.713,1.018-1.709,1.746-2.882,5.189-1.033,5.709S144.693,291.422,145.115,288.923Z" transform="translate(-127.779 -283.925)" fill="#ff6d83"/>
                <g id="Groupe_39494" data-name="Groupe 39494" transform="translate(6.064 2.007)">
                  <path id="Tracé_34459" data-name="Tracé 34459" d="M141.677,311.179s5.092-5.119,3.28-11.446a12.833,12.833,0,0,1,1.526,4.356s3.148-.155,4.88-1.54a14.129,14.129,0,0,0-.493-4.087,7.888,7.888,0,0,1,1.6,3.942s3.871-.572,5.619-2.226a10.289,10.289,0,0,0-.986-4.26,10.482,10.482,0,0,1,2.13,3.848s4.083-.127,5.793-3.021c0,0-2.287-8.889-10.314-11.437s-15.663-.519-19,5.732c0,0-6.079,2.042-5.783,11.152s4.152,23.619-1.038,23.34c0,0,11.694,10.908,16.564.836a10.863,10.863,0,0,0,.306-5.3,10.256,10.256,0,0,0-2.735-4.464Z" transform="translate(-128.892 -284.236)" fill="#fccb68"/>
                  <g id="Groupe_39492" data-name="Groupe 39492" transform="translate(12.145 2.991)" opacity="0.6" style="mix-blend-mode: multiply;isolation: isolate">
                    <path id="Tracé_34460" data-name="Tracé 34460" d="M159.941,313.194a.126.126,0,0,0-.251.015c.158,3.151.854,8.423-1.885,10.806a.013.013,0,0,0,.017.021C160.811,321.841,160.356,316.395,159.941,313.194Z" transform="translate(-157.8 -303.953)" fill="#fccb68"/>
                    <path id="Tracé_34461" data-name="Tracé 34461" d="M173.009,309.182a9.548,9.548,0,0,0-1.294-4.467c-.06-.088-.222-.031-.181.079a18.452,18.452,0,0,1,1.093,4.449,19.8,19.8,0,0,1,.324,5.012.013.013,0,0,0,.026.006C173.62,312.688,173.188,310.826,173.009,309.182Z" transform="translate(-165.761 -299.078)" fill="#fccb68"/>
                    <path id="Tracé_34462" data-name="Tracé 34462" d="M185.244,305.964a14.952,14.952,0,0,0-2.786-5.563.139.139,0,0,0-.229.159c1.345,2.142,4.111,6.529,3.061,9.18-.008.021.023.038.035.018C186.045,308.52,185.639,307.261,185.244,305.964Z" transform="translate(-171.952 -296.57)" fill="#fccb68"/>
                    <path id="Tracé_34463" data-name="Tracé 34463" d="M194.972,297.315c-.129-.183-.392.026-.273.21.612.949,1.35,1.8,2.008,2.712a10.275,10.275,0,0,1,1.883,5.49.027.027,0,0,0,.053,0C198.756,302.231,196.875,300.026,194.972,297.315Z" transform="translate(-179.18 -294.771)" fill="#fccb68"/>
                    <path id="Tracé_34464" data-name="Tracé 34464" d="M198.569,296.332a15.413,15.413,0,0,0-5.034-4.96c-.122-.073-.25.121-.138.208,2.97,2.3,6.516,5.814,6.97,9.766a.007.007,0,0,0,.013,0C200.556,299.586,199.486,297.767,198.569,296.332Z" transform="translate(-178.417 -291.356)" fill="#fccb68"/>
                  </g>
                  <g id="Groupe_39493" data-name="Groupe 39493" transform="translate(2.588 18.159)" opacity="0.6" style="mix-blend-mode: multiply;isolation: isolate">
                    <path id="Tracé_34465" data-name="Tracé 34465" d="M137.733,335.93a22.3,22.3,0,0,1-.581-8.288.166.166,0,0,0-.329-.046c-.767,3.358-.01,6.666.779,9.946.855,3.556,1.819,9.387-2.545,11.125-.007,0,0,.014,0,.013,2.858-.621,3.843-3.894,3.868-6.515C138.947,340.049,138.2,337.972,137.733,335.93Z" transform="translate(-135.053 -327.46)" fill="#fccb68"/>
                    <path id="Tracé_34466" data-name="Tracé 34466" d="M150.908,357.42c-.074-.118-.28-.023-.224.109,1.048,2.51,2,7.168-.356,9.341-.037.034.007.105.052.076C153.107,365.175,152.352,359.74,150.908,357.42Z" transform="translate(-143.902 -344.802)" fill="#fccb68"/>
                  </g>
                </g>
                <g id="Groupe_39496" data-name="Groupe 39496" transform="translate(13.351 26.713)">
                  <path id="Tracé_34467" data-name="Tracé 34467" d="M153.454,349.3s-1.6,3.566-4.719,2.324-3.121-6.275-1.089-7.933,4.065.222,4.791,1.5Z" transform="translate(-146.236 -343.044)" fill="#dca183"/>
                  <path id="Tracé_34468" data-name="Tracé 34468" d="M160.021,359.543a1.264,1.264,0,1,1-1.264-1.264A1.264,1.264,0,0,1,160.021,359.543Z" transform="translate(-152.764 -351.879)" fill="#fff"/>
                  <g id="Groupe_39495" data-name="Groupe 39495" transform="translate(1.41 1.833)">
                    <path id="Tracé_34469" data-name="Tracé 34469" d="M149.592,348.634s1.452-2.759,3.848,0" transform="translate(-149.592 -347.408)" fill="none" stroke="#7a312a" stroke-linecap="round" stroke-linejoin="round" stroke-width="1.01"/>
                    <path id="Tracé_34470" data-name="Tracé 34470" d="M152.3,349.132a1.353,1.353,0,0,1,1.649-1.069" transform="translate(-151.163 -347.762)" fill="none" stroke="#7a312a" stroke-linecap="round" stroke-linejoin="round" stroke-width="1.01"/>
                  </g>
                </g>
              </g>
            </g>
            <g id="Groupe_39501" data-name="Groupe 39501" transform="translate(19.281 43.884)">
              <g id="Groupe_39500" data-name="Groupe 39500" transform="translate(6.389)">
                <path id="Tracé_34471" data-name="Tracé 34471" d="M199.692,390.561s-1.734-2.834-.9-3.429,1.865.772,1.865.772.022-2.846.732-3.53a.81.81,0,0,1,1.464.449s.341-.947,1.129-.905.761,1.435.761,1.435a.652.652,0,0,1,1.091.034,1.409,1.409,0,0,1,.3,1.294s.931-.249.828.786a7.77,7.77,0,0,1-3.453,5.341s-2.445,11.974-10.4,14.909c-7.049,2.6-15.433.413-17.556-3.964l4.807-6.713s6.152,3.795,10.722,2.68S199.692,390.561,199.692,390.561Z" transform="translate(-175.559 -383.916)" fill="#dca183"/>
                <path id="Tracé_34472" data-name="Tracé 34472" d="M180.366,397.04s6.152,3.795,10.722,2.68,8.6-9.16,8.6-9.16-1.734-2.834-.9-3.429,1.865.772,1.865.772.022-2.846.732-3.53a.81.81,0,0,1,1.464.449s.341-.947,1.129-.905.761,1.435.761,1.435a.652.652,0,0,1,1.091.034,1.409,1.409,0,0,1,.3,1.294s.931-.249.828.786a7.77,7.77,0,0,1-3.453,5.341s-2.445,11.974-10.4,14.909c-7.049,2.6-15.433.413-17.556-3.964" transform="translate(-175.559 -383.916)" fill="none" stroke="#7a312a" stroke-linecap="round" stroke-linejoin="round" stroke-width="0.774"/>
                <g id="Groupe_39499" data-name="Groupe 39499" transform="translate(27.094 0.771)">
                  <path id="Tracé_34473" data-name="Tracé 34473" d="M240.05,388.317a17.448,17.448,0,0,0,.26-2.565" transform="translate(-240.05 -385.752)" fill="none" stroke="#7a312a" stroke-linecap="round" stroke-linejoin="round" stroke-width="0.774"/>
                  <path id="Tracé_34474" data-name="Tracé 34474" d="M243.5,389.259a8.02,8.02,0,0,0,.636-2.229" transform="translate(-242.053 -386.493)" fill="none" stroke="#7a312a" stroke-linecap="round" stroke-linejoin="round" stroke-width="0.774"/>
                  <path id="Tracé_34475" data-name="Tracé 34475" d="M247.221,391.739a8.74,8.74,0,0,0,.509-1.623" transform="translate(-244.208 -388.283)" fill="none" stroke="#7a312a" stroke-linecap="round" stroke-linejoin="round" stroke-width="0.774"/>
                </g>
              </g>
              <path id="Tracé_34476" data-name="Tracé 34476" d="M174.262,406.874a53.617,53.617,0,0,1-6.468-4.374c-2.571-2.15-6.605-1.928-7.294,1.483s.873,8.893,7.545,13.267C168.046,417.249,174.775,417.03,174.262,406.874Z" transform="translate(-160.351 -393.884)" fill="#fff"/>
            </g>
          </g>
          <g id="Groupe_39519" data-name="Groupe 39519" transform="translate(67.042 54.322)">
            <g id="Groupe_39503" data-name="Groupe 39503" transform="translate(13.497 43.876)">
              <path id="Tracé_34477" data-name="Tracé 34477" d="M295.41,352.922c-8.25-3.589-12.6-1.12-12.6-1.12a30.643,30.643,0,0,0-11.23,14.415c-3.062,8.614-5.735,24.888-6.159,32.2,14.28-3.295,25.444,1.015,35.315-6.783C307.252,377.607,303.2,356.311,295.41,352.922Z" transform="translate(-265.423 -350.974)" fill="#66b4b0"/>
              <path id="Tracé_34478" data-name="Tracé 34478" d="M268.7,407.445c3.661,2.114,10.767,5.184,17.588,2.254,9.757-4.191,5.261-23.432,5.261-23.432s-12.827,8.493-15.741,8.9a4.516,4.516,0,0,1-4.371-1.457C270.37,398.042,269.422,402.932,268.7,407.445Z" transform="translate(-267.324 -371.44)" fill="#66b4b0" opacity="0.3" style="mix-blend-mode: multiply;isolation: isolate"/>
              <path id="Tracé_34479" data-name="Tracé 34479" d="M303.082,355.309s-1.734,2,2.652,4.72,12.423.87,11.94-4.279" transform="translate(-287.065 -353.488)" fill="none" stroke="#3c7c6c" stroke-miterlimit="10" stroke-width="1.01"/>
            </g>
            <g id="Groupe_39508" data-name="Groupe 39508" transform="translate(0 56.684)">
              <g id="Groupe_39505" data-name="Groupe 39505">
                <path id="Tracé_34480" data-name="Tracé 34480" d="M255.5,404.653c-9.689-1.405-16.489-12.995-16.489-12.995-2.725-.537-5-3.284-5.607-4.746-.461-1.11.652-1.147.652-1.147a1.627,1.627,0,0,1-.1-1.533.753.753,0,0,1,1.194-.4s-.5-1.531.36-1.841,1.551.623,1.551.623c-.187-.674.454-1.5,1.468-.987s1.992,3.656,1.992,3.656.682-1.858,1.8-1.479.154,4.092.154,4.092,7.169,6.752,12.58,7.242c4.148.375,13.488-3.952,17.5-8.856s6.843-3.735,7.627,1.705S269.29,406.652,255.5,404.653Z" transform="translate(-233.297 -381.462)" fill="#ffc59c"/>
                <g id="Groupe_39504" data-name="Groupe 39504" transform="translate(0.668 1.019)">
                  <path id="Tracé_34481" data-name="Tracé 34481" d="M243.155,386.636a20.2,20.2,0,0,1-1.148-2.748" transform="translate(-239.016 -383.888)" fill="none" stroke="#bc6044" stroke-linecap="round" stroke-linejoin="round" stroke-width="1.01"/>
                  <path id="Tracé_34482" data-name="Tracé 34482" d="M239.079,389.009a9.259,9.259,0,0,1-1.451-2.251" transform="translate(-236.477 -385.552)" fill="none" stroke="#bc6044" stroke-linecap="round" stroke-linejoin="round" stroke-width="1.01"/>
                  <path id="Tracé_34483" data-name="Tracé 34483" d="M236,392.936a10.077,10.077,0,0,1-1.107-1.623" transform="translate(-234.888 -388.194)" fill="none" stroke="#bc6044" stroke-linecap="round" stroke-linejoin="round" stroke-width="1.01"/>
                </g>
              </g>
              <g id="Groupe_39506" data-name="Groupe 39506" transform="translate(6.123 0.495)">
                <path id="Tracé_34484" data-name="Tracé 34484" d="M252.5,389.14s7.088,4.422,10.685,5.222c2.991.665,9.09-4.951,12.159-7.4,2.886-2.3,6.152-5.071,10.41-4.139s5.7,3.769,3.545,9.423-15.016,17.468-27.23,13.123-14.194-10.934-14.194-10.934Z" transform="translate(-247.872 -382.64)" fill="#66b4b0"/>
              </g>
              <g id="Groupe_39507" data-name="Groupe 39507" transform="translate(6.123 4.819)">
                <path id="Tracé_34485" data-name="Tracé 34485" d="M289.3,398.217c-2.154,5.654-15.016,17.469-27.23,13.123s-14.194-10.934-14.194-10.934l4.624-5.3s7.234,4.515,10.231,5.153c4.277.91,9.506-5.337,12.612-7.329" transform="translate(-247.872 -392.933)" fill="none" stroke="#3c7c6c" stroke-miterlimit="10" stroke-width="1.01"/>
              </g>
              <path id="Tracé_34486" data-name="Tracé 34486" d="M249.964,393.649c-1.335,1.311-6.57,5.083-6.033,6.747s1.911,2.647,2.257,2.137,5.277-6.688,5.046-7.5A2.879,2.879,0,0,0,249.964,393.649Z" transform="translate(-239.441 -388.529)" fill="#3c7c6c"/>
            </g>
            <g id="Groupe_39518" data-name="Groupe 39518" transform="translate(16.192)">
              <g id="Groupe_39515" data-name="Groupe 39515">
                <path id="Tracé_34487" data-name="Tracé 34487" d="M319.654,344.228s-.689,4.959-1.5,6.566-4.631,3.838-8.662,1.936-3.682-3.779-2.511-5.984Z" transform="translate(-291.762 -303.186)" fill="#ffc59c"/>
                <g id="Groupe_39509" data-name="Groupe 39509" transform="translate(0 7.964)">
                  <path id="Tracé_34488" data-name="Tracé 34488" d="M304.023,284.426c-1.357,4.35-3.282,12.159-4.292,14.146s-11.6,4.862-18.889.85-11.437-11.583-7.463-16.469,6.333-15.311,6.333-15.311,10.478-5.141,19.074.489S304.023,284.426,304.023,284.426Z" transform="translate(-271.839 -265.495)" fill="#ffc59c"/>
                  <path id="Tracé_34489" data-name="Tracé 34489" d="M308.087,268.13c-8.6-5.629-19.074-.489-19.074-.489s-.4,1.748-1.136,4.147c1.183,1.229,3.755,2.2,9.185-.866,0,0-.348,4.176,2.541,4.273a12.509,12.509,0,0,0,5.612-1.384s-.87,3.148,2.612,1.389c0,0-1.261,10.2,4.657,12.072.294-1.033.578-2,.841-2.845C313.324,284.426,316.683,273.759,308.087,268.13Z" transform="translate(-281.14 -265.495)" fill="#ffc59c" opacity="0.5" style="mix-blend-mode: multiply;isolation: isolate"/>
                  <path id="Tracé_34490" data-name="Tracé 34490" d="M304.693,348.12a19.659,19.659,0,0,1-11.423-1.869" transform="translate(-284.266 -312.324)" fill="none" stroke="#bc6044" stroke-linecap="round" stroke-linejoin="round" stroke-width="1.01"/>
                </g>
                <g id="Groupe_39511" data-name="Groupe 39511" transform="translate(5.609)">
                  <path id="Tracé_34491" data-name="Tracé 34491" d="M310.072,275.9a13.054,13.054,0,0,1-2.455-13.638s-3.8,3-3.6-.967a6.182,6.182,0,0,1-4.978,1.873c-3.075-.3-2.1-5.106-2.1-5.106s-7.326,4.022-10.773.45,2.682-10.13,10.579-11.709,15.082,4.172,16.565,8.506c0,0-.285-2.247.9-2.338s1.016,2.657,1.016,2.657,4.053-2.39,4.411-.954S316.4,257.5,316.4,257.5s4.82,1.48,5.671,14.134-9.047,19.491-14.422,15.558Z" transform="translate(-285.189 -246.537)" fill="#a44f40"/>
                  <g id="Groupe_39510" data-name="Groupe 39510" transform="translate(4.778 2.077)" opacity="0.5" style="mix-blend-mode: multiply;isolation: isolate">
                    <path id="Tracé_34492" data-name="Tracé 34492" d="M306.963,263.613c-1.944-.187-1.79-2.908-1.121-4.068.093-.163-.144-.353-.285-.234a11.55,11.55,0,0,1-4.061,2.309,4.856,4.856,0,0,1-2.873.19c-2.683-.829-1.073-3.668.538-4.693.056-.035,0-.133-.063-.1-1.157.654-2.961,2.3-2.444,3.842.523,1.557,2.721,1.559,4.024,1.33a10.359,10.359,0,0,0,3.636-1.483c.244-.154.508-.3.675-.429-.066.45-.068,1.243-.075,1.137.078,1.073.768,2.884,2.069,2.409A.107.107,0,0,0,306.963,263.613Z" transform="translate(-296.563 -254.687)" fill="#a44f40"/>
                    <path id="Tracé_34493" data-name="Tracé 34493" d="M330.282,255.434c-.1.556-.988.791-1.428.618-.75-.295-.633-.96-.444-1.579.051-.168-.168-.259-.29-.184-.725.442-2.037.484-2.351-.5-.219-.685.042-2.012.849-2.219.056-.014.047-.1-.013-.092-.968.171-1.358,1.646-1.087,2.472.324.991,1.537,1.118,2.424.813-.172.754-.074,1.493.851,1.74a1.523,1.523,0,0,0,1.907-1.016C330.746,255.22,330.33,255.166,330.282,255.434Z" transform="translate(-313.305 -251.48)" fill="#a44f40"/>
                    <path id="Tracé_34494" data-name="Tracé 34494" d="M347.844,276.907c-1.546,1.2-3.616.021-4.745-1.264a6.754,6.754,0,0,1-1.328-5.4c.023-.027.048-.051.07-.079.151-.2-.15-.508-.334-.315-1.111,1.157-3.256.754-3-1.159.111-.818.705-2.593,1.52-2.967.073-.034.037-.158-.044-.137-.671.164-1.042.933-1.332,1.5a3.728,3.728,0,0,0-.551,2.478,2.1,2.1,0,0,0,3.037,1.189,6.464,6.464,0,0,0,.082,1.81,6.37,6.37,0,0,0,2.092,4.129c.74.63,4.631,2.65,4.743.338A.14.14,0,0,0,347.844,276.907Z" transform="translate(-320.617 -259.658)" fill="#a44f40"/>
                    <path id="Tracé_34495" data-name="Tracé 34495" d="M347.09,298.8a3.391,3.391,0,0,1-3-.952c-.877-.943-.783-2.36-.879-3.554-.008-.1-.142-.071-.158.008-.3,1.473-.215,3.2,1.009,4.224.692.58,2.4,1.5,3.151.539A.161.161,0,0,0,347.09,298.8Z" transform="translate(-323.439 -276.269)" fill="#a44f40"/>
                  </g>
                </g>
                <g id="Groupe_39514" data-name="Groupe 39514" transform="translate(1.312 14.335)">
                  <g id="Groupe_39512" data-name="Groupe 39512">
                    <path id="Tracé_34496" data-name="Tracé 34496" d="M286.23,288.1c-.711,3.4-3.777,5.631-6.848,4.983s-4.984-3.93-4.273-7.33,3.777-5.631,6.848-4.983S286.941,284.7,286.23,288.1Z" transform="translate(-274.961 -280.659)" fill="none" stroke="#fff" stroke-miterlimit="10" stroke-width="1.013"/>
                    <path id="Tracé_34497" data-name="Tracé 34497" d="M319.368,297.635c-.711,3.4-3.777,5.631-6.848,4.983s-4.984-3.93-4.273-7.33,3.777-5.631,6.848-4.983S320.079,294.235,319.368,297.635Z" transform="translate(-294.176 -286.187)" fill="none" stroke="#fff" stroke-miterlimit="10" stroke-width="1.013"/>
                    <path id="Tracé_34498" data-name="Tracé 34498" d="M300.892,300.956s1.847-1.048,3.056,1.238" transform="translate(-289.998 -292.29)" fill="none" stroke="#fff" stroke-miterlimit="10" stroke-width="1.013"/>
                    <line id="Ligne_1904" data-name="Ligne 1904" x2="7.076" y2="1.459" transform="translate(24.81 12.686)" fill="none" stroke="#fff" stroke-miterlimit="10" stroke-width="1.013"/>
                  </g>
                  <g id="Groupe_39513" data-name="Groupe 39513" transform="translate(4.879 3.33)">
                    <path id="Tracé_34499" data-name="Tracé 34499" d="M286.575,296.587a2.684,2.684,0,0,1,2.717-1.465c1.879.28.671,3,.671,3" transform="translate(-286.575 -292.358)" fill="none" stroke="#bc6044" stroke-linecap="round" stroke-linejoin="round" stroke-width="1.515"/>
                    <path id="Tracé_34500" data-name="Tracé 34500" d="M313.166,307.055a2.376,2.376,0,0,0-.736-2.806c-1.48-1.19-2.689,1.359-2.689,1.359" transform="translate(-300.008 -297.485)" fill="none" stroke="#bc6044" stroke-linecap="round" stroke-linejoin="round" stroke-width="1.515"/>
                    <path id="Tracé_34501" data-name="Tracé 34501" d="M289.684,319.026a3.653,3.653,0,0,0,2.207,2.847c2.18,1.182,4.735-.612,4.735-.612" transform="translate(-288.378 -306.237)" fill="none" stroke="#bc6044" stroke-linecap="round" stroke-linejoin="round" stroke-width="1.01"/>
                    <path id="Tracé_34502" data-name="Tracé 34502" d="M298.242,302.146s.071,2.767-1.238,2.421c-1.367-.361-2.576.164-2.282,1.6a1.848,1.848,0,0,0,3.027.849" transform="translate(-291.274 -296.449)" fill="#ffc59c" stroke="#bc6044" stroke-linecap="round" stroke-linejoin="round" stroke-width="1.01"/>
                    <path id="Tracé_34503" data-name="Tracé 34503" d="M290.47,289.406a9.267,9.267,0,0,1,2.078.718c.826.425,1.638.129.4-.82s-3.306-.834-3.5-.364S289.992,289.282,290.47,289.406Z" transform="translate(-288.227 -288.585)" fill="#a44f40"/>
                    <path id="Tracé_34504" data-name="Tracé 34504" d="M317.447,300.545a9.226,9.226,0,0,0-2-.915c-.891-.262-1.274-1.037.275-.872s2.969,1.677,2.782,2.149S317.879,300.786,317.447,300.545Z" transform="translate(-302.866 -294.471)" fill="#a44f40"/>
                  </g>
                </g>
              </g>
              <g id="Groupe_39517" data-name="Groupe 39517" transform="translate(29.024 27.731)">
                <path id="Tracé_34505" data-name="Tracé 34505" d="M340.924,319.1s1.6,3.843,4.964,2.605,3.5-6.6,1.377-8.422-4.337.125-5.146,1.463Z" transform="translate(-340.924 -312.544)" fill="#ffc59c"/>
                <g id="Groupe_39516" data-name="Groupe 39516" transform="translate(2.176 1.951)">
                  <path id="Tracé_34506" data-name="Tracé 34506" d="M350.2,318.542s-1.472-2.979-4.1-.105" transform="translate(-346.103 -317.186)" fill="none" stroke="#bc6044" stroke-linecap="round" stroke-linejoin="round" stroke-width="1.01"/>
                  <path id="Tracé_34507" data-name="Tracé 34507" d="M350.58,319.018a1.442,1.442,0,0,0-1.727-1.184" transform="translate(-347.698 -317.54)" fill="none" stroke="#bc6044" stroke-linecap="round" stroke-linejoin="round" stroke-width="1.01"/>
                </g>
              </g>
            </g>
          </g>
          <g id="Groupe_39520" data-name="Groupe 39520" transform="translate(66.15 93.178)">
            <path id="Tracé_34508" data-name="Tracé 34508" d="M235.066,355.982s-3.208-1.461-3.807-4.407,2.138-2.389,3.078-.487c0,0,.085-3.422,2.48-3.026S238.274,352.733,235.066,355.982Z" transform="translate(-231.174 -344.247)" fill="#ff6d83"/>
            <path id="Tracé_34509" data-name="Tracé 34509" d="M258.51,345.866a4.636,4.636,0,0,1-2.309-4.183c-.085-3.15,2.348-2.438,2.67-.742a2.78,2.78,0,0,1,2.973-1.9C264.154,339.3,261.845,343.109,258.51,345.866Z" transform="translate(-245.686 -339.026)" fill="#ff6d83"/>
            <path id="Tracé_34510" data-name="Tracé 34510" d="M255.821,370.288s-2.886-2.4-2.2-4.878,2.309-.24,2.48.906c0,0,.588-1.846,1.833-.906S257.937,368.753,255.821,370.288Z" transform="translate(-244.128 -353.675)" fill="#ff6d83"/>
          </g>
        </g>
      </g>
      <g id="Groupe_39528" data-name="Groupe 39528" transform="translate(18.205 102.695)">
        <g id="Groupe_39523" data-name="Groupe 39523" transform="translate(0 2.413)">
          <path id="Tracé_34512" data-name="Tracé 34512" d="M193.058,437.4c1.174,1.048,6.532,2.545,6.156,3.443s-3.046,1.206-4.724.473c0,0,3.96,1.02,3.684,2.052s-2.509.811-4.438.16c0,0,2.808,1.143,2.532,2.175s-3.347.633-4.742,0c0,0,2.71,1.327,2.178,2.293s-5.069-1.132-7.757-2.674-7.552-6.53-6.24-8.827,7.762-4.3,12.273-3.377,6.068,1.668,4.962,2.839S191.85,436.325,193.058,437.4Z" transform="translate(-153.256 -405.388)" fill="#ffaf8e"/>
          <path id="Tracé_34513" data-name="Tracé 34513" d="M119.623,367.424c-2.309,4.944-4.966,11.67,1.374,20.859,7.578,10.982,24.052,17.87,24.052,17.87s9.117-3.945,9.748-12.089c0,0-14.482-7.439-21.075-12.051-3.621-2.532-8.893-8.96-9.2-12.079Z" transform="translate(-117.049 -367.424)" fill="#5a3082"/>
        </g>
        <g id="Groupe_39527" data-name="Groupe 39527" transform="translate(2.204)">
          <g id="Groupe_39524" data-name="Groupe 39524" transform="translate(1.726 13.544)" opacity="0.4" style="mix-blend-mode: overlay;isolation: isolate">
            <path id="Tracé_34514" data-name="Tracé 34514" d="M128.285,396.443a2.094,2.094,0,0,1-1.073-1.544c-.143-1.094,1.038-1.241,1.589-.6a2.049,2.049,0,0,1,.363,1.58,1.916,1.916,0,0,1,1.349-1.5c1.252-.453,1.691,1.36.111,2.155a1.962,1.962,0,0,1,1.747.774c.587.9-.962,1.864-2.071.474,0,0,.161,1.931-1.22,1.9-1.449-.033-.54-2.09-.54-2.09s-1.119,1.333-1.9.4C125.915,397.138,127,396.207,128.285,396.443Z" transform="translate(-126.405 -393.918)" fill="#fff"/>
            <path id="Tracé_34515" data-name="Tracé 34515" d="M180.963,437.635a2.092,2.092,0,0,1,.828-1.687c.888-.656,1.589.3,1.3,1.1a2.05,2.05,0,0,1-1.206,1.084,1.916,1.916,0,0,1,1.962.453c1,.874-.369,2.138-1.83,1.143a1.961,1.961,0,0,1,.171,1.9c-.5.949-2.1.064-1.42-1.581,0,0-1.61,1.078-2.253-.145-.674-1.283,1.565-1.486,1.565-1.486s-1.709-.332-1.273-1.469C179.206,435.9,180.545,436.4,180.963,437.635Z" transform="translate(-156.548 -418.164)" fill="#fff"/>
          </g>
          <g id="Groupe_39525" data-name="Groupe 39525" transform="translate(0.187 6.418)" opacity="0.2" style="mix-blend-mode: multiply;isolation: isolate">
            <path id="Tracé_34516" data-name="Tracé 34516" d="M146.017,407.828s3.384-.535,3.318,3.661A3.021,3.021,0,0,1,146.017,407.828Z" transform="translate(-136.22 -394.846)" fill="#5a3082"/>
            <path id="Tracé_34517" data-name="Tracé 34517" d="M156.123,436.444s1.534-3.063,4.909-.568A3.021,3.021,0,0,1,156.123,436.444Z" transform="translate(-142.098 -410.556)" fill="#5a3082"/>
            <path id="Tracé_34518" data-name="Tracé 34518" d="M122.74,377.464s2.808-1.962,4.586,1.839A3.021,3.021,0,0,1,122.74,377.464Z" transform="translate(-122.74 -376.958)" fill="#5a3082"/>
            <path id="Tracé_34519" data-name="Tracé 34519" d="M175.032,422.476s3.175,1.287.955,4.848A3.021,3.021,0,0,1,175.032,422.476Z" transform="translate(-152.563 -403.353)" fill="#5a3082"/>
          </g>
          <g id="Groupe_39526" data-name="Groupe 39526" opacity="0.2" style="mix-blend-mode: overlay;isolation: isolate">
            <path id="Tracé_34520" data-name="Tracé 34520" d="M123.052,387.437a.736.736,0,1,0,.715.756A.75.75,0,0,0,123.052,387.437Z" transform="translate(-122.296 -376.615)" fill="#fff"/>
            <path id="Tracé_34521" data-name="Tracé 34521" d="M141.739,420.114a.736.736,0,1,0,.715.756A.751.751,0,0,0,141.739,420.114Z" transform="translate(-133.132 -395.564)" fill="#fff"/>
            <path id="Tracé_34522" data-name="Tracé 34522" d="M160.971,424.742a.736.736,0,1,0,.715.756A.751.751,0,0,0,160.971,424.742Z" transform="translate(-144.284 -398.248)" fill="#fff"/>
            <path id="Tracé_34523" data-name="Tracé 34523" d="M127.2,361.681a.736.736,0,1,0,.715.756A.75.75,0,0,0,127.2,361.681Z" transform="translate(-124.703 -361.68)" fill="#fff"/>
          </g>
        </g>
      </g>
      <g id="Groupe_39534" data-name="Groupe 39534" transform="translate(80.796 106.362)">
        <g id="Groupe_39529" data-name="Groupe 39529" transform="translate(0 2.752)">
          <path id="Tracé_34524" data-name="Tracé 34524" d="M272.21,450.5c-1.173,1.048-6.532,2.545-6.156,3.442s3.047,1.206,4.725.474c0,0-3.96,1.02-3.684,2.052s2.509.811,4.438.159c0,0-2.808,1.144-2.532,2.175s3.088.305,4.484-.325c0,0-2.736,1.186-2.2,2.152s5.354-.663,8.042-2.205,7.552-6.53,6.24-8.827-7.762-4.3-12.273-3.377-6.068,1.668-4.962,2.839S273.418,449.424,272.21,450.5Z" transform="translate(-266.035 -416.99)" fill="#ffaf8e"/>
          <path id="Tracé_34525" data-name="Tracé 34525" d="M320.423,376.958c1.24,5.1,4.193,13.987-2.193,23.144-5.851,8.389-22.859,17.083-22.859,17.083s-9.116-3.945-9.748-12.089c0,0,14.483-7.439,21.075-12.051,3.62-2.532,8.675-7.351,8.987-10.471Z" transform="translate(-277.393 -376.958)" fill="#5a3082"/>
        </g>
        <g id="Groupe_39533" data-name="Groupe 39533" transform="translate(11.33)">
          <g id="Groupe_39530" data-name="Groupe 39530" transform="translate(0 19.152)" opacity="0.4" style="mix-blend-mode: overlay;isolation: isolate">
            <path id="Tracé_34526" data-name="Tracé 34526" d="M352.305,418.52a2.093,2.093,0,0,0,1.073-1.543c.143-1.094-1.038-1.242-1.589-.6a2.049,2.049,0,0,0-.363,1.58,1.917,1.917,0,0,0-1.349-1.5c-1.251-.453-1.691,1.36-.111,2.155a1.961,1.961,0,0,0-1.746.774c-.587.9.962,1.864,2.071.474,0,0-.161,1.931,1.22,1.9,1.449-.033.54-2.089.54-2.089s1.12,1.332,1.9.4C354.675,419.215,353.592,418.284,352.305,418.52Z" transform="translate(-324.949 -415.995)" fill="#fff"/>
            <path id="Tracé_34527" data-name="Tracé 34527" d="M296.23,446.672a2.1,2.1,0,0,0-.829-1.688c-.888-.656-1.589.3-1.3,1.1a2.049,2.049,0,0,0,1.206,1.084,1.917,1.917,0,0,0-1.962.453c-1,.874.369,2.138,1.83,1.143a1.963,1.963,0,0,0-.171,1.9c.5.949,2.1.063,1.42-1.581,0,0,1.61,1.078,2.253-.145.674-1.283-1.565-1.486-1.565-1.486s1.708-.332,1.273-1.469C297.988,444.937,296.648,445.432,296.23,446.672Z" transform="translate(-293.005 -432.679)" fill="#fff"/>
          </g>
          <g id="Groupe_39531" data-name="Groupe 39531" transform="translate(7.082 8.368)" opacity="0.2" style="mix-blend-mode: multiply;isolation: isolate">
            <path id="Tracé_34528" data-name="Tracé 34528" d="M336.133,428.525s-3.384-.535-3.318,3.661A3.021,3.021,0,0,0,336.133,428.525Z" transform="translate(-323.172 -412.464)" fill="#5a3082"/>
            <path id="Tracé_34529" data-name="Tracé 34529" d="M315.131,459.3s-1.534-3.063-4.908-.568A3.021,3.021,0,0,0,315.131,459.3Z" transform="translate(-310.072 -429.423)" fill="#5a3082"/>
            <path id="Tracé_34530" data-name="Tracé 34530" d="M363.32,395.231s3.073-1.514.6-4.9A3.021,3.021,0,0,0,363.32,395.231Z" transform="translate(-340.267 -390.326)" fill="#5a3082"/>
            <path id="Tracé_34531" data-name="Tracé 34531" d="M311.605,432.766s-3.175,1.287-.954,4.848A3.021,3.021,0,0,0,311.605,432.766Z" transform="translate(-309.863 -414.936)" fill="#5a3082"/>
          </g>
          <g id="Groupe_39532" data-name="Groupe 39532" transform="translate(12.147)" opacity="0.2" style="mix-blend-mode: overlay;isolation: isolate">
            <path id="Tracé_34532" data-name="Tracé 34532" d="M350.861,406.149a.736.736,0,1,1-.715.756A.75.75,0,0,1,350.861,406.149Z" transform="translate(-338.287 -391.133)" fill="#fff"/>
            <path id="Tracé_34533" data-name="Tracé 34533" d="M357.778,370.409a.736.736,0,1,1-.715.756A.751.751,0,0,1,357.778,370.409Z" transform="translate(-342.299 -370.408)" fill="#fff"/>
            <path id="Tracé_34534" data-name="Tracé 34534" d="M322.633,438.537a.736.736,0,1,1-.715.756A.751.751,0,0,1,322.633,438.537Z" transform="translate(-321.919 -409.914)" fill="#fff"/>
            <path id="Tracé_34535" data-name="Tracé 34535" d="M335.372,447.911a.736.736,0,1,1-.715.756A.751.751,0,0,1,335.372,447.911Z" transform="translate(-329.306 -415.35)" fill="#fff"/>
          </g>
        </g>
      </g>
    </g>
  </g>
</svg>
