<svg xmlns="http://www.w3.org/2000/svg" xmlns:xlink="http://www.w3.org/1999/xlink" width="154.378" height="154.413" viewBox="0 0 154.378 154.413">
  <defs>
    <linearGradient id="linear-gradient" x1="0.738" y1="1.352" x2="0.04" y2="0.746" gradientUnits="objectBoundingBox">
      <stop offset="0" stop-color="#b37cff"/>
      <stop offset="1" stop-color="#f895e7"/>
    </linearGradient>
    <linearGradient id="linear-gradient-2" x1="0.337" y1="0.997" x2="-1.015" y2="0.244" gradientUnits="objectBoundingBox">
      <stop offset="0" stop-color="#cb236d"/>
      <stop offset="1" stop-color="#4c246d"/>
    </linearGradient>
    <linearGradient id="linear-gradient-3" x1="-0.255" y1="1.06" x2="0.447" y2="-0.121" gradientUnits="objectBoundingBox">
      <stop offset="0" stop-color="#a737d5"/>
      <stop offset="1" stop-color="#ef497a"/>
    </linearGradient>
    <linearGradient id="linear-gradient-4" x1="-0.301" y1="1.01" x2="0.333" y2="0.103" xlink:href="#linear-gradient-3"/>
    <linearGradient id="linear-gradient-5" x1="0.533" y1="-0.219" x2="1.852" y2="1.397" gradientUnits="objectBoundingBox">
      <stop offset="0" stop-color="#fdf53f"/>
      <stop offset="1" stop-color="#d93c65"/>
    </linearGradient>
    <linearGradient id="linear-gradient-6" x1="0.308" y1="-0.204" x2="2.133" y2="0.798" xlink:href="#linear-gradient-5"/>
    <linearGradient id="linear-gradient-7" x1="0.118" y1="-0.189" x2="2.075" y2="0.365" xlink:href="#linear-gradient-5"/>
    <linearGradient id="linear-gradient-8" x1="0.879" y1="-0.148" x2="1.247" y2="1.882" xlink:href="#linear-gradient-5"/>
    <linearGradient id="linear-gradient-9" x1="1.091" y1="0.012" x2="0.836" y2="2.043" xlink:href="#linear-gradient-5"/>
    <linearGradient id="linear-gradient-10" x1="-0.609" y1="0.929" x2="0.062" y2="0.15" xlink:href="#linear-gradient-5"/>
    <linearGradient id="linear-gradient-11" x1="1.354" y1="0.244" x2="-0.698" y2="3.343" xlink:href="#linear-gradient-5"/>
    <linearGradient id="linear-gradient-12" x1="1.278" y1="0.351" x2="-2.576" y2="5.491" xlink:href="#linear-gradient-5"/>
    <linearGradient id="linear-gradient-13" x1="1.282" y1="-0.195" x2="-0.6" y2="5.41" xlink:href="#linear-gradient-5"/>
    <linearGradient id="linear-gradient-14" y1="-0.015" x2="1" y2="-0.015" gradientUnits="objectBoundingBox">
      <stop offset="0" stop-color="#f9b776"/>
      <stop offset="1" stop-color="#f47960"/>
    </linearGradient>
    <linearGradient id="linear-gradient-15" x1="14.882" y1="-64.85" x2="13.552" y2="-58.57" gradientUnits="objectBoundingBox">
      <stop offset="0" stop-color="#53d8ff"/>
      <stop offset="1" stop-color="#3840f7"/>
    </linearGradient>
    <linearGradient id="linear-gradient-16" x1="2.386" y1="-8.621" x2="-0.598" y2="10.813" xlink:href="#linear-gradient-15"/>
    <linearGradient id="linear-gradient-17" x1="1.314" y1="-0.786" x2="0.81" y2="2.432" xlink:href="#linear-gradient-14"/>
    <linearGradient id="linear-gradient-18" x1="1.343" y1="-2.109" x2="-1.17" y2="20.935" xlink:href="#linear-gradient-15"/>
    <linearGradient id="linear-gradient-19" x1="10.76" y1="-72.561" x2="9.832" y2="-65.476" xlink:href="#linear-gradient-15"/>
    <linearGradient id="linear-gradient-20" x1="1.257" y1="-0.178" x2="0.747" y2="2.562" xlink:href="#linear-gradient-14"/>
    <linearGradient id="linear-gradient-21" x1="2.663" y1="-0.076" x2="0.246" y2="1.458" gradientUnits="objectBoundingBox">
      <stop offset="0" stop-color="#2b3582"/>
      <stop offset="1" stop-color="#150e42"/>
    </linearGradient>
    <linearGradient id="linear-gradient-22" x1="1.019" y1="0.164" x2="0.801" y2="2.166" xlink:href="#linear-gradient-15"/>
    <linearGradient id="linear-gradient-23" x1="1.231" y1="-0.097" x2="0.486" y2="2.772" xlink:href="#linear-gradient-14"/>
    <linearGradient id="linear-gradient-24" x1="0.902" y1="0.195" x2="1.171" y2="1.612" xlink:href="#linear-gradient-14"/>
    <linearGradient id="linear-gradient-25" x1="-0.144" y1="0.484" x2="0.458" y2="-0.057" xlink:href="#linear-gradient-21"/>
    <linearGradient id="linear-gradient-26" x1="0.085" y1="3.212" x2="-0.035" y2="0.377" xlink:href="#linear-gradient-14"/>
    <linearGradient id="linear-gradient-27" x1="5.812" y1="-0.524" x2="-0.565" y2="1.33" xlink:href="#linear-gradient-15"/>
    <linearGradient id="linear-gradient-28" x1="1.834" y1="-0.502" x2="0.918" y2="1.192" xlink:href="#linear-gradient-21"/>
    <linearGradient id="linear-gradient-29" x1="1.01" y1="0.345" x2="0.748" y2="4.553" xlink:href="#linear-gradient-15"/>
    <linearGradient id="linear-gradient-30" x1="2.005" y1="-1.133" x2="-1.195" y2="3.7" xlink:href="#linear-gradient-14"/>
    <linearGradient id="linear-gradient-31" x1="1.773" y1="-0.546" x2="-1.352" y2="5.483" xlink:href="#linear-gradient-14"/>
    <linearGradient id="linear-gradient-32" x1="1.294" y1="-0.192" x2="0.419" y2="2.212" xlink:href="#linear-gradient-15"/>
    <linearGradient id="linear-gradient-33" x1="1.226" y1="0.03" x2="0.754" y2="0.878" xlink:href="#linear-gradient-14"/>
    <linearGradient id="linear-gradient-34" x1="1.239" y1="0.169" x2="0.264" y2="3.345" xlink:href="#linear-gradient-15"/>
    <linearGradient id="linear-gradient-35" x1="0" y1="-0.004" x2="0.991" y2="-0.004" xlink:href="#linear-gradient-14"/>
    <linearGradient id="linear-gradient-36" x1="2.115" y1="-5.519" x2="0.917" y2="0.621" xlink:href="#linear-gradient-15"/>
    <linearGradient id="linear-gradient-37" x1="1.937" y1="-14.522" x2="1.078" y2="-0.627" xlink:href="#linear-gradient-15"/>
    <linearGradient id="linear-gradient-38" x1="0" y1="-0.005" x2="1" y2="-0.005" xlink:href="#linear-gradient-14"/>
    <linearGradient id="linear-gradient-39" x1="0.012" y1="-0.004" x2="1" y2="-0.004" xlink:href="#linear-gradient-14"/>
    <linearGradient id="linear-gradient-40" x1="-1.391" y1="1.004" x2="0.377" y2="-0.15" xlink:href="#linear-gradient-15"/>
    <linearGradient id="linear-gradient-41" x1="0.215" y1="-0.296" x2="1.793" y2="0.809" xlink:href="#linear-gradient-21"/>
    <linearGradient id="linear-gradient-42" x1="0.006" y1="-0.021" x2="1" y2="-0.021" xlink:href="#linear-gradient-14"/>
    <linearGradient id="linear-gradient-43" x1="0.985" y1="0.009" x2="4.576" y2="0.257" xlink:href="#linear-gradient-14"/>
    <linearGradient id="linear-gradient-44" x1="1.316" y1="0.34" x2="0.649" y2="1.202" xlink:href="#linear-gradient-21"/>
  </defs>
  <g id="Illustration" transform="translate(0 0)">
    <g id="_Group_" data-name="&lt;Group&gt;" transform="translate(0 0)">
      <path id="_Path_" data-name="&lt;Path&gt;" d="M187.816,103.7c-14.754,34.739-54.054,54.2-88.135,48.95-5.546-.854-20.749-3.4-34.21-15.4C39.558,114.137,34.016,68.378,54.919,36.131,70.133,12.661,97.405-.644,123.32.022c5.582.143,26.974,1.027,45.774,16.529a70.513,70.513,0,0,1,14.341,16.272C196.323,52.978,197.431,81.059,187.816,103.7Z" transform="translate(-39.812 0.002)" opacity="0.302" fill="url(#linear-gradient)"/>
      <g id="_Group_2" data-name="&lt;Group&gt;" transform="translate(0 1.453)">
        <g id="_Group_3" data-name="&lt;Group&gt;" transform="translate(0 20.605)">
          <path id="_Path_2" data-name="&lt;Path&gt;" d="M6.4,400.742a.959.959,0,0,1,1.861-.049c2.546,9.3,9.987,33.479,21.59,46.357,18.892,20.969,31.34,54.905,19.043,72.364Q-17.168,506.83,6.4,400.742Z" transform="translate(-0.2 -399.991)" fill="url(#linear-gradient-2)"/>
          <path id="_Path_3" data-name="&lt;Path&gt;" d="M144.253,650.966c.022.3.064.553.1.822l.116.792.249,1.581c.173,1.052.362,2.1.551,3.151q.578,3.146,1.229,6.278c.87,4.176,1.852,8.327,2.9,12.463s2.194,8.246,3.435,12.328,2.548,8.146,3.985,12.166a204.837,204.837,0,0,0,9.994,23.573c1.96,3.795,4.021,7.54,6.295,11.158a110.82,110.82,0,0,0,7.449,10.415.168.168,0,0,0,.265-.207v0a123.823,123.823,0,0,1-7.12-10.57c-2.2-3.634-4.191-7.393-6.08-11.2s-3.619-7.69-5.264-11.609-3.123-7.907-4.581-11.9c-2.881-8-5.333-16.155-7.56-24.367q-1.657-6.164-3.075-12.389-.716-3.11-1.368-6.235l-.624-3.13-.3-1.567-.139-.785c-.042-.258-.09-.534-.117-.761l0-.037a.167.167,0,0,0-.332.031Z" transform="translate(-136.309 -636.957)" fill="#fff" opacity="0.431"/>
        </g>
        <g id="_Group_4" data-name="&lt;Group&gt;" transform="translate(14.772)">
          <path id="_Path_4" data-name="&lt;Path&gt;" d="M291.795,26.821a.918.918,0,0,1,1.719.463c-.2,9.224.026,33.426,7.153,48.4,11.605,24.383,13.762,58.9-2.277,71.556Q241.243,117.68,291.795,26.821Z" transform="translate(-268.067 -26.348)" fill="url(#linear-gradient-3)"/>
          <path id="_Path_5" data-name="&lt;Path&gt;" d="M621.423,261.853c-.063.285-.093.524-.135.781l-.11.758-.2,1.518c-.128,1.012-.242,2.026-.355,3.04q-.328,3.043-.587,6.093c-.343,4.067-.574,8.142-.745,12.22s-.238,8.161-.214,12.243.115,8.166.335,12.244a195.763,195.763,0,0,0,2.736,24.344c.763,4.015,1.631,8.012,2.73,11.951a106.171,106.171,0,0,0,3.993,11.583.164.164,0,0,0,.3-.12v0a118.567,118.567,0,0,1-3.643-11.637c-1.027-3.933-1.826-7.923-2.519-11.927s-1.221-8.039-1.66-12.081-.706-8.1-.953-12.163c-.459-8.124-.484-16.27-.287-24.408q.16-6.1.558-12.2.191-3.048.445-6.092l.281-3.04.155-1.518.086-.758c.033-.248.063-.515.1-.73l.007-.036a.163.163,0,0,0-.319-.063Z" transform="translate(-599.711 -248.746)" fill="#fff" opacity="0.431"/>
        </g>
      </g>
      <g id="_Group_5" data-name="&lt;Group&gt;" transform="translate(93.987 26.037)">
        <path id="_Path_6" data-name="&lt;Path&gt;" d="M1704.49,593.981q8.617-75.568,41.019-119.891a4.912,4.912,0,0,1,8.395.93C1763.608,497.672,1785.607,567.214,1704.49,593.981Z" transform="translate(-1704.49 -472.136)" fill="url(#linear-gradient-4)"/>
        <path id="_Path_7" data-name="&lt;Path&gt;" d="M1830.885,1002.606c-.164.2.119.446.31.273,7.02-6.389,33.413-36.872,37.448-92.193a.147.147,0,0,0-.291-.038C1866.221,923.6,1856.859,971.551,1830.885,1002.606Z" transform="translate(-1823.868 -886.357)" fill="#fff" opacity="0.502"/>
      </g>
      <g id="_Group_6" data-name="&lt;Group&gt;" transform="translate(21.296 4.457)">
        <g id="_Group_7" data-name="&lt;Group&gt;" transform="translate(46.836)">
          <path id="_Path_8" data-name="&lt;Path&gt;" d="M1265.209,93.175,1260,98.462a1.756,1.756,0,0,0-.474,1.563l1.4,7.293a1.755,1.755,0,0,1-2.509,1.9l-6.64-3.324a1.753,1.753,0,0,0-1.632.033l-6.5,3.586a1.755,1.755,0,0,1-2.582-1.8l1.109-7.342a1.757,1.757,0,0,0-.535-1.543l-5.42-5.076a1.755,1.755,0,0,1,.912-3.012l7.326-1.214a1.755,1.755,0,0,0,1.3-.986l3.153-6.723a1.754,1.754,0,0,1,3.146-.062l3.418,6.592a1.753,1.753,0,0,0,1.34.933l7.368.922A1.755,1.755,0,0,1,1265.209,93.175Z" transform="translate(-1235.655 -80.809)" fill="url(#linear-gradient-5)"/>
          <path id="_Path_9" data-name="&lt;Path&gt;" d="M1304.815,288.762a3.45,3.45,0,0,0-1.09.381l-4.246,2.342a1.329,1.329,0,0,1-1.956-1.362l.724-4.8a3.453,3.453,0,0,0-1.053-3.034l-3.54-3.315a1.329,1.329,0,0,1,.691-2.281l2.445-.4.062.372-2.445.405a.952.952,0,0,0-.5,1.634l3.539,3.315a3.827,3.827,0,0,1,1.169,3.366l-.724,4.8a.952.952,0,0,0,1.4.976l4.247-2.342a3.822,3.822,0,0,1,1.208-.422Z" transform="translate(-1290.058 -265.51)" fill="#fff"/>
          <path id="_Path_10" data-name="&lt;Path&gt;" d="M1444.45,162.33a1.332,1.332,0,0,1-1.835.707l-3.318-1.661.169-.338,3.318,1.661a.951.951,0,0,0,1.36-1.031l-.914-4.762a3.865,3.865,0,0,1,1.033-3.41l3.4-3.454a.952.952,0,0,0-.56-1.613l-4.813-.6a3.826,3.826,0,0,1-2.923-2.037l-2.233-4.3a.952.952,0,0,0-1.707.034l-2.059,4.391a3.812,3.812,0,0,1-.879,1.2l-.255-.278a3.414,3.414,0,0,0,.791-1.078l2.059-4.391a1.329,1.329,0,0,1,2.383-.047l2.233,4.305a3.45,3.45,0,0,0,2.635,1.835l4.812.6a1.329,1.329,0,0,1,.782,2.252l-3.4,3.454a3.482,3.482,0,0,0-.931,3.074l.914,4.762A1.323,1.323,0,0,1,1444.45,162.33Z" transform="translate(-1421.399 -137.298)" fill="#fff"/>
          <path id="_Path_11" data-name="&lt;Path&gt;" d="M1359.25,272.3l-1.448.24-.062-.372,1.449-.24Z" transform="translate(-1351.007 -261.39)" fill="#fff"/>
        </g>
        <g id="_Group_8" data-name="&lt;Group&gt;" transform="translate(20.114 11.753)">
          <path id="_Path_12" data-name="&lt;Path&gt;" d="M775.75,299.745l-2.688,5.942a1.541,1.541,0,0,0,.085,1.432l3.371,5.584a1.541,1.541,0,0,1-1.49,2.328l-6.483-.72a1.54,1.54,0,0,0-1.335.523l-4.269,4.932a1.541,1.541,0,0,1-2.675-.7l-1.318-6.388a1.543,1.543,0,0,0-.91-1.109l-6.009-2.536a1.541,1.541,0,0,1-.164-2.759l5.668-3.227a1.544,1.544,0,0,0,.773-1.208l.554-6.5a1.541,1.541,0,0,1,2.574-1.008l4.821,4.393a1.541,1.541,0,0,0,1.388.362L774,297.609A1.541,1.541,0,0,1,775.75,299.745Z" transform="translate(-751.087 -293.931)" fill="url(#linear-gradient-6)"/>
          <path id="_Path_13" data-name="&lt;Path&gt;" d="M816.42,509.308a3.02,3.02,0,0,0-.783.645l-2.788,3.221a1.168,1.168,0,0,1-2.026-.528l-.861-4.172a3.032,3.032,0,0,0-1.791-2.181l-3.925-1.656a1.167,1.167,0,0,1-.124-2.09l1.892-1.077.164.288-1.892,1.077a.837.837,0,0,0,.089,1.5l3.925,1.656a3.361,3.361,0,0,1,1.986,2.419l.861,4.172a.836.836,0,0,0,1.451.378l2.788-3.221a3.342,3.342,0,0,1,.867-.715Z" transform="translate(-800.641 -490.025)" fill="#fff"/>
          <path id="_Path_14" data-name="&lt;Path&gt;" d="M917.814,358.839a1.17,1.17,0,0,1-1.3,1.14l-3.239-.36.036-.329,3.239.36a.836.836,0,0,0,.808-1.263l-2.2-3.646a3.394,3.394,0,0,1-.185-3.124l1.756-3.881a.836.836,0,0,0-.952-1.159l-4.149.967a3.359,3.359,0,0,1-3.027-.789l-3.149-2.869a.837.837,0,0,0-1.4.547l-.362,4.245a3.34,3.34,0,0,1-.36,1.252l-.294-.151a3.024,3.024,0,0,0,.324-1.129l.362-4.245a1.168,1.168,0,0,1,1.949-.764l3.149,2.869a3.03,3.03,0,0,0,2.73.711l4.149-.967a1.168,1.168,0,0,1,1.329,1.618l-1.756,3.881a3.061,3.061,0,0,0,.167,2.817l2.2,3.646A1.165,1.165,0,0,1,917.814,358.839Z" transform="translate(-894.66 -340.609)" fill="#fff"/>
          <path id="_Path_15" data-name="&lt;Path&gt;" d="M849.814,490.188l-1.121.638-.164-.288,1.12-.638Z" transform="translate(-843.156 -479.093)" fill="#fff"/>
        </g>
        <g id="_Group_9" data-name="&lt;Group&gt;" transform="translate(0 30.449)">
          <path id="_Path_16" data-name="&lt;Path&gt;" d="M407.425,634.769l-1.092,6.147a1.475,1.475,0,0,0,.417,1.308l4.444,4.384a1.475,1.475,0,0,1-.832,2.512l-6.184.861a1.475,1.475,0,0,0-1.115.8l-2.8,5.582a1.475,1.475,0,0,1-2.645-.015l-2.729-5.615a1.476,1.476,0,0,0-1.106-.814l-6.173-.934a1.475,1.475,0,0,1-.8-2.521l4.5-4.331a1.474,1.474,0,0,0,.432-1.3l-1.019-6.159a1.475,1.475,0,0,1,2.15-1.542l5.508,2.938a1.476,1.476,0,0,0,1.373.008l5.543-2.873A1.475,1.475,0,0,1,407.425,634.769Z" transform="translate(-386.358 -632.95)" fill="url(#linear-gradient-7)"/>
          <path id="_Path_17" data-name="&lt;Path&gt;" d="M447.938,847.976a2.893,2.893,0,0,0-.574.783l-1.826,3.645a1.118,1.118,0,0,1-2-.011l-1.783-3.667a2.9,2.9,0,0,0-2.176-1.6l-4.031-.61a1.117,1.117,0,0,1-.608-1.91l1.5-1.445.22.228-1.5,1.445a.8.8,0,0,0,.435,1.368l4.032.61a3.219,3.219,0,0,1,2.413,1.775l1.783,3.667a.8.8,0,0,0,1.436.009l1.826-3.645a3.207,3.207,0,0,1,.636-.868Z" transform="translate(-431.934 -831.568)" fill="#fff"/>
          <path id="_Path_18" data-name="&lt;Path&gt;" d="M513.61,686.428a1.119,1.119,0,0,1-.935,1.364l-3.089.431-.044-.314,3.089-.43a.8.8,0,0,0,.452-1.363l-2.9-2.863a3.249,3.249,0,0,1-.909-2.854l.713-4.014a.8.8,0,0,0-1.156-.851l-3.62,1.876a3.216,3.216,0,0,1-3-.018l-3.6-1.918a.8.8,0,0,0-1.166.837l.666,4.023a3.192,3.192,0,0,1-.039,1.246l-.309-.071a2.876,2.876,0,0,0,.035-1.123l-.665-4.023a1.117,1.117,0,0,1,1.628-1.168l3.6,1.918a2.9,2.9,0,0,0,2.7.016l3.62-1.876a1.118,1.118,0,0,1,1.615,1.188l-.713,4.014a2.927,2.927,0,0,0,.819,2.573l2.9,2.863A1.114,1.114,0,0,1,513.61,686.428Z" transform="translate(-491.013 -672.738)" fill="#fff"/>
          <path id="_Path_19" data-name="&lt;Path&gt;" d="M469.119,827.858l-.889.856-.22-.228.89-.856Z" transform="translate(-463.507 -816.894)" fill="#fff"/>
        </g>
        <g id="_Group_10" data-name="&lt;Group&gt;" transform="translate(76.97 12.201)">
          <path id="_Path_20" data-name="&lt;Path&gt;" d="M1806.1,317.435l-6.016,1.666a1.476,1.476,0,0,0-1,.94l-2.038,5.9a1.475,1.475,0,0,1-2.625.332l-3.444-5.207a1.476,1.476,0,0,0-1.2-.661l-6.242-.115a1.475,1.475,0,0,1-1.126-2.393l3.888-4.884a1.476,1.476,0,0,0,.257-1.348l-1.819-5.972a1.475,1.475,0,0,1,1.928-1.811l5.847,2.188a1.475,1.475,0,0,0,1.362-.172l5.118-3.576a1.475,1.475,0,0,1,2.318,1.274l-.275,6.237a1.476,1.476,0,0,0,.585,1.242l4.983,3.762A1.475,1.475,0,0,1,1806.1,317.435Z" transform="translate(-1782.081 -302.053)" fill="url(#linear-gradient-8)"/>
          <path id="_Path_21" data-name="&lt;Path&gt;" d="M1834.347,385.154a2.9,2.9,0,0,0-.954-.18l-4.076-.075a1.117,1.117,0,0,1-.854-1.813L1831,379.9a2.9,2.9,0,0,0,.506-2.653l-1.189-3.9a1.118,1.118,0,0,1,1.461-1.372l1.951.73-.111.3-1.951-.73a.8.8,0,0,0-1.047.983l1.188,3.9a3.216,3.216,0,0,1-.561,2.943l-2.539,3.19a.8.8,0,0,0,.611,1.3l4.076.075a3.223,3.223,0,0,1,1.058.2Z" transform="translate(-1825.675 -368.047)" fill="#fff"/>
          <path id="_Path_22" data-name="&lt;Path&gt;" d="M1977.9,366.353a1.119,1.119,0,0,1-1.634-.255l-1.721-2.6.265-.175,1.721,2.6a.8.8,0,0,0,1.424-.18l1.332-3.853a3.248,3.248,0,0,1,2.183-2.052l3.929-1.088a.8.8,0,0,0,.269-1.41l-3.254-2.457a3.217,3.217,0,0,1-1.275-2.71l.178-4.074a.8.8,0,0,0-1.258-.691l-3.342,2.335a3.2,3.2,0,0,1-1.141.5l-.069-.309a2.881,2.881,0,0,0,1.029-.453l3.343-2.335a1.117,1.117,0,0,1,1.756.965l-.179,4.074a2.9,2.9,0,0,0,1.15,2.443l3.254,2.457a1.118,1.118,0,0,1-.376,1.969l-3.929,1.088a2.928,2.928,0,0,0-1.968,1.849l-1.332,3.854A1.115,1.115,0,0,1,1977.9,366.353Z" transform="translate(-1963.936 -344.469)" fill="#fff"/>
          <path id="_Path_23" data-name="&lt;Path&gt;" d="M1927.326,387.17l-1.156-.433.111-.3,1.156.433Z" transform="translate(-1918.224 -381.786)" fill="#fff"/>
        </g>
        <g id="_Group_11" data-name="&lt;Group&gt;" transform="translate(96.637 28.341)">
          <path id="_Path_24" data-name="&lt;Path&gt;" d="M2162.087,613.815l-6.239-.221a1.474,1.474,0,0,0-1.237.6l-3.719,5.015a1.475,1.475,0,0,1-2.6-.473l-1.717-6a1.475,1.475,0,0,0-.948-.993l-5.918-1.987a1.475,1.475,0,0,1-.355-2.622l5.178-3.488a1.477,1.477,0,0,0,.651-1.209l.062-6.243a1.475,1.475,0,0,1,2.384-1.148l4.917,3.846a1.478,1.478,0,0,0,1.351.245l5.956-1.871a1.475,1.475,0,0,1,1.828,1.913l-2.138,5.865a1.475,1.475,0,0,0,.184,1.361l3.62,5.087A1.475,1.475,0,0,1,2162.087,613.815Z" transform="translate(-2138.699 -594.723)" fill="url(#linear-gradient-9)"/>
          <path id="_Path_25" data-name="&lt;Path&gt;" d="M2194.065,654.285a2.873,2.873,0,0,0-.855-.458l-3.865-1.3a1.117,1.117,0,0,1-.268-1.986l3.381-2.278a2.9,2.9,0,0,0,1.28-2.378l.041-4.077a1.118,1.118,0,0,1,1.806-.869l1.641,1.283-.2.25-1.641-1.283a.8.8,0,0,0-1.294.623l-.04,4.077a3.22,3.22,0,0,1-1.42,2.638l-3.381,2.278a.8.8,0,0,0,.191,1.422l3.865,1.3a3.209,3.209,0,0,1,.949.508Z" transform="translate(-2185.833 -638.166)" fill="#fff"/>
          <path id="_Path_26" data-name="&lt;Path&gt;" d="M2313.439,694a1.12,1.12,0,0,1-1.48-.734l-.858-3,.3-.087.858,3a.8.8,0,0,0,1.413.256l2.429-3.275a3.25,3.25,0,0,1,2.7-1.3l4.075.145a.8.8,0,0,0,.681-1.264l-2.364-3.322a3.215,3.215,0,0,1-.4-2.968l1.4-3.831a.8.8,0,0,0-.991-1.038l-3.891,1.222a3.206,3.206,0,0,1-1.239.136l.027-.316a2.882,2.882,0,0,0,1.118-.122l3.89-1.222a1.118,1.118,0,0,1,1.385,1.449l-1.4,3.83a2.9,2.9,0,0,0,.361,2.676l2.364,3.323a1.118,1.118,0,0,1-.95,1.765l-4.075-.145a2.928,2.928,0,0,0-2.434,1.171l-2.428,3.274A1.124,1.124,0,0,1,2313.439,694Z" transform="translate(-2301.593 -671.734)" fill="#fff"/>
          <path id="_Path_27" data-name="&lt;Path&gt;" d="M2342.732,669.3l-.972-.76.2-.25.972.761Z" transform="translate(-2330.562 -664.233)" fill="#fff"/>
        </g>
      </g>
      <g id="_Group_12" data-name="&lt;Group&gt;" transform="translate(27.419 42.614)">
        <path id="_Path_28" data-name="&lt;Path&gt;" d="M607.437,827.744a55.024,55.024,0,1,1-55.023-55.024A55.024,55.024,0,0,1,607.437,827.744Z" transform="translate(-497.39 -772.72)" fill="url(#linear-gradient-10)"/>
        <path id="_Path_29" data-name="&lt;Path&gt;" d="M636.958,859.094A53.194,53.194,0,1,1,583.764,805.9,53.194,53.194,0,0,1,636.958,859.094Z" transform="translate(-528.74 -804.07)" fill="url(#linear-gradient-11)"/>
        <path id="_Path_30" data-name="&lt;Path&gt;" d="M597.332,1609.42h-.026a.5.5,0,0,1-.477-.529,50.006,50.006,0,0,1,.721-6.232.5.5,0,1,1,.992.179,48.909,48.909,0,0,0-.706,6.1A.5.5,0,0,1,597.332,1609.42Z" transform="translate(-591.344 -1556.499)" fill="#fff"/>
        <path id="_Path_31" data-name="&lt;Path&gt;" d="M691.132,898.944a.5.5,0,0,1-.226-.054.5.5,0,0,1-.223-.676A49.4,49.4,0,0,1,735,870.93a50.093,50.093,0,0,1,8.949.805.5.5,0,1,1-.18.991,49.065,49.065,0,0,0-8.768-.788,48.4,48.4,0,0,0-43.414,26.73A.505.505,0,0,1,691.132,898.944Z" transform="translate(-679.972 -865.514)" fill="#fff"/>
        <path id="_Path_32" data-name="&lt;Path&gt;" d="M789.8,1020.122A45.022,45.022,0,1,1,744.782,975.1,45.022,45.022,0,0,1,789.8,1020.122Z" transform="translate(-688.6 -963.939)" fill="#fff" opacity="0.78"/>
        <path id="_Path_33" data-name="&lt;Path&gt;" d="M1293.127,1259.732c0,7.623-6.18,15.853-13.8,15.853s-13.8-8.23-13.8-15.853,6.18-13.032,13.8-13.032S1293.127,1252.108,1293.127,1259.732Z" transform="translate(-1223.16 -1220.562)" fill="url(#linear-gradient-12)"/>
        <path id="_Path_34" data-name="&lt;Path&gt;" d="M1041.476,1875.244h33.7a8.156,8.156,0,0,0,7.769-5.671l1.813-5.667a8.148,8.148,0,0,0-4.923-10.138c-13.713-5.014-27.893-4.371-42.419.463a8.122,8.122,0,0,0-5.2,9.846l1.4,5.147A8.156,8.156,0,0,0,1041.476,1875.244Z" transform="translate(-1002.443 -1790.869)" fill="url(#linear-gradient-13)"/>
      </g>
      <g id="_Group_13" data-name="&lt;Group&gt;" transform="translate(15.13 81.939)">
        <path id="_Path_35" data-name="&lt;Path&gt;" d="M327.578,2019.58a11.068,11.068,0,0,1-2.568,1.877,21.336,21.336,0,0,0,4.694,4.174l.58,1.3,1.861-2.23A8.84,8.84,0,0,1,327.578,2019.58Z" transform="translate(-322.227 -1990.144)" fill="url(#linear-gradient-14)"/>
        <path id="_Path_36" data-name="&lt;Path&gt;" d="M460.451,2717.948a.45.45,0,0,0-.013-.121,6.161,6.161,0,0,0-3.593-3.877l-1.185.093a8.216,8.216,0,0,0-.484,3.972.449.449,0,0,0,.012.047A28.18,28.18,0,0,0,460.451,2717.948Z" transform="translate(-445.144 -2646.222)" fill="url(#linear-gradient-15)"/>
        <path id="_Path_37" data-name="&lt;Path&gt;" d="M456.68,2786.564a.516.516,0,0,0,.376.381,16.272,16.272,0,0,0,4.529-.065.431.431,0,0,0,.358-.429A28.207,28.207,0,0,1,456.68,2786.564Z" transform="translate(-446.636 -2714.724)" fill="url(#linear-gradient-16)"/>
        <path id="_Path_38" data-name="&lt;Path&gt;" d="M456.6,2683.63l.5,2.417a.4.4,0,0,0,.338.325,3.367,3.367,0,0,0,.778-.012.5.5,0,0,0,.393-.583l-.349-2.146Z" transform="translate(-446.56 -2617.573)" fill="url(#linear-gradient-17)"/>
        <path id="_Path_39" data-name="&lt;Path&gt;" d="M605.163,2782.363a7.064,7.064,0,0,1-2.336-.333c0,.13,0,.263,0,.4a.258.258,0,0,0,.247.263l7.187-.047a.328.328,0,0,0,.264-.477C609.586,2782.246,607.186,2782.42,605.163,2782.363Z" transform="translate(-584.723 -2710.547)" fill="url(#linear-gradient-18)"/>
        <path id="_Path_40" data-name="&lt;Path&gt;" d="M610.532,2724.211a.35.35,0,0,0-.029-.054,9.155,9.155,0,0,0-5.446-3.419l-1.532-.048a6.946,6.946,0,0,0-.7,3.383,7.079,7.079,0,0,0,2.336.333C607.189,2724.463,609.589,2724.289,610.532,2724.211Z" transform="translate(-584.726 -2652.59)" fill="url(#linear-gradient-19)"/>
        <path id="_Path_41" data-name="&lt;Path&gt;" d="M610.29,2672.211c.017.115.227,1.851.308,2.524a.333.333,0,0,0,.281.3,3.506,3.506,0,0,0,1.052-.016.453.453,0,0,0,.344-.455v-2.725Z" transform="translate(-591.775 -2606.434)" fill="url(#linear-gradient-20)"/>
        <path id="_Path_42" data-name="&lt;Path&gt;" d="M421.166,2104.08A123.013,123.013,0,0,1,424.8,2135.8a.683.683,0,0,1-.543.666,7.912,7.912,0,0,1-1.713.2.635.635,0,0,1-.6-.53c-.518-3.039-3.492-20.16-5.187-22.94a212.8,212.8,0,0,0-.759,23.159.375.375,0,0,1-.331.39,6.319,6.319,0,0,1-1.375,0,.5.5,0,0,1-.447-.426c-.369-2.572-2.494-17.882-2.4-28.911a11.226,11.226,0,0,1,1.645-3.326Z" transform="translate(-403.881 -2069.984)" fill="url(#linear-gradient-21)"/>
        <path id="_Path_43" data-name="&lt;Path&gt;" d="M296.977,1710.646a15.413,15.413,0,0,1-1.565-2.389c-.614-1.16-.049.751-.217-.558-4.6-3.318-11.52-1.639-14.2-1.3a3.58,3.58,0,0,0-2.26,1.213c-2.295,2.655-7.33,9.926-1.4,17.252a11.052,11.052,0,0,0,2.568-1.877,9.055,9.055,0,0,1,.665-7.107,6.685,6.685,0,0,0,.175.68,42.137,42.137,0,0,1,1.991,12.145.38.38,0,0,0,.239.355c2.493,1,7.291.4,8.9.164a.542.542,0,0,0,.453-.615c-.79-5.727,3.266-15.149,4.338-17.508A1.57,1.57,0,0,1,296.977,1710.646Z" transform="translate(-274.552 -1693.549)" fill="url(#linear-gradient-22)"/>
        <path id="_Path_44" data-name="&lt;Path&gt;" d="M461.32,1628.978l-.48,4.908a5.25,5.25,0,0,0,4.77-.586l-1.412-4.461Z" transform="translate(-450.567 -1620.952)" fill="url(#linear-gradient-23)"/>
        <g id="_Group_14" data-name="&lt;Group&gt;" transform="translate(8.503)">
          <path id="_Path_45" data-name="&lt;Path&gt;" d="M465.091,1525.552q.066.063,2.8,5.439l-3.1,1.5-3.352-4.711Q463.979,1524.5,465.091,1525.552Z" transform="translate(-459.636 -1523.121)" fill="url(#linear-gradient-24)"/>
          <path id="_Path_46" data-name="&lt;Path&gt;" d="M431.913,1490.6a.5.5,0,0,0,.038.435l1.547,2.58a.5.5,0,0,0,.085.105.812.812,0,0,0,1.3-.009,4.356,4.356,0,0,1,1.223-1.322.5.5,0,0,1,.668.22,18.519,18.519,0,0,1,1.059,2.513.493.493,0,0,1-.287.6,13.764,13.764,0,0,1-2.973.867.494.494,0,0,1-.468-.2c-.474-.65-1.811-2.465-2.267-2.92-.424-.422-1.206-.262-1.558-.161a.5.5,0,0,1-.4-.052,1.091,1.091,0,0,1-.41-1.66.5.5,0,0,0-.153-.673,1.094,1.094,0,0,1-.42-1.553,1.544,1.544,0,0,1,1.672-.819.515.515,0,0,0,.539-.3.326.326,0,0,1,.255-.2.481.481,0,0,0,.389-.565,1.268,1.268,0,0,1,.708-1.453c1.339-.736,2.512.463,2.81,1.476s-1.2,1.728-2.141,1.848C432.446,1489.454,432.066,1490.209,431.913,1490.6Z" transform="translate(-428.737 -1485.814)" fill="url(#linear-gradient-25)"/>
          <path id="_Path_47" data-name="&lt;Path&gt;" d="M456.865,1613.18q-.595-1.742-1.357-1.679c-.763.064-1.362.823-.417,1.677Q456.265,1614.241,456.865,1613.18Z" transform="translate(-453.179 -1604.568)" fill="url(#linear-gradient-26)"/>
        </g>
        <path id="_Path_48" data-name="&lt;Path&gt;" d="M367.012,1778a15.531,15.531,0,0,1-.636-6.1l.277.032a15.229,15.229,0,0,0,.622,5.975Z" transform="translate(-361.248 -1756.123)" fill="url(#linear-gradient-27)"/>
        <path id="_Path_49" data-name="&lt;Path&gt;" d="M456.9,2213.922a.138.138,0,0,1-.135-.1c-.307-1.181-2.6-2.481-2.625-2.494a.139.139,0,0,1,.137-.243c.1.055,2.422,1.371,2.758,2.667a.139.139,0,0,1-.1.17A.125.125,0,0,1,456.9,2213.922Z" transform="translate(-444.173 -2171.067)" fill="url(#linear-gradient-28)"/>
        <g id="_Group_15" data-name="&lt;Group&gt;" transform="translate(14.715 12.381)">
          <path id="_Path_50" data-name="&lt;Path&gt;" d="M558.423,1716.589c-5.2.78-8.589-2.5-11.114-4.491q-3.334-2.628-5.929-1.35l3.556,6.786a11.981,11.981,0,0,0,14.187,2.272A6.617,6.617,0,0,0,558.423,1716.589Z" transform="translate(-541.38 -1710.33)" fill="url(#linear-gradient-29)"/>
          <path id="_Path_51" data-name="&lt;Path&gt;" d="M857.729,1767.57,856,1768.5a15.086,15.086,0,0,1-5.584,2.175,6.616,6.616,0,0,1,.7,3.218,14.531,14.531,0,0,0,3.555-2.272Q858.581,1769.289,857.729,1767.57Z" transform="translate(-833.377 -1764.413)" fill="url(#linear-gradient-30)"/>
        </g>
        <path id="_Path_52" data-name="&lt;Path&gt;" d="M950.887,1740.237a1.27,1.27,0,0,0-.743-.813l-3.5-1.407q-.053-.449.74-.754a.93.93,0,0,0,.607-1.192q-1.083.493-2.667,1.276a3.709,3.709,0,0,0-1.684,1.834l.9,1.185a16.019,16.019,0,0,0,6.54.515Z" transform="translate(-906.742 -1722.269)" fill="url(#linear-gradient-31)"/>
      </g>
      <g id="_Group_16" data-name="&lt;Group&gt;" transform="translate(31.738 68.165)">
        <path id="_Path_53" data-name="&lt;Path&gt;" d="M591.479,1236.494c5.338,1.169,10.878,5.1,10.942,11.034.055,5.042-5.455,7.242-8.844,8.212a4.027,4.027,0,0,0-2.287,1.706c-1.266,1.983-4.089,5.38-7.865,3.849a.285.285,0,0,1,.084-.546,4.326,4.326,0,0,0,3.041-1.385,2.419,2.419,0,0,0-1.311-3.819c-3.169-.836-9.28-3.438-9.52-11.09Q575.4,1234.106,591.479,1236.494Z" transform="translate(-575.714 -1236.046)" fill="url(#linear-gradient-32)"/>
        <path id="_Path_54" data-name="&lt;Path&gt;" d="M727.443,1350.833q-.691-3.385-4.025-2.381c-3.158.951-1.555,5.233,3.354,7.456a1.8,1.8,0,0,0,1.652-.089c1.887-1.106,6.222-4.137,3.222-7.181Q729.708,1346.672,727.443,1350.833Z" transform="translate(-713.733 -1341.833)" fill="#fff"/>
        <path id="_Path_55" data-name="&lt;Path&gt;" d="M826.764,1260.031a.33.33,0,0,0,.242-.494c-2.471-4.216-7.259-5.617-10.84-6.049a.33.33,0,1,0-.079.655c3.433.415,8.016,1.745,10.35,5.727A.329.329,0,0,0,826.764,1260.031Z" transform="translate(-802.556 -1252.524)" fill="#fff"/>
        <path id="_Path_56" data-name="&lt;Path&gt;" d="M1029.079,1414.754a.33.33,0,0,0,.287-.322,7.78,7.78,0,0,0-.209-1.652.33.33,0,0,0-.644.143,7.177,7.177,0,0,1,.193,1.5.33.33,0,0,0,.325.335A.352.352,0,0,0,1029.079,1414.754Z" transform="translate(-1003.535 -1402.79)" fill="#fff"/>
      </g>
      <g id="_Group_17" data-name="&lt;Group&gt;" transform="translate(108.768 59.833)">
        <path id="_Path_57" data-name="&lt;Path&gt;" d="M2333.348,1505.63q-7.459,9.55,1.052,19.265l3.2-.3q-6.16-9.89-3.416-17.774l4.532.331,2.507-1.634Z" transform="translate(-2310.157 -1482.327)" fill="url(#linear-gradient-33)"/>
        <g id="_Group_18" data-name="&lt;Group&gt;">
          <path id="_Path_58" data-name="&lt;Path&gt;" d="M1973.7,1086.792l35.42-1.829a1.139,1.139,0,0,1,1.3.931l.8,21.449a1.148,1.148,0,0,1-1.237,1.033c-6.413.135-34.885.737-36.138.834s-1.332-17.158-1.336-21.417A1.147,1.147,0,0,1,1973.7,1086.792Z" transform="translate(-1972.51 -1084.961)" fill="url(#linear-gradient-34)"/>
          <path id="_Compound_Path_" data-name="&lt;Compound Path&gt;" d="M1991.289,1121.335l-.024-.09c-.534-1.961-.885-10.035-.895-20.568a.248.248,0,0,1,.249-.233l35.421-1.828a.277.277,0,0,1,.18.051.215.215,0,0,1,.093.169l.8,21.448a.247.247,0,0,1-.249.241h-.008c-5.1.108-30.79.65-35.473.806Zm34.766-22.484h0l-35.42,1.829a.043.043,0,0,0-.029.01c.013,10.347.351,18.313.867,20.4,4.925-.161,30.31-.7,35.381-.8h0l-.778-21.446C2026.077,1098.853,2026.069,1098.851,2026.055,1098.851Z" transform="translate(-1989.385 -1097.862)" fill="#fff" fill-rule="evenodd"/>
          <path id="_Path_59" data-name="&lt;Path&gt;" d="M2413.908,1138.505c.024.543.224.974.447.964l9.845-.438c.222-.01.383-.458.359-1s-.224-.974-.447-.964l-9.846.439C2414.045,1137.515,2413.885,1137.963,2413.908,1138.505Z" transform="translate(-2389.564 -1134.193)" fill="#fff"/>
          <path id="_Path_60" data-name="&lt;Path&gt;" d="M2414.72,1195.352a.454.454,0,0,0,.425.473l9.845-.439a.5.5,0,0,0-.044-.982l-9.845.438A.453.453,0,0,0,2414.72,1195.352Z" transform="translate(-2390.333 -1188.369)" fill="#fff"/>
          <path id="_Path_61" data-name="&lt;Path&gt;" d="M2414.72,1232.432a.454.454,0,0,0,.425.473l9.845-.438a.5.5,0,0,0-.044-.982l-9.845.439A.454.454,0,0,0,2414.72,1232.432Z" transform="translate(-2390.333 -1223.404)" fill="#fff"/>
          <path id="_Compound_Path_2" data-name="&lt;Compound Path&gt;" d="M2140.6,1162.815h-.4a.473.473,0,0,1-.467-.417l-.857-7.391a.472.472,0,0,1,.417-.523,3.34,3.34,0,0,0,1.292-.469,3.649,3.649,0,0,0,.618-1.248,8.343,8.343,0,0,1,1.385-2.617,4.852,4.852,0,0,0,.92-3.459,1.5,1.5,0,0,1,.89-1.4c.353-.137,1.059-.208,1.828.857.961,1.331.542,3.122.264,4.307a6.5,6.5,0,0,0-.179.932.2.2,0,0,0,0,.036,5.96,5.96,0,0,0,1.987-.134c.351-.054.709-.11,1.055-.15,1.22-.142,2.655-.089,2.924,1.589a1.827,1.827,0,0,1-.484,1.544,2.061,2.061,0,0,1,.831,1.5,1.834,1.834,0,0,1-.424,1.169,1.756,1.756,0,0,1,.543,1.676,2.078,2.078,0,0,1-.648,1.128,1.052,1.052,0,0,1,.269.728c-.022.819-1.011,1.637-2.349,1.945C2148.4,1162.789,2142.244,1162.815,2140.6,1162.815Zm-.733-7.484.759,6.541a80.633,80.633,0,0,0,9.183-.374c1.065-.245,1.612-.807,1.618-1.052,0-.094-.174-.21-.44-.287a.471.471,0,0,1,.088-.922,1,1,0,0,0,.749-.806.893.893,0,0,0-.564-1.012.472.472,0,0,1-.054-.8,1.216,1.216,0,0,0,.481-.828c-.014-.439-.5-.839-.9-1.1a.472.472,0,0,1,.02-.806,1.091,1.091,0,0,0,.544-1.012c-.075-.47-.161-1-1.884-.8-.334.039-.68.093-1.019.145-1.26.195-2.254.35-2.778-.122a.919.919,0,0,1-.3-.759,6.711,6.711,0,0,1,.2-1.1c.253-1.08.6-2.558-.11-3.541-.275-.38-.547-.587-.71-.534a.6.6,0,0,0-.307.431,5.828,5.828,0,0,1-1.148,4.178,7.484,7.484,0,0,0-1.213,2.329,3.438,3.438,0,0,1-.979,1.7A4.1,4.1,0,0,1,2139.864,1155.331Z" transform="translate(-2129.699 -1141.886)" fill="#fff" fill-rule="evenodd"/>
        </g>
        <path id="_Path_62" data-name="&lt;Path&gt;" d="M2467.13,2312.25q6.043,13.172,9.215,18.629.63,3.434,0,4.512l-.537.239,2.5-.075a27.054,27.054,0,0,0,.049-4.876.55.55,0,0,0-.521-.241q-1.074-8.51-4.185-10.326l-3.014-10.383Z" transform="translate(-2439.853 -2242.187)" fill="url(#linear-gradient-35)"/>
        <path id="_Path_63" data-name="&lt;Path&gt;" d="M2605.09,2690.664c0,.06,1.956.032,3.021.013a.847.847,0,0,0,.812-.668l.8-4.224a.759.759,0,0,0-.577-.882l-.449-.1a2.022,2.022,0,0,0-.438,1.705c.2.827.381,2.969-.128,3.218a5.525,5.525,0,0,1-1.974.293Q2605.123,2690.119,2605.09,2690.664Z" transform="translate(-2570.205 -2596.573)" fill="url(#linear-gradient-36)"/>
        <path id="_Path_64" data-name="&lt;Path&gt;" d="M2361.332,2754.782a.221.221,0,0,0,.112.413c1.781-.019,5.773-.075,6.128-.222.458-.191-.167-1.836-.824-2.394l-3.631,1.185Z" transform="translate(-2339.784 -2660.615)" fill="url(#linear-gradient-37)"/>
        <path id="_Path_65" data-name="&lt;Path&gt;" d="M2342.81,2340.2q3.906,18.9,5.011,22.58l-2.613,1.64q1.309-.223,2.281-.293a2.728,2.728,0,0,0,1.865-1.185l-.313-.5q-.979-18.792-.741-20.926Z" transform="translate(-2322.389 -2270.977)" fill="url(#linear-gradient-38)"/>
        <path id="_Path_66" data-name="&lt;Path&gt;" d="M2091.644,1445.526q-.539,9.829,8.41,14.851l-2.155,4.914q-8.1-4.9-7.8-18.265a1.55,1.55,0,0,0-.381-1.047l-1.721-2a3.092,3.092,0,0,1-.657-2.768l.227-.906a.47.47,0,0,1,.692-.293l.18.1a3.161,3.161,0,0,1,1.3,1.443l.846,1.89a1.817,1.817,0,0,0,1.814,1.068l.523-.045Z" transform="translate(-2080.918 -1420.374)" fill="url(#linear-gradient-39)"/>
        <path id="_Path_67" data-name="&lt;Path&gt;" d="M2276.864,1796.693c1.5.416,6.569,1.749,9.735,1.695l-1.944,10.97.155,1.789-6.339-.028a38.842,38.842,0,0,0-3.192-6.209c-.406-.6-.1-1.309.127-1.993l-.316-.211a.861.861,0,0,1-.342-.985l1.544-4.722A.471.471,0,0,1,2276.864,1796.693Z" transform="translate(-2258.04 -1757.427)" fill="url(#linear-gradient-40)"/>
        <path id="_Path_68" data-name="&lt;Path&gt;" d="M2323.651,2037.839l.124,1.084q-1.791,5.364.9,17.893a11.058,11.058,0,0,0,10.6-2.3q-1.348-11.826-1.717-12.376a9.917,9.917,0,0,0-3.058-3.34l-.055-1.184Q2325.327,2038.545,2323.651,2037.839Z" transform="translate(-2303.728 -1985.083)" fill="url(#linear-gradient-41)"/>
        <path id="_Path_69" data-name="&lt;Path&gt;" d="M2378.774,1743.422q-.022-.029,1.323-4.062l1.927.175.753,4.575Q2379.756,1744.719,2378.774,1743.422Z" transform="translate(-2356.369 -1703.272)" fill="url(#linear-gradient-42)"/>
        <path id="_Path_70" data-name="&lt;Path&gt;" d="M2371.417,1620.66c-.129.081-4.118,1.729-3.261,5.871a.778.778,0,0,0,.442.554,6.754,6.754,0,0,0,3.354.555c2.09-.212,3.46-3.86,3.4-4.921S2372.691,1619.867,2371.417,1620.66Z" transform="translate(-2346.223 -1590.932)" fill="url(#linear-gradient-43)"/>
        <path id="_Path_71" data-name="&lt;Path&gt;" d="M2383.042,1593.184c-.1.014-2.306.78-1.214,2.375s1.5,2.533.984,3.234c-.47.638-1.512.275-1.421,1.6a.745.745,0,0,1-.317.673c-.982.665-3.377,2.71-1,5.627a.744.744,0,0,1,.084.832c-.7,1.246-2.155,4.9,3.13,6.924,5.223,2,7.109-1.412,7.635-2.777a.729.729,0,0,1,.721-.461c.574.027,1.387-.068,1.35-.835a1.919,1.919,0,0,0-.657-1.218.728.728,0,0,1,.14-1.146,1.426,1.426,0,0,0,.7-.885,4.635,4.635,0,0,0-3.677-5.274.793.793,0,0,1-.615-.595.089.089,0,0,1,0-.013.724.724,0,0,1,.27-.714,1.887,1.887,0,0,0,.666-2.458,2.754,2.754,0,0,0-2.154-1.629.732.732,0,0,1-.6-.875C2387.305,1594.449,2387.1,1592.652,2383.042,1593.184Z" transform="translate(-2356.635 -1565.066)" fill="url(#linear-gradient-44)"/>
      </g>
    </g>
  </g>
</svg>
