<svg id="SVG" xmlns="http://www.w3.org/2000/svg" width="191.464" height="73.348" viewBox="0 0 191.464 73.348">
  <g id="Groupe_39443" data-name="Groupe 39443">
    <path id="Tracé_34310" data-name="Tracé 34310" d="M113.66,194.809l-.893.972a1.5,1.5,0,0,0-.489.959,1.12,1.12,0,0,0,.111.474,4.061,4.061,0,0,0,.421.641l3.117,4.086a6.35,6.35,0,0,0,.575.692,2.161,2.161,0,0,0,.475.305,1.638,1.638,0,0,1,.637.484,1.152,1.152,0,0,1,.187.686q0,1-1.257,1h-3.159a.766.766,0,0,1-.512-.161,4.147,4.147,0,0,1-.594-.792,27.14,27.14,0,0,0-1.718-2.321,9.629,9.629,0,0,0-.654-.741.531.531,0,0,0-.344-.174c-.324,0-.483.345-.483,1.03a1.661,1.661,0,0,0,.315,1.16c.04.033.128.1.268.207a.994.994,0,0,1,.449.822.936.936,0,0,1-.734.892,7.884,7.884,0,0,1-2.465.27,8.769,8.769,0,0,1-2.249-.209.944.944,0,0,1-.489-.345.927.927,0,0,1-.185-.56,1.039,1.039,0,0,1,.5-.86,1,1,0,0,0,.322-.37,2.749,2.749,0,0,0,.179-.686,23.277,23.277,0,0,0,.168-3.282,27.291,27.291,0,0,0-.177-3.748,1.922,1.922,0,0,0-.182-.651,1.245,1.245,0,0,0-.41-.386,1.012,1.012,0,0,1-.174-1.564,1.953,1.953,0,0,1,.932-.416,10.053,10.053,0,0,1,2.133-.19,5.034,5.034,0,0,1,1.939.283.956.956,0,0,1,.569.944.943.943,0,0,1-.088.441,2.535,2.535,0,0,1-.455.484,1.458,1.458,0,0,0-.244.634,4.372,4.372,0,0,0-.114.979c0,.528.105.792.319.792a.516.516,0,0,0,.37-.187c.12-.126.358-.442.72-.944a2.853,2.853,0,0,0,.626-1.2,1.323,1.323,0,0,0-.159-.509,1.082,1.082,0,0,1-.108-.434,1,1,0,0,1,.669-.986,6.28,6.28,0,0,1,2.272-.29,6.987,6.987,0,0,1,1.9.19.967.967,0,0,1,.759,1,1.042,1.042,0,0,1-.159.563.73.73,0,0,1-.389.335,3.078,3.078,0,0,1-.808.074,1.6,1.6,0,0,0-.663.119,2.206,2.206,0,0,0-.573.485Zm10.889,4.885a.388.388,0,0,0-.4.219,3.51,3.51,0,0,0-.088,1.007,10.167,10.167,0,0,0,.133,1.867.74.74,0,0,0,.126.293,1.358,1.358,0,0,0,.319.254.94.94,0,0,1,.5.822.911.911,0,0,1-.694.883,7.434,7.434,0,0,1-2.354.26q-3.084,0-3.083-1.324a.651.651,0,0,1,.091-.361,2.007,2.007,0,0,1,.418-.383,1.363,1.363,0,0,0,.495-.648,5.387,5.387,0,0,0,.179-1.289q.043-.666.043-4.8a9.009,9.009,0,0,0-.116-1.784,1.037,1.037,0,0,0-.5-.686,1.563,1.563,0,0,1-.492-.364.7.7,0,0,1-.126-.431.858.858,0,0,1,.239-.6,1.367,1.367,0,0,1,.663-.383,3.6,3.6,0,0,1,.982-.1c.185,0,.642.028,1.377.093.136.013.358.02.657.02q.751,0,2-.113.793-.067,1.109-.068a4.448,4.448,0,0,1,2.948.972,3,3,0,0,1,1.049,2.434,3.389,3.389,0,0,1-.367,1.577,2.493,2.493,0,0,1-1.007,1.072.425.425,0,0,0-.268.358q0,.276.41.444a2.5,2.5,0,0,1,1.282,1.085,6.245,6.245,0,0,1,.583,2.225,1.861,1.861,0,0,0,.216.808,1.415,1.415,0,0,0,.657.354.492.492,0,0,1,.268.238.794.794,0,0,1,.108.412,1.059,1.059,0,0,1-.2.59,1.439,1.439,0,0,1-.518.467,4.155,4.155,0,0,1-1.917.368,2.662,2.662,0,0,1-2.323-.973,4.018,4.018,0,0,1-.537-1.092,20.663,20.663,0,0,1-.521-2.058,3.181,3.181,0,0,0-.486-1.266,1.106,1.106,0,0,0-.847-.395Zm-.483-4.811-.091,2.2v.084a.808.808,0,0,0,.088.454.433.433,0,0,0,.353.113,1.264,1.264,0,0,0,1.067-.429,2.239,2.239,0,0,0,.335-1.375q0-1.821-1.143-1.819a.55.55,0,0,0-.458.171,1.088,1.088,0,0,0-.151.6Zm20,3.709,1.576,3.819a2.813,2.813,0,0,0,.375.692.761.761,0,0,0,.458.222.64.64,0,0,1,.6.689,1.028,1.028,0,0,1-.733.991,6.973,6.973,0,0,1-2.4.3,16.084,16.084,0,0,1-2.79-.18,1.223,1.223,0,0,1-.663-.345.876.876,0,0,1-.244-.628.661.661,0,0,1,.128-.438,1.163,1.163,0,0,1,.48-.29.526.526,0,0,0,.39-.509.7.7,0,0,0-.674-.744,13.918,13.918,0,0,0-2.041-.113,3.17,3.17,0,0,0-1.325.151.758.758,0,0,0-.234.338,1.273,1.273,0,0,0-.1.474.357.357,0,0,0,.071.267,2.008,2.008,0,0,0,.464.2.663.663,0,0,1,.506.679q0,1.121-2.375,1.123a6.906,6.906,0,0,1-1.981-.209.824.824,0,0,1-.583-.866.71.71,0,0,1,.128-.454,1.141,1.141,0,0,1,.464-.293,1.812,1.812,0,0,0,.822-.609,9.722,9.722,0,0,0,.793-1.674l1.178-2.914a24.834,24.834,0,0,0,.87-2.4,6.141,6.141,0,0,0,.227-1.562,5.522,5.522,0,0,1,.088-1.127,1.5,1.5,0,0,1,.353-.618,1.869,1.869,0,0,1,1.467-.661,2.3,2.3,0,0,1,1.609.747q1.067,1.022,3.1,5.937Zm-5.8,1.188h1.635c.3,0,.449-.078.449-.229a5.209,5.209,0,0,0-.625-1.526,5.062,5.062,0,0,0-.433-.747.42.42,0,0,0-.318-.187c-.2,0-.367.209-.5.631-.023.058-.105.28-.242.669a5.745,5.745,0,0,0-.35,1.15c0,.159.125.238.381.238Zm20.862-1.188,1.576,3.819a2.773,2.773,0,0,0,.376.692.761.761,0,0,0,.458.222.64.64,0,0,1,.6.689,1.028,1.028,0,0,1-.733.991,6.977,6.977,0,0,1-2.4.3,16.084,16.084,0,0,1-2.79-.18,1.226,1.226,0,0,1-.663-.345.876.876,0,0,1-.244-.628.661.661,0,0,1,.129-.438,1.162,1.162,0,0,1,.48-.29.525.525,0,0,0,.389-.509.7.7,0,0,0-.674-.744,13.91,13.91,0,0,0-2.041-.113,3.164,3.164,0,0,0-1.324.151.75.75,0,0,0-.234.338,1.273,1.273,0,0,0-.1.474.352.352,0,0,0,.072.267,2.007,2.007,0,0,0,.464.2.663.663,0,0,1,.506.679q0,1.121-2.375,1.123a6.906,6.906,0,0,1-1.981-.209.824.824,0,0,1-.583-.866.71.71,0,0,1,.128-.454,1.141,1.141,0,0,1,.464-.293,1.812,1.812,0,0,0,.822-.609,9.723,9.723,0,0,0,.793-1.674l1.178-2.914a25.382,25.382,0,0,0,.87-2.4,6.185,6.185,0,0,0,.228-1.562,5.52,5.52,0,0,1,.088-1.127,1.5,1.5,0,0,1,.353-.618,1.868,1.868,0,0,1,1.467-.661,2.3,2.3,0,0,1,1.609.747q1.064,1.022,3.094,5.937Zm-5.8,1.188h1.636c.3,0,.449-.078.449-.229a5.193,5.193,0,0,0-.626-1.526,5.086,5.086,0,0,0-.432-.747.42.42,0,0,0-.319-.187c-.2,0-.367.209-.5.631-.023.058-.105.28-.241.669a5.818,5.818,0,0,0-.35,1.15c0,.159.125.238.381.238Zm18.349,1.423-1,2.538a4.724,4.724,0,0,1-.415.863.447.447,0,0,1-.35.222.405.405,0,0,1-.327-.181,6.263,6.263,0,0,1-.421-.828q-.329-.72-.546-1.275l-1.1-2.8c-.151-.389-.31-.585-.475-.585s-.276.167-.293.5c-.04.741-.057,1.426-.057,2.054a6.742,6.742,0,0,0,.082,1.329.689.689,0,0,0,.154.3,3.389,3.389,0,0,0,.52.341.584.584,0,0,1,.275.555q0,1.058-2.391,1.059-2.017,0-2.016-1.03a.558.558,0,0,1,.105-.38,2.23,2.23,0,0,1,.537-.354.748.748,0,0,0,.37-.387,4.06,4.06,0,0,0,.161-.953c.051-.505.1-1.33.142-2.477s.066-2.132.066-2.949a6.821,6.821,0,0,0-.208-2.083.757.757,0,0,0-.171-.283,1.8,1.8,0,0,0-.361-.245.9.9,0,0,1-.372-1.435,1.215,1.215,0,0,1,.588-.387,6.284,6.284,0,0,1,.979-.212,7.64,7.64,0,0,1,1.038-.09,4.015,4.015,0,0,1,1.507.2.842.842,0,0,1,.341.254,3.792,3.792,0,0,1,.358.661l1.735,3.613a4.9,4.9,0,0,0,.389.727.373.373,0,0,0,.3.132.4.4,0,0,0,.3-.141,2.186,2.186,0,0,0,.3-.528l1.175-2.595c.145-.331.239-.55.281-.65a3.276,3.276,0,0,1,.811-1.256,3.08,3.08,0,0,1,1.848-.406q2.359,0,2.357,1.218a.931.931,0,0,1-.091.441,1.7,1.7,0,0,1-.376.4,1.525,1.525,0,0,0-.483.953,22.266,22.266,0,0,0-.19,3.168,39,39,0,0,0,.2,4.218,1.554,1.554,0,0,0,.154.6,2.5,2.5,0,0,0,.537.484.713.713,0,0,1,.3.6.973.973,0,0,1-.777.934,3.31,3.31,0,0,1-.841.2c-.293.032-.745.045-1.356.048a7.323,7.323,0,0,1-2.1-.229c-.512-.171-.768-.457-.768-.866a.652.652,0,0,1,.1-.373,4.324,4.324,0,0,1,.517-.535,1.284,1.284,0,0,0,.3-.764,16.19,16.19,0,0,0,.08-1.925,5,5,0,0,0-.063-.989c-.042-.158-.131-.235-.265-.235-.154,0-.3.119-.449.361a12.435,12.435,0,0,0-.645,1.447Zm17.914-7.48-3.683,7.187a5.846,5.846,0,0,0-.626,1.471q0,.435,1.135.434a3.676,3.676,0,0,0,.89-.109,1.887,1.887,0,0,0,.657-.257,3.228,3.228,0,0,0,.841-1.359,1.671,1.671,0,0,1,.327-.557.594.594,0,0,1,.424-.151,1.045,1.045,0,0,1,.875.374,1.783,1.783,0,0,1,.29,1.107,4.881,4.881,0,0,1-.7,2.634c-.327.522-.637.782-.932.782a1.975,1.975,0,0,1-.332-.038,5.56,5.56,0,0,0-1.152-.132h-7.238a4.671,4.671,0,0,1-.588-.02.375.375,0,0,1-.2-.132.8.8,0,0,1-.165-.528,1.723,1.723,0,0,1,.233-.754l4.288-8.236a1.406,1.406,0,0,0,.193-.509c0-.358-.316-.538-.95-.538a1.837,1.837,0,0,0-1.181.3,3.921,3.921,0,0,0-.819,1.365q-.351.82-.808.822a.974.974,0,0,1-.784-.461,1.748,1.748,0,0,1-.341-1.065,5.163,5.163,0,0,1,.708-2.311c.333-.628.6-.944.808-.944a.636.636,0,0,1,.216.058,7.549,7.549,0,0,0,2.209.2c.509,0,1.681-.06,3.506-.189q2.333-.149,2.391-.148a.757.757,0,0,1,.58.235.882.882,0,0,1,.219.621,2.237,2.237,0,0,1-.3.85Zm8.939-1.755a5.522,5.522,0,0,1,3.743,1.388,7.011,7.011,0,0,1,1.757,2.47,7.524,7.524,0,0,1,.657,3.02,6.5,6.5,0,0,1-1.3,3.98,6.091,6.091,0,0,1-2.872,2.141,6.4,6.4,0,0,1-2.193.4,5.924,5.924,0,0,1-2.758-.679,5.86,5.86,0,0,1-2.491-2.479,7.28,7.28,0,0,1-.872-3.539,7.046,7.046,0,0,1,1.123-3.96,5.918,5.918,0,0,1,2.69-2.248,6.294,6.294,0,0,1,2.517-.49Zm-.79,2.709a1.242,1.242,0,0,0-1.109.706,2.411,2.411,0,0,0-.316,1.256,9.483,9.483,0,0,0,.384,2.467,11.779,11.779,0,0,0,.967,2.485,2.216,2.216,0,0,0,.637.737,1.319,1.319,0,0,0,.771.273,1.206,1.206,0,0,0,1.021-.538,2.393,2.393,0,0,0,.386-1.417,10.38,10.38,0,0,0-.324-2.46,9.346,9.346,0,0,0-.841-2.257,2.993,2.993,0,0,0-.734-.9,1.464,1.464,0,0,0-.841-.348Zm14.08,5.017a.388.388,0,0,0-.4.219,3.509,3.509,0,0,0-.088,1.007,10.164,10.164,0,0,0,.133,1.867.727.727,0,0,0,.126.293,1.358,1.358,0,0,0,.319.254.94.94,0,0,1,.5.822.911.911,0,0,1-.694.883,7.434,7.434,0,0,1-2.354.26q-3.084,0-3.083-1.324a.651.651,0,0,1,.091-.361,2.006,2.006,0,0,1,.418-.383,1.363,1.363,0,0,0,.495-.648,5.391,5.391,0,0,0,.179-1.289q.042-.666.042-4.8a9.01,9.01,0,0,0-.116-1.784,1.037,1.037,0,0,0-.5-.686,1.564,1.564,0,0,1-.492-.364.7.7,0,0,1-.126-.431.858.858,0,0,1,.239-.6,1.363,1.363,0,0,1,.663-.383,3.6,3.6,0,0,1,.982-.1c.185,0,.642.028,1.377.093.137.013.358.02.657.02q.751,0,2-.113.793-.067,1.109-.068a4.448,4.448,0,0,1,2.948.972,3,3,0,0,1,1.049,2.434,3.39,3.39,0,0,1-.367,1.577,2.493,2.493,0,0,1-1.007,1.072.425.425,0,0,0-.268.358q0,.276.41.444a2.5,2.5,0,0,1,1.282,1.085,6.2,6.2,0,0,1,.583,2.225,1.861,1.861,0,0,0,.216.808,1.415,1.415,0,0,0,.657.354.492.492,0,0,1,.268.238.8.8,0,0,1,.108.412,1.059,1.059,0,0,1-.2.59,1.439,1.439,0,0,1-.518.467,4.155,4.155,0,0,1-1.917.368,2.662,2.662,0,0,1-2.323-.973,4.046,4.046,0,0,1-.538-1.092,20.656,20.656,0,0,1-.521-2.058,3.2,3.2,0,0,0-.486-1.266,1.105,1.105,0,0,0-.846-.395Zm-.484-4.811-.091,2.2v.084a.808.808,0,0,0,.088.454.433.433,0,0,0,.353.113,1.264,1.264,0,0,0,1.067-.429,2.239,2.239,0,0,0,.335-1.375q0-1.821-1.143-1.819a.55.55,0,0,0-.458.171,1.088,1.088,0,0,0-.151.6Zm15.207-2.914a6.035,6.035,0,0,1,2.059.348,2.046,2.046,0,0,0,.591.161,2.5,2.5,0,0,0,.7-.215.991.991,0,0,1,.358-.068,1.152,1.152,0,0,1,.89.625,3.8,3.8,0,0,1,.686,2.187,2.2,2.2,0,0,1-.364,1.314,1.128,1.128,0,0,1-.953.5,1.459,1.459,0,0,1-.95-.4,7.529,7.529,0,0,1-.691-.888,2.6,2.6,0,0,0-2.11-1.272,2.013,2.013,0,0,0-1.721.895,4.1,4.1,0,0,0-.637,2.415,6.957,6.957,0,0,0,1.018,3.842,3.121,3.121,0,0,0,.916.918,1.95,1.95,0,0,0,1.058.345.9.9,0,0,0,.711-.325,1.229,1.229,0,0,0,.281-.835.782.782,0,0,0-.234-.641.4.4,0,0,0-.171-.091,4,4,0,0,0-.48-.016.772.772,0,0,1-.594-.257.935.935,0,0,1-.239-.657,1.168,1.168,0,0,1,.916-1.114,6.951,6.951,0,0,1,2.326-.358,7.275,7.275,0,0,1,2.366.331,1.172,1.172,0,0,1,.907,1.16.894.894,0,0,1-.208.59.819.819,0,0,1-.543.3.66.66,0,0,0-.378.148,1.352,1.352,0,0,0-.179.487,4.913,4.913,0,0,1-3.129,3.584,5.906,5.906,0,0,1-2.127.386,6.271,6.271,0,0,1-5.733-3.67,7.285,7.285,0,0,1-.682-3.14,6.789,6.789,0,0,1,.816-3.246,6.183,6.183,0,0,1,2.423-2.547A6.023,6.023,0,0,1,226.55,191.969Z" transform="translate(-41.728 -177.674)" fill="#fff" fill-rule="evenodd"/>
    <path id="Tracé_34311" data-name="Tracé 34311" d="M120.646,231.505l-2,5.078a9.393,9.393,0,0,1-.831,1.727.892.892,0,0,1-.7.444.811.811,0,0,1-.654-.361,12.447,12.447,0,0,1-.842-1.656q-.658-1.441-1.093-2.552l-2.2-5.606c-.3-.78-.62-1.173-.951-1.173-.358,0-.552.335-.586,1.005-.08,1.482-.114,2.855-.114,4.111a13.516,13.516,0,0,0,.165,2.661,1.384,1.384,0,0,0,.307.606,6.733,6.733,0,0,0,1.041.683,1.166,1.166,0,0,1,.552,1.108q0,2.117-4.786,2.12-4.037,0-4.035-2.062a1.115,1.115,0,0,1,.211-.76,4.462,4.462,0,0,1,1.075-.709,1.505,1.505,0,0,0,.74-.773,8.04,8.04,0,0,0,.325-1.908c.1-1.012.193-2.661.284-4.955s.131-4.266.131-5.9a13.667,13.667,0,0,0-.415-4.169,1.506,1.506,0,0,0-.342-.567,3.577,3.577,0,0,0-.723-.49,1.805,1.805,0,0,1-.745-2.875,2.422,2.422,0,0,1,1.179-.773,12.451,12.451,0,0,1,1.957-.426,15.321,15.321,0,0,1,2.077-.18,8.068,8.068,0,0,1,3.016.4,1.676,1.676,0,0,1,.683.509,7.516,7.516,0,0,1,.717,1.321l3.472,7.23a10.046,10.046,0,0,0,.78,1.457.75.75,0,0,0,.6.264.793.793,0,0,0,.591-.283,4.378,4.378,0,0,0,.61-1.057l2.35-5.194c.29-.664.478-1.1.563-1.3a6.571,6.571,0,0,1,1.622-2.513,6.16,6.16,0,0,1,3.7-.812q4.721,0,4.718,2.436a1.878,1.878,0,0,1-.182.883,3.4,3.4,0,0,1-.752.8,3.056,3.056,0,0,0-.967,1.907,44.441,44.441,0,0,0-.382,6.341,77.821,77.821,0,0,0,.4,8.442,3.126,3.126,0,0,0,.307,1.205,5.01,5.01,0,0,0,1.076.966,1.428,1.428,0,0,1,.6,1.206,1.945,1.945,0,0,1-1.553,1.868,6.623,6.623,0,0,1-1.685.4c-.586.065-1.492.091-2.715.1a14.63,14.63,0,0,1-4.2-.457c-1.024-.341-1.536-.916-1.536-1.733a1.319,1.319,0,0,1,.2-.748,8.723,8.723,0,0,1,1.036-1.07,2.57,2.57,0,0,0,.592-1.527,32.5,32.5,0,0,0,.159-3.854,9.9,9.9,0,0,0-.126-1.978c-.085-.316-.262-.47-.529-.47-.307,0-.609.239-.9.722a24.314,24.314,0,0,0-1.3,2.9Zm39.513-5.226,3.153,7.643a5.656,5.656,0,0,0,.751,1.386,1.523,1.523,0,0,0,.917.444,1.28,1.28,0,0,1,1.2,1.379,2.059,2.059,0,0,1-1.468,1.984,13.94,13.94,0,0,1-4.8.606,32.2,32.2,0,0,1-5.583-.361,2.452,2.452,0,0,1-1.326-.689,1.755,1.755,0,0,1-.49-1.257,1.336,1.336,0,0,1,.256-.876,2.349,2.349,0,0,1,.961-.58,1.052,1.052,0,0,0,.78-1.018,1.4,1.4,0,0,0-1.349-1.489,27.706,27.706,0,0,0-4.086-.225,6.333,6.333,0,0,0-2.652.3,1.507,1.507,0,0,0-.467.676,2.55,2.55,0,0,0-.2.947.721.721,0,0,0,.142.535,4.05,4.05,0,0,0,.927.406,1.326,1.326,0,0,1,1.012,1.36c0,1.5-1.582,2.249-4.752,2.249a13.8,13.8,0,0,1-3.967-.419,1.648,1.648,0,0,1-1.167-1.734,1.416,1.416,0,0,1,.256-.908,2.266,2.266,0,0,1,.927-.586,3.617,3.617,0,0,0,1.644-1.217,19.319,19.319,0,0,0,1.587-3.352l2.356-5.832a50.2,50.2,0,0,0,1.742-4.808,12.333,12.333,0,0,0,.455-3.125,11.071,11.071,0,0,1,.176-2.256,3,3,0,0,1,.705-1.237,3.739,3.739,0,0,1,2.937-1.321,4.6,4.6,0,0,1,3.222,1.5q2.139,2.038,6.2,11.877Zm-11.6,2.377h3.272c.6,0,.9-.155.9-.457a10.38,10.38,0,0,0-1.252-3.054,10.265,10.265,0,0,0-.865-1.5.84.84,0,0,0-.638-.374c-.4,0-.734.419-1,1.263-.045.116-.211.56-.484,1.34a11.6,11.6,0,0,0-.7,2.3c0,.316.251.477.763.477Zm39.1,2.849-2,5.078a9.4,9.4,0,0,1-.831,1.727.892.892,0,0,1-.7.444.814.814,0,0,1-.655-.361,12.455,12.455,0,0,1-.842-1.656q-.658-1.441-1.093-2.552l-2.2-5.606c-.3-.78-.62-1.173-.951-1.173-.358,0-.553.335-.586,1.005-.08,1.482-.114,2.855-.114,4.111a13.516,13.516,0,0,0,.165,2.661,1.384,1.384,0,0,0,.307.606,6.731,6.731,0,0,0,1.041.683,1.166,1.166,0,0,1,.552,1.108q0,2.117-4.786,2.12-4.037,0-4.035-2.062a1.115,1.115,0,0,1,.211-.76,4.462,4.462,0,0,1,1.075-.709,1.505,1.505,0,0,0,.74-.773,8.093,8.093,0,0,0,.325-1.908c.1-1.012.193-2.661.284-4.955s.13-4.266.13-5.9a13.635,13.635,0,0,0-.415-4.169,1.507,1.507,0,0,0-.342-.567,3.578,3.578,0,0,0-.723-.49,1.806,1.806,0,0,1-.746-2.875,2.426,2.426,0,0,1,1.179-.773,12.442,12.442,0,0,1,1.958-.426,15.321,15.321,0,0,1,2.077-.18,8.068,8.068,0,0,1,3.016.4,1.676,1.676,0,0,1,.683.509,7.519,7.519,0,0,1,.717,1.321l3.471,7.23a10.05,10.05,0,0,0,.78,1.457.75.75,0,0,0,.6.264.8.8,0,0,0,.592-.283,4.35,4.35,0,0,0,.609-1.057l2.35-5.194c.291-.664.478-1.1.563-1.3a6.56,6.56,0,0,1,1.622-2.513,6.16,6.16,0,0,1,3.7-.812q4.721,0,4.718,2.436a1.865,1.865,0,0,1-.183.883,3.4,3.4,0,0,1-.752.8,3.056,3.056,0,0,0-.967,1.907,44.444,44.444,0,0,0-.382,6.341,77.83,77.83,0,0,0,.4,8.442,3.127,3.127,0,0,0,.307,1.205,5.036,5.036,0,0,0,1.076.966,1.428,1.428,0,0,1,.6,1.206,1.945,1.945,0,0,1-1.553,1.868,6.623,6.623,0,0,1-1.685.4c-.586.065-1.491.091-2.715.1a14.63,14.63,0,0,1-4.2-.457c-1.025-.341-1.536-.916-1.536-1.733a1.319,1.319,0,0,1,.2-.748,8.719,8.719,0,0,1,1.036-1.07,2.564,2.564,0,0,0,.592-1.527,32.5,32.5,0,0,0,.159-3.854,9.9,9.9,0,0,0-.126-1.978c-.085-.316-.262-.47-.529-.47-.307,0-.609.239-.9.722a25.173,25.173,0,0,0-1.294,2.9Zm39.513-5.226,3.153,7.643a5.618,5.618,0,0,0,.752,1.386,1.523,1.523,0,0,0,.917.444,1.28,1.28,0,0,1,1.2,1.379,2.059,2.059,0,0,1-1.468,1.984,13.944,13.944,0,0,1-4.8.606,32.2,32.2,0,0,1-5.583-.361,2.446,2.446,0,0,1-1.325-.689,1.755,1.755,0,0,1-.49-1.257,1.331,1.331,0,0,1,.256-.876,2.347,2.347,0,0,1,.962-.58,1.052,1.052,0,0,0,.78-1.018,1.4,1.4,0,0,0-1.349-1.489,27.705,27.705,0,0,0-4.086-.225,6.333,6.333,0,0,0-2.652.3,1.507,1.507,0,0,0-.467.676,2.57,2.57,0,0,0-.2.947.721.721,0,0,0,.142.535,4.05,4.05,0,0,0,.927.406,1.326,1.326,0,0,1,1.013,1.36c0,1.5-1.582,2.249-4.752,2.249a13.8,13.8,0,0,1-3.967-.419,1.648,1.648,0,0,1-1.167-1.734,1.421,1.421,0,0,1,.256-.908,2.266,2.266,0,0,1,.927-.586,3.62,3.62,0,0,0,1.645-1.217,19.321,19.321,0,0,0,1.587-3.352l2.356-5.832a50.464,50.464,0,0,0,1.742-4.808,12.333,12.333,0,0,0,.455-3.125,11.074,11.074,0,0,1,.176-2.256,3,3,0,0,1,.705-1.237,3.739,3.739,0,0,1,2.937-1.321,4.6,4.6,0,0,1,3.222,1.5q2.132,2.038,6.2,11.877Zm-11.6,2.377h3.272c.6,0,.9-.155.9-.457a10.38,10.38,0,0,0-1.252-3.054,10.266,10.266,0,0,0-.865-1.5.84.84,0,0,0-.638-.374c-.4,0-.734.419-1,1.263-.045.116-.211.56-.484,1.34a11.6,11.6,0,0,0-.7,2.3C214.8,228.5,215.053,228.657,215.565,228.657Z" transform="translate(-41.728 -175.702)" fill="#fff" fill-rule="evenodd"/>
    <g id="Composant_2_1" data-name="Composant 2 – 1" style="isolation: isolate">
      <path id="Tracé_34312" data-name="Tracé 34312" d="M78.968,246.626c13.559-10.859,12.5-24.787,4.1-36.738-3.9-5.54-4.112-12.261-7.131-17.437-5.552-9.516-18.282-9.112-23.57.858-4.179,6.884-2.169,9.825-.834,16.747.854,4.426-.229,7.919-5.9,10.337a8.229,8.229,0,0,0,4.374-9.9c-2.189-8.279-6.917-12.232,1.464-19.1,3.792-15.356,22.556-16.743,28.47-3.122,2.871,6.613,1.621,14.662,6.093,20.9C94.741,221.536,98.816,238.191,78.968,246.626Z" transform="translate(-39.75 -178.896)" fill="#fff" fill-rule="evenodd"/>
      <path id="Tracé_34313" data-name="Tracé 34313" d="M52.374,196.77c-1.65,4.43,2.221,7.565,2.721,9.332.588,2.075-.587,3.721-1.077,5.78-.047.3.345.578.916.767.437.145,1.312.236,1.295.939a2.346,2.346,0,0,1-.185,1.07,1.267,1.267,0,0,0,1.591.395,1.92,1.92,0,0,1-1.813.61c-.73-.179-.882-.548-.495-1.083a1.471,1.471,0,0,0,.322-.838c.018-.515-.533-.47-.88-.533-.736-.133-1.68-.429-1.766-.991.174-1.048,1.961-4.849,1.285-6.091C53.885,204.892,49.77,200.747,52.374,196.77Z" transform="translate(-39.95 -177.218)" fill="#fff" fill-rule="evenodd"/>
      <path id="Tracé_34314" data-name="Tracé 34314" d="M59.027,204.24a3.565,3.565,0,0,1-4.941,2.817c.952-.491,1.3-.646,1.666-1.154C56.557,204.791,57.721,206.114,59.027,204.24Z" transform="translate(-40.037 -176.516)" fill="#fff" fill-rule="evenodd"/>
      <path id="Tracé_34315" data-name="Tracé 34315" d="M62.469,216.537c2.849,2.386,1.353,4.781-.768,7,2.219-2.591,5.172-3.825,7.919-3.2-2.134,1.306-5.323,1.9-9.692,5.86C61.007,220.939,64.1,219.067,62.469,216.537Z" transform="translate(-40.235 -175.361)" fill="#fff" fill-rule="evenodd"/>
      <path id="Tracé_34316" data-name="Tracé 34316" d="M56.344,217.933c-2.447,15.007,6.572,14.036,12.416,4.8,1.259-.307,3.148-.709,4.282-2.373-.754,2.38-2.684,2.807-4.063,3.217C63.576,236.7,49.541,234.269,56.344,217.933Z" transform="translate(-40.052 -175.23)" fill="#fff" fill-rule="evenodd"/>
      <path id="Tracé_34317" data-name="Tracé 34317" d="M68.2,212.454A1.43,1.43,0,0,1,66,210.694C66.141,211.675,67.348,212.309,68.2,212.454Z" transform="translate(-40.437 -175.91)" fill="#fff" fill-rule="evenodd"/>
      <path id="Tracé_34318" data-name="Tracé 34318" d="M73.013,215.448a1.45,1.45,0,0,1-2.381-1.586C70.85,214.853,72.134,215.383,73.013,215.448Z" transform="translate(-40.595 -175.613)" fill="#fff" fill-rule="evenodd"/>
      <path id="Tracé_34319" data-name="Tracé 34319" d="M68.08,216.9a1.228,1.228,0,0,1-2.017-1.344C66.246,216.4,67.335,216.845,68.08,216.9Z" transform="translate(-40.441 -175.454)" fill="#fff" fill-rule="evenodd"/>
      <path id="Tracé_34320" data-name="Tracé 34320" d="M64.446,204.273c.138-.229.271-.458.4-.7-4.862-.974-9.918-3.277-11.386-9.065-.632,7,3.619,9.816,9.919,10.416A2.288,2.288,0,0,1,64.446,204.273Z" transform="translate(-40.014 -177.43)" fill="#fff"/>
      <path id="Tracé_34321" data-name="Tracé 34321" d="M76.781,216.211c6.845-11.744-.346-19.086-9.254-17.854a3.81,3.81,0,0,0-.654.178,27.559,27.559,0,0,0-2.9,1.785c-4.141,3.964-2.681,11.134-4.741,12.5-4.5,1.99-11.41,6.808-13,20.655,4.057-14.336,10.613-17.729,14-19.219,1.968-1.071,1.506-8.176,4.979-11.109,5.536-4.673,14.928,2.029,10.727,10.757a10.427,10.427,0,0,1-3.065,3.56c-1.213,2.96-3.759,4.728-6.7,3.4-1.235.108-2.179-.15-2.847-2.018-.831-1.645-2.358-2.684-1.63-6.326-1.906,3.065-1.362,4.814.936,7.125.776,2.07,1.881,2.512,3.587,2.341a4.606,4.606,0,0,0,4.888-.109c1.338-.764,2.065-2.15,2.783-2.782,9.282-.709,10.292,6.291,6.439,12.029-5.622,8.373-23.131,14.8-31.9,13.517-7.6-1.109-7.728-7.335-4.623-13.083-5.759,8.151-6.451,17.178,2.728,18.662,10.767,1.74,30.007-7.329,36.656-18.021C87.312,225.574,86.023,216.585,76.781,216.211Z" transform="translate(-39.543 -177.081)" fill="#fff"/>
      <path id="Tracé_34322" data-name="Tracé 34322" d="M63.015,202.687s1.419-4.717,7.305-4.512l2.083.206.242,1.06a11.371,11.371,0,0,1-2.144.753,41.8,41.8,0,0,0-6.038,2.838,6.814,6.814,0,0,1-1.238.923A6.152,6.152,0,0,1,63.015,202.687Z" transform="translate(-40.34 -177.086)" fill="#fff"/>
    </g>
  </g>
  <g id="Groupe_39891" data-name="Groupe 39891">
    <path id="Tracé_34310-2" data-name="Tracé 34310" d="M113.66,194.809l-.893.972a1.5,1.5,0,0,0-.489.959,1.12,1.12,0,0,0,.111.474,4.061,4.061,0,0,0,.421.641l3.117,4.086a6.35,6.35,0,0,0,.575.692,2.161,2.161,0,0,0,.475.305,1.638,1.638,0,0,1,.637.484,1.152,1.152,0,0,1,.187.686q0,1-1.257,1h-3.159a.766.766,0,0,1-.512-.161,4.147,4.147,0,0,1-.594-.792,27.14,27.14,0,0,0-1.718-2.321,9.629,9.629,0,0,0-.654-.741.531.531,0,0,0-.344-.174c-.324,0-.483.345-.483,1.03a1.661,1.661,0,0,0,.315,1.16c.04.033.128.1.268.207a.994.994,0,0,1,.449.822.936.936,0,0,1-.734.892,7.884,7.884,0,0,1-2.465.27,8.769,8.769,0,0,1-2.249-.209.944.944,0,0,1-.489-.345.927.927,0,0,1-.185-.56,1.039,1.039,0,0,1,.5-.86,1,1,0,0,0,.322-.37,2.749,2.749,0,0,0,.179-.686,23.277,23.277,0,0,0,.168-3.282,27.291,27.291,0,0,0-.177-3.748,1.922,1.922,0,0,0-.182-.651,1.245,1.245,0,0,0-.41-.386,1.012,1.012,0,0,1-.174-1.564,1.953,1.953,0,0,1,.932-.416,10.053,10.053,0,0,1,2.133-.19,5.034,5.034,0,0,1,1.939.283.956.956,0,0,1,.569.944.943.943,0,0,1-.088.441,2.535,2.535,0,0,1-.455.484,1.458,1.458,0,0,0-.244.634,4.372,4.372,0,0,0-.114.979c0,.528.105.792.319.792a.516.516,0,0,0,.37-.187c.12-.126.358-.442.72-.944a2.853,2.853,0,0,0,.626-1.2,1.323,1.323,0,0,0-.159-.509,1.082,1.082,0,0,1-.108-.434,1,1,0,0,1,.669-.986,6.28,6.28,0,0,1,2.272-.29,6.987,6.987,0,0,1,1.9.19.967.967,0,0,1,.759,1,1.042,1.042,0,0,1-.159.563.73.73,0,0,1-.389.335,3.078,3.078,0,0,1-.808.074,1.6,1.6,0,0,0-.663.119,2.206,2.206,0,0,0-.573.485Zm10.889,4.885a.388.388,0,0,0-.4.219,3.51,3.51,0,0,0-.088,1.007,10.167,10.167,0,0,0,.133,1.867.74.74,0,0,0,.126.293,1.358,1.358,0,0,0,.319.254.94.94,0,0,1,.5.822.911.911,0,0,1-.694.883,7.434,7.434,0,0,1-2.354.26q-3.084,0-3.083-1.324a.651.651,0,0,1,.091-.361,2.007,2.007,0,0,1,.418-.383,1.363,1.363,0,0,0,.495-.648,5.387,5.387,0,0,0,.179-1.289q.043-.666.043-4.8a9.009,9.009,0,0,0-.116-1.784,1.037,1.037,0,0,0-.5-.686,1.563,1.563,0,0,1-.492-.364.7.7,0,0,1-.126-.431.858.858,0,0,1,.239-.6,1.367,1.367,0,0,1,.663-.383,3.6,3.6,0,0,1,.982-.1c.185,0,.642.028,1.377.093.136.013.358.02.657.02q.751,0,2-.113.793-.067,1.109-.068a4.448,4.448,0,0,1,2.948.972,3,3,0,0,1,1.049,2.434,3.389,3.389,0,0,1-.367,1.577,2.493,2.493,0,0,1-1.007,1.072.425.425,0,0,0-.268.358q0,.276.41.444a2.5,2.5,0,0,1,1.282,1.085,6.245,6.245,0,0,1,.583,2.225,1.861,1.861,0,0,0,.216.808,1.415,1.415,0,0,0,.657.354.492.492,0,0,1,.268.238.794.794,0,0,1,.108.412,1.059,1.059,0,0,1-.2.59,1.439,1.439,0,0,1-.518.467,4.155,4.155,0,0,1-1.917.368,2.662,2.662,0,0,1-2.323-.973,4.018,4.018,0,0,1-.537-1.092,20.663,20.663,0,0,1-.521-2.058,3.181,3.181,0,0,0-.486-1.266,1.106,1.106,0,0,0-.847-.395Zm-.483-4.811-.091,2.2v.084a.808.808,0,0,0,.088.454.433.433,0,0,0,.353.113,1.264,1.264,0,0,0,1.067-.429,2.239,2.239,0,0,0,.335-1.375q0-1.821-1.143-1.819a.55.55,0,0,0-.458.171,1.088,1.088,0,0,0-.151.6Zm20,3.709,1.576,3.819a2.813,2.813,0,0,0,.375.692.761.761,0,0,0,.458.222.64.64,0,0,1,.6.689,1.028,1.028,0,0,1-.733.991,6.973,6.973,0,0,1-2.4.3,16.084,16.084,0,0,1-2.79-.18,1.223,1.223,0,0,1-.663-.345.876.876,0,0,1-.244-.628.661.661,0,0,1,.128-.438,1.163,1.163,0,0,1,.48-.29.526.526,0,0,0,.39-.509.7.7,0,0,0-.674-.744,13.918,13.918,0,0,0-2.041-.113,3.17,3.17,0,0,0-1.325.151.758.758,0,0,0-.234.338,1.273,1.273,0,0,0-.1.474.357.357,0,0,0,.071.267,2.008,2.008,0,0,0,.464.2.663.663,0,0,1,.506.679q0,1.121-2.375,1.123a6.906,6.906,0,0,1-1.981-.209.824.824,0,0,1-.583-.866.71.71,0,0,1,.128-.454,1.141,1.141,0,0,1,.464-.293,1.812,1.812,0,0,0,.822-.609,9.722,9.722,0,0,0,.793-1.674l1.178-2.914a24.834,24.834,0,0,0,.87-2.4,6.141,6.141,0,0,0,.227-1.562,5.522,5.522,0,0,1,.088-1.127,1.5,1.5,0,0,1,.353-.618,1.869,1.869,0,0,1,1.467-.661,2.3,2.3,0,0,1,1.609.747q1.067,1.022,3.1,5.937Zm-5.8,1.188h1.635c.3,0,.449-.078.449-.229a5.209,5.209,0,0,0-.625-1.526,5.062,5.062,0,0,0-.433-.747.42.42,0,0,0-.318-.187c-.2,0-.367.209-.5.631-.023.058-.105.28-.242.669a5.745,5.745,0,0,0-.35,1.15c0,.159.125.238.381.238Zm20.862-1.188,1.576,3.819a2.773,2.773,0,0,0,.376.692.761.761,0,0,0,.458.222.64.64,0,0,1,.6.689,1.028,1.028,0,0,1-.733.991,6.977,6.977,0,0,1-2.4.3,16.084,16.084,0,0,1-2.79-.18,1.226,1.226,0,0,1-.663-.345.876.876,0,0,1-.244-.628.661.661,0,0,1,.129-.438,1.162,1.162,0,0,1,.48-.29.525.525,0,0,0,.389-.509.7.7,0,0,0-.674-.744,13.91,13.91,0,0,0-2.041-.113,3.164,3.164,0,0,0-1.324.151.75.75,0,0,0-.234.338,1.273,1.273,0,0,0-.1.474.352.352,0,0,0,.072.267,2.007,2.007,0,0,0,.464.2.663.663,0,0,1,.506.679q0,1.121-2.375,1.123a6.906,6.906,0,0,1-1.981-.209.824.824,0,0,1-.583-.866.71.71,0,0,1,.128-.454,1.141,1.141,0,0,1,.464-.293,1.812,1.812,0,0,0,.822-.609,9.723,9.723,0,0,0,.793-1.674l1.178-2.914a25.382,25.382,0,0,0,.87-2.4,6.185,6.185,0,0,0,.228-1.562,5.52,5.52,0,0,1,.088-1.127,1.5,1.5,0,0,1,.353-.618,1.868,1.868,0,0,1,1.467-.661,2.3,2.3,0,0,1,1.609.747q1.064,1.022,3.094,5.937Zm-5.8,1.188h1.636c.3,0,.449-.078.449-.229a5.193,5.193,0,0,0-.626-1.526,5.086,5.086,0,0,0-.432-.747.42.42,0,0,0-.319-.187c-.2,0-.367.209-.5.631-.023.058-.105.28-.241.669a5.818,5.818,0,0,0-.35,1.15c0,.159.125.238.381.238Zm18.349,1.423-1,2.538a4.724,4.724,0,0,1-.415.863.447.447,0,0,1-.35.222.405.405,0,0,1-.327-.181,6.263,6.263,0,0,1-.421-.828q-.329-.72-.546-1.275l-1.1-2.8c-.151-.389-.31-.585-.475-.585s-.276.167-.293.5c-.04.741-.057,1.426-.057,2.054a6.742,6.742,0,0,0,.082,1.329.689.689,0,0,0,.154.3,3.389,3.389,0,0,0,.52.341.584.584,0,0,1,.275.555q0,1.058-2.391,1.059-2.017,0-2.016-1.03a.558.558,0,0,1,.105-.38,2.23,2.23,0,0,1,.537-.354.748.748,0,0,0,.37-.387,4.06,4.06,0,0,0,.161-.953c.051-.505.1-1.33.142-2.477s.066-2.132.066-2.949a6.821,6.821,0,0,0-.208-2.083.757.757,0,0,0-.171-.283,1.8,1.8,0,0,0-.361-.245.9.9,0,0,1-.372-1.435,1.215,1.215,0,0,1,.588-.387,6.284,6.284,0,0,1,.979-.212,7.64,7.64,0,0,1,1.038-.09,4.015,4.015,0,0,1,1.507.2.842.842,0,0,1,.341.254,3.792,3.792,0,0,1,.358.661l1.735,3.613a4.9,4.9,0,0,0,.389.727.373.373,0,0,0,.3.132.4.4,0,0,0,.3-.141,2.186,2.186,0,0,0,.3-.528l1.175-2.595c.145-.331.239-.55.281-.65a3.276,3.276,0,0,1,.811-1.256,3.08,3.08,0,0,1,1.848-.406q2.359,0,2.357,1.218a.931.931,0,0,1-.091.441,1.7,1.7,0,0,1-.376.4,1.525,1.525,0,0,0-.483.953,22.266,22.266,0,0,0-.19,3.168,39,39,0,0,0,.2,4.218,1.554,1.554,0,0,0,.154.6,2.5,2.5,0,0,0,.537.484.713.713,0,0,1,.3.6.973.973,0,0,1-.777.934,3.31,3.31,0,0,1-.841.2c-.293.032-.745.045-1.356.048a7.323,7.323,0,0,1-2.1-.229c-.512-.171-.768-.457-.768-.866a.652.652,0,0,1,.1-.373,4.324,4.324,0,0,1,.517-.535,1.284,1.284,0,0,0,.3-.764,16.19,16.19,0,0,0,.08-1.925,5,5,0,0,0-.063-.989c-.042-.158-.131-.235-.265-.235-.154,0-.3.119-.449.361a12.435,12.435,0,0,0-.645,1.447Zm17.914-7.48-3.683,7.187a5.846,5.846,0,0,0-.626,1.471q0,.435,1.135.434a3.676,3.676,0,0,0,.89-.109,1.887,1.887,0,0,0,.657-.257,3.228,3.228,0,0,0,.841-1.359,1.671,1.671,0,0,1,.327-.557.594.594,0,0,1,.424-.151,1.045,1.045,0,0,1,.875.374,1.783,1.783,0,0,1,.29,1.107,4.881,4.881,0,0,1-.7,2.634c-.327.522-.637.782-.932.782a1.975,1.975,0,0,1-.332-.038,5.56,5.56,0,0,0-1.152-.132h-7.238a4.671,4.671,0,0,1-.588-.02.375.375,0,0,1-.2-.132.8.8,0,0,1-.165-.528,1.723,1.723,0,0,1,.233-.754l4.288-8.236a1.406,1.406,0,0,0,.193-.509c0-.358-.316-.538-.95-.538a1.837,1.837,0,0,0-1.181.3,3.921,3.921,0,0,0-.819,1.365q-.351.82-.808.822a.974.974,0,0,1-.784-.461,1.748,1.748,0,0,1-.341-1.065,5.163,5.163,0,0,1,.708-2.311c.333-.628.6-.944.808-.944a.636.636,0,0,1,.216.058,7.549,7.549,0,0,0,2.209.2c.509,0,1.681-.06,3.506-.189q2.333-.149,2.391-.148a.757.757,0,0,1,.58.235.882.882,0,0,1,.219.621,2.237,2.237,0,0,1-.3.85Zm8.939-1.755a5.522,5.522,0,0,1,3.743,1.388,7.011,7.011,0,0,1,1.757,2.47,7.524,7.524,0,0,1,.657,3.02,6.5,6.5,0,0,1-1.3,3.98,6.091,6.091,0,0,1-2.872,2.141,6.4,6.4,0,0,1-2.193.4,5.924,5.924,0,0,1-2.758-.679,5.86,5.86,0,0,1-2.491-2.479,7.28,7.28,0,0,1-.872-3.539,7.046,7.046,0,0,1,1.123-3.96,5.918,5.918,0,0,1,2.69-2.248,6.294,6.294,0,0,1,2.517-.49Zm-.79,2.709a1.242,1.242,0,0,0-1.109.706,2.411,2.411,0,0,0-.316,1.256,9.483,9.483,0,0,0,.384,2.467,11.779,11.779,0,0,0,.967,2.485,2.216,2.216,0,0,0,.637.737,1.319,1.319,0,0,0,.771.273,1.206,1.206,0,0,0,1.021-.538,2.393,2.393,0,0,0,.386-1.417,10.38,10.38,0,0,0-.324-2.46,9.346,9.346,0,0,0-.841-2.257,2.993,2.993,0,0,0-.734-.9,1.464,1.464,0,0,0-.841-.348Zm14.08,5.017a.388.388,0,0,0-.4.219,3.509,3.509,0,0,0-.088,1.007,10.164,10.164,0,0,0,.133,1.867.727.727,0,0,0,.126.293,1.358,1.358,0,0,0,.319.254.94.94,0,0,1,.5.822.911.911,0,0,1-.694.883,7.434,7.434,0,0,1-2.354.26q-3.084,0-3.083-1.324a.651.651,0,0,1,.091-.361,2.006,2.006,0,0,1,.418-.383,1.363,1.363,0,0,0,.495-.648,5.391,5.391,0,0,0,.179-1.289q.042-.666.042-4.8a9.01,9.01,0,0,0-.116-1.784,1.037,1.037,0,0,0-.5-.686,1.564,1.564,0,0,1-.492-.364.7.7,0,0,1-.126-.431.858.858,0,0,1,.239-.6,1.363,1.363,0,0,1,.663-.383,3.6,3.6,0,0,1,.982-.1c.185,0,.642.028,1.377.093.137.013.358.02.657.02q.751,0,2-.113.793-.067,1.109-.068a4.448,4.448,0,0,1,2.948.972,3,3,0,0,1,1.049,2.434,3.39,3.39,0,0,1-.367,1.577,2.493,2.493,0,0,1-1.007,1.072.425.425,0,0,0-.268.358q0,.276.41.444a2.5,2.5,0,0,1,1.282,1.085,6.2,6.2,0,0,1,.583,2.225,1.861,1.861,0,0,0,.216.808,1.415,1.415,0,0,0,.657.354.492.492,0,0,1,.268.238.8.8,0,0,1,.108.412,1.059,1.059,0,0,1-.2.59,1.439,1.439,0,0,1-.518.467,4.155,4.155,0,0,1-1.917.368,2.662,2.662,0,0,1-2.323-.973,4.046,4.046,0,0,1-.538-1.092,20.656,20.656,0,0,1-.521-2.058,3.2,3.2,0,0,0-.486-1.266,1.105,1.105,0,0,0-.846-.395Zm-.484-4.811-.091,2.2v.084a.808.808,0,0,0,.088.454.433.433,0,0,0,.353.113,1.264,1.264,0,0,0,1.067-.429,2.239,2.239,0,0,0,.335-1.375q0-1.821-1.143-1.819a.55.55,0,0,0-.458.171,1.088,1.088,0,0,0-.151.6Zm15.207-2.914a6.035,6.035,0,0,1,2.059.348,2.046,2.046,0,0,0,.591.161,2.5,2.5,0,0,0,.7-.215.991.991,0,0,1,.358-.068,1.152,1.152,0,0,1,.89.625,3.8,3.8,0,0,1,.686,2.187,2.2,2.2,0,0,1-.364,1.314,1.128,1.128,0,0,1-.953.5,1.459,1.459,0,0,1-.95-.4,7.529,7.529,0,0,1-.691-.888,2.6,2.6,0,0,0-2.11-1.272,2.013,2.013,0,0,0-1.721.895,4.1,4.1,0,0,0-.637,2.415,6.957,6.957,0,0,0,1.018,3.842,3.121,3.121,0,0,0,.916.918,1.95,1.95,0,0,0,1.058.345.9.9,0,0,0,.711-.325,1.229,1.229,0,0,0,.281-.835.782.782,0,0,0-.234-.641.4.4,0,0,0-.171-.091,4,4,0,0,0-.48-.016.772.772,0,0,1-.594-.257.935.935,0,0,1-.239-.657,1.168,1.168,0,0,1,.916-1.114,6.951,6.951,0,0,1,2.326-.358,7.275,7.275,0,0,1,2.366.331,1.172,1.172,0,0,1,.907,1.16.894.894,0,0,1-.208.59.819.819,0,0,1-.543.3.66.66,0,0,0-.378.148,1.352,1.352,0,0,0-.179.487,4.913,4.913,0,0,1-3.129,3.584,5.906,5.906,0,0,1-2.127.386,6.271,6.271,0,0,1-5.733-3.67,7.285,7.285,0,0,1-.682-3.14,6.789,6.789,0,0,1,.816-3.246,6.183,6.183,0,0,1,2.423-2.547A6.023,6.023,0,0,1,226.55,191.969Z" transform="translate(-41.728 -177.674)" fill="#fff" fill-rule="evenodd"/>
    <path id="Tracé_34311-2" data-name="Tracé 34311" d="M120.646,231.505l-2,5.078a9.393,9.393,0,0,1-.831,1.727.892.892,0,0,1-.7.444.811.811,0,0,1-.654-.361,12.447,12.447,0,0,1-.842-1.656q-.658-1.441-1.093-2.552l-2.2-5.606c-.3-.78-.62-1.173-.951-1.173-.358,0-.552.335-.586,1.005-.08,1.482-.114,2.855-.114,4.111a13.516,13.516,0,0,0,.165,2.661,1.384,1.384,0,0,0,.307.606,6.733,6.733,0,0,0,1.041.683,1.166,1.166,0,0,1,.552,1.108q0,2.117-4.786,2.12-4.037,0-4.035-2.062a1.115,1.115,0,0,1,.211-.76,4.462,4.462,0,0,1,1.075-.709,1.505,1.505,0,0,0,.74-.773,8.04,8.04,0,0,0,.325-1.908c.1-1.012.193-2.661.284-4.955s.131-4.266.131-5.9a13.667,13.667,0,0,0-.415-4.169,1.506,1.506,0,0,0-.342-.567,3.577,3.577,0,0,0-.723-.49,1.805,1.805,0,0,1-.745-2.875,2.422,2.422,0,0,1,1.179-.773,12.451,12.451,0,0,1,1.957-.426,15.321,15.321,0,0,1,2.077-.18,8.068,8.068,0,0,1,3.016.4,1.676,1.676,0,0,1,.683.509,7.516,7.516,0,0,1,.717,1.321l3.472,7.23a10.046,10.046,0,0,0,.78,1.457.75.75,0,0,0,.6.264.793.793,0,0,0,.591-.283,4.378,4.378,0,0,0,.61-1.057l2.35-5.194c.29-.664.478-1.1.563-1.3a6.571,6.571,0,0,1,1.622-2.513,6.16,6.16,0,0,1,3.7-.812q4.721,0,4.718,2.436a1.878,1.878,0,0,1-.182.883,3.4,3.4,0,0,1-.752.8,3.056,3.056,0,0,0-.967,1.907,44.441,44.441,0,0,0-.382,6.341,77.821,77.821,0,0,0,.4,8.442,3.126,3.126,0,0,0,.307,1.205,5.01,5.01,0,0,0,1.076.966,1.428,1.428,0,0,1,.6,1.206,1.945,1.945,0,0,1-1.553,1.868,6.623,6.623,0,0,1-1.685.4c-.586.065-1.492.091-2.715.1a14.63,14.63,0,0,1-4.2-.457c-1.024-.341-1.536-.916-1.536-1.733a1.319,1.319,0,0,1,.2-.748,8.723,8.723,0,0,1,1.036-1.07,2.57,2.57,0,0,0,.592-1.527,32.5,32.5,0,0,0,.159-3.854,9.9,9.9,0,0,0-.126-1.978c-.085-.316-.262-.47-.529-.47-.307,0-.609.239-.9.722a24.314,24.314,0,0,0-1.3,2.9Zm39.513-5.226,3.153,7.643a5.656,5.656,0,0,0,.751,1.386,1.523,1.523,0,0,0,.917.444,1.28,1.28,0,0,1,1.2,1.379,2.059,2.059,0,0,1-1.468,1.984,13.94,13.94,0,0,1-4.8.606,32.2,32.2,0,0,1-5.583-.361,2.452,2.452,0,0,1-1.326-.689,1.755,1.755,0,0,1-.49-1.257,1.336,1.336,0,0,1,.256-.876,2.349,2.349,0,0,1,.961-.58,1.052,1.052,0,0,0,.78-1.018,1.4,1.4,0,0,0-1.349-1.489,27.706,27.706,0,0,0-4.086-.225,6.333,6.333,0,0,0-2.652.3,1.507,1.507,0,0,0-.467.676,2.55,2.55,0,0,0-.2.947.721.721,0,0,0,.142.535,4.05,4.05,0,0,0,.927.406,1.326,1.326,0,0,1,1.012,1.36c0,1.5-1.582,2.249-4.752,2.249a13.8,13.8,0,0,1-3.967-.419,1.648,1.648,0,0,1-1.167-1.734,1.416,1.416,0,0,1,.256-.908,2.266,2.266,0,0,1,.927-.586,3.617,3.617,0,0,0,1.644-1.217,19.319,19.319,0,0,0,1.587-3.352l2.356-5.832a50.2,50.2,0,0,0,1.742-4.808,12.333,12.333,0,0,0,.455-3.125,11.071,11.071,0,0,1,.176-2.256,3,3,0,0,1,.705-1.237,3.739,3.739,0,0,1,2.937-1.321,4.6,4.6,0,0,1,3.222,1.5q2.139,2.038,6.2,11.877Zm-11.6,2.377h3.272c.6,0,.9-.155.9-.457a10.38,10.38,0,0,0-1.252-3.054,10.265,10.265,0,0,0-.865-1.5.84.84,0,0,0-.638-.374c-.4,0-.734.419-1,1.263-.045.116-.211.56-.484,1.34a11.6,11.6,0,0,0-.7,2.3c0,.316.251.477.763.477Zm39.1,2.849-2,5.078a9.4,9.4,0,0,1-.831,1.727.892.892,0,0,1-.7.444.814.814,0,0,1-.655-.361,12.455,12.455,0,0,1-.842-1.656q-.658-1.441-1.093-2.552l-2.2-5.606c-.3-.78-.62-1.173-.951-1.173-.358,0-.553.335-.586,1.005-.08,1.482-.114,2.855-.114,4.111a13.516,13.516,0,0,0,.165,2.661,1.384,1.384,0,0,0,.307.606,6.731,6.731,0,0,0,1.041.683,1.166,1.166,0,0,1,.552,1.108q0,2.117-4.786,2.12-4.037,0-4.035-2.062a1.115,1.115,0,0,1,.211-.76,4.462,4.462,0,0,1,1.075-.709,1.505,1.505,0,0,0,.74-.773,8.093,8.093,0,0,0,.325-1.908c.1-1.012.193-2.661.284-4.955s.13-4.266.13-5.9a13.635,13.635,0,0,0-.415-4.169,1.507,1.507,0,0,0-.342-.567,3.578,3.578,0,0,0-.723-.49,1.806,1.806,0,0,1-.746-2.875,2.426,2.426,0,0,1,1.179-.773,12.442,12.442,0,0,1,1.958-.426,15.321,15.321,0,0,1,2.077-.18,8.068,8.068,0,0,1,3.016.4,1.676,1.676,0,0,1,.683.509,7.519,7.519,0,0,1,.717,1.321l3.471,7.23a10.05,10.05,0,0,0,.78,1.457.75.75,0,0,0,.6.264.8.8,0,0,0,.592-.283,4.35,4.35,0,0,0,.609-1.057l2.35-5.194c.291-.664.478-1.1.563-1.3a6.56,6.56,0,0,1,1.622-2.513,6.16,6.16,0,0,1,3.7-.812q4.721,0,4.718,2.436a1.865,1.865,0,0,1-.183.883,3.4,3.4,0,0,1-.752.8,3.056,3.056,0,0,0-.967,1.907,44.444,44.444,0,0,0-.382,6.341,77.83,77.83,0,0,0,.4,8.442,3.127,3.127,0,0,0,.307,1.205,5.036,5.036,0,0,0,1.076.966,1.428,1.428,0,0,1,.6,1.206,1.945,1.945,0,0,1-1.553,1.868,6.623,6.623,0,0,1-1.685.4c-.586.065-1.491.091-2.715.1a14.63,14.63,0,0,1-4.2-.457c-1.025-.341-1.536-.916-1.536-1.733a1.319,1.319,0,0,1,.2-.748,8.719,8.719,0,0,1,1.036-1.07,2.564,2.564,0,0,0,.592-1.527,32.5,32.5,0,0,0,.159-3.854,9.9,9.9,0,0,0-.126-1.978c-.085-.316-.262-.47-.529-.47-.307,0-.609.239-.9.722a25.173,25.173,0,0,0-1.294,2.9Zm39.513-5.226,3.153,7.643a5.618,5.618,0,0,0,.752,1.386,1.523,1.523,0,0,0,.917.444,1.28,1.28,0,0,1,1.2,1.379,2.059,2.059,0,0,1-1.468,1.984,13.944,13.944,0,0,1-4.8.606,32.2,32.2,0,0,1-5.583-.361,2.446,2.446,0,0,1-1.325-.689,1.755,1.755,0,0,1-.49-1.257,1.331,1.331,0,0,1,.256-.876,2.347,2.347,0,0,1,.962-.58,1.052,1.052,0,0,0,.78-1.018,1.4,1.4,0,0,0-1.349-1.489,27.705,27.705,0,0,0-4.086-.225,6.333,6.333,0,0,0-2.652.3,1.507,1.507,0,0,0-.467.676,2.57,2.57,0,0,0-.2.947.721.721,0,0,0,.142.535,4.05,4.05,0,0,0,.927.406,1.326,1.326,0,0,1,1.013,1.36c0,1.5-1.582,2.249-4.752,2.249a13.8,13.8,0,0,1-3.967-.419,1.648,1.648,0,0,1-1.167-1.734,1.421,1.421,0,0,1,.256-.908,2.266,2.266,0,0,1,.927-.586,3.62,3.62,0,0,0,1.645-1.217,19.321,19.321,0,0,0,1.587-3.352l2.356-5.832a50.464,50.464,0,0,0,1.742-4.808,12.333,12.333,0,0,0,.455-3.125,11.074,11.074,0,0,1,.176-2.256,3,3,0,0,1,.705-1.237,3.739,3.739,0,0,1,2.937-1.321,4.6,4.6,0,0,1,3.222,1.5q2.132,2.038,6.2,11.877Zm-11.6,2.377h3.272c.6,0,.9-.155.9-.457a10.38,10.38,0,0,0-1.252-3.054,10.266,10.266,0,0,0-.865-1.5.84.84,0,0,0-.638-.374c-.4,0-.734.419-1,1.263-.045.116-.211.56-.484,1.34a11.6,11.6,0,0,0-.7,2.3C214.8,228.5,215.053,228.657,215.565,228.657Z" transform="translate(-41.728 -175.702)" fill="#fff" fill-rule="evenodd"/>
    <g id="Composant_2_2" data-name="Composant 2 – 2" style="isolation: isolate">
      <path id="Tracé_34312-2" data-name="Tracé 34312" d="M78.968,246.626c13.559-10.859,12.5-24.787,4.1-36.738-3.9-5.54-4.112-12.261-7.131-17.437-5.552-9.516-18.282-9.112-23.57.858-4.179,6.884-2.169,9.825-.834,16.747.854,4.426-.229,7.919-5.9,10.337a8.229,8.229,0,0,0,4.374-9.9c-2.189-8.279-6.917-12.232,1.464-19.1,3.792-15.356,22.556-16.743,28.47-3.122,2.871,6.613,1.621,14.662,6.093,20.9C94.741,221.536,98.816,238.191,78.968,246.626Z" transform="translate(-39.75 -178.896)" fill="#fff" fill-rule="evenodd"/>
      <path id="Tracé_34313-2" data-name="Tracé 34313" d="M52.374,196.77c-1.65,4.43,2.221,7.565,2.721,9.332.588,2.075-.587,3.721-1.077,5.78-.047.3.345.578.916.767.437.145,1.312.236,1.295.939a2.346,2.346,0,0,1-.185,1.07,1.267,1.267,0,0,0,1.591.395,1.92,1.92,0,0,1-1.813.61c-.73-.179-.882-.548-.495-1.083a1.471,1.471,0,0,0,.322-.838c.018-.515-.533-.47-.88-.533-.736-.133-1.68-.429-1.766-.991.174-1.048,1.961-4.849,1.285-6.091C53.885,204.892,49.77,200.747,52.374,196.77Z" transform="translate(-39.95 -177.218)" fill="#fff" fill-rule="evenodd"/>
      <path id="Tracé_34314-2" data-name="Tracé 34314" d="M59.027,204.24a3.565,3.565,0,0,1-4.941,2.817c.952-.491,1.3-.646,1.666-1.154C56.557,204.791,57.721,206.114,59.027,204.24Z" transform="translate(-40.037 -176.516)" fill="#fff" fill-rule="evenodd"/>
      <path id="Tracé_34315-2" data-name="Tracé 34315" d="M62.469,216.537c2.849,2.386,1.353,4.781-.768,7,2.219-2.591,5.172-3.825,7.919-3.2-2.134,1.306-5.323,1.9-9.692,5.86C61.007,220.939,64.1,219.067,62.469,216.537Z" transform="translate(-40.235 -175.361)" fill="#fff" fill-rule="evenodd"/>
      <path id="Tracé_34316-2" data-name="Tracé 34316" d="M56.344,217.933c-2.447,15.007,6.572,14.036,12.416,4.8,1.259-.307,3.148-.709,4.282-2.373-.754,2.38-2.684,2.807-4.063,3.217C63.576,236.7,49.541,234.269,56.344,217.933Z" transform="translate(-40.052 -175.23)" fill="#fff" fill-rule="evenodd"/>
      <path id="Tracé_34317-2" data-name="Tracé 34317" d="M68.2,212.454A1.43,1.43,0,0,1,66,210.694C66.141,211.675,67.348,212.309,68.2,212.454Z" transform="translate(-40.437 -175.91)" fill="#fff" fill-rule="evenodd"/>
      <path id="Tracé_34318-2" data-name="Tracé 34318" d="M73.013,215.448a1.45,1.45,0,0,1-2.381-1.586C70.85,214.853,72.134,215.383,73.013,215.448Z" transform="translate(-40.595 -175.613)" fill="#fff" fill-rule="evenodd"/>
      <path id="Tracé_34319-2" data-name="Tracé 34319" d="M68.08,216.9a1.228,1.228,0,0,1-2.017-1.344C66.246,216.4,67.335,216.845,68.08,216.9Z" transform="translate(-40.441 -175.454)" fill="#fff" fill-rule="evenodd"/>
      <path id="Tracé_34320-2" data-name="Tracé 34320" d="M64.446,204.273c.138-.229.271-.458.4-.7-4.862-.974-9.918-3.277-11.386-9.065-.632,7,3.619,9.816,9.919,10.416A2.288,2.288,0,0,1,64.446,204.273Z" transform="translate(-40.014 -177.43)" fill="#fff"/>
      <path id="Tracé_34321-2" data-name="Tracé 34321" d="M76.781,216.211c6.845-11.744-.346-19.086-9.254-17.854a3.81,3.81,0,0,0-.654.178,27.559,27.559,0,0,0-2.9,1.785c-4.141,3.964-2.681,11.134-4.741,12.5-4.5,1.99-11.41,6.808-13,20.655,4.057-14.336,10.613-17.729,14-19.219,1.968-1.071,1.506-8.176,4.979-11.109,5.536-4.673,14.928,2.029,10.727,10.757a10.427,10.427,0,0,1-3.065,3.56c-1.213,2.96-3.759,4.728-6.7,3.4-1.235.108-2.179-.15-2.847-2.018-.831-1.645-2.358-2.684-1.63-6.326-1.906,3.065-1.362,4.814.936,7.125.776,2.07,1.881,2.512,3.587,2.341a4.606,4.606,0,0,0,4.888-.109c1.338-.764,2.065-2.15,2.783-2.782,9.282-.709,10.292,6.291,6.439,12.029-5.622,8.373-23.131,14.8-31.9,13.517-7.6-1.109-7.728-7.335-4.623-13.083-5.759,8.151-6.451,17.178,2.728,18.662,10.767,1.74,30.007-7.329,36.656-18.021C87.312,225.574,86.023,216.585,76.781,216.211Z" transform="translate(-39.543 -177.081)" fill="#fff"/>
      <path id="Tracé_34322-2" data-name="Tracé 34322" d="M63.015,202.687s1.419-4.717,7.305-4.512l2.083.206.242,1.06a11.371,11.371,0,0,1-2.144.753,41.8,41.8,0,0,0-6.038,2.838,6.814,6.814,0,0,1-1.238.923A6.152,6.152,0,0,1,63.015,202.687Z" transform="translate(-40.34 -177.086)" fill="#fff"/>
    </g>
  </g>
</svg>
