<svg id="phone-call_16_" data-name="phone-call (16)" xmlns="http://www.w3.org/2000/svg" width="16.041" height="16.074" viewBox="0 0 16.041 16.074">
  <g id="Groupe_38470" data-name="Groupe 38470">
    <path id="Tracé_29424" data-name="Tracé 29424" d="M16.159,11.8,13.916,9.554a1.492,1.492,0,0,0-2.484.561,1.527,1.527,0,0,1-1.763.961A6.917,6.917,0,0,1,5.5,6.91a1.452,1.452,0,0,1,.961-1.763,1.492,1.492,0,0,0,.561-2.484L4.783.421a1.6,1.6,0,0,0-2.163,0L1.1,1.943c-1.522,1.6.16,5.848,3.926,9.614s8.011,5.528,9.614,3.926l1.522-1.522A1.6,1.6,0,0,0,16.159,11.8Z" transform="translate(-0.539 0)" fill="#db1f6a"/>
  </g>
</svg>
