<svg id="paper-plane_6_" data-name="paper-plane (6)" xmlns="http://www.w3.org/2000/svg" width="16.92" height="16.215" viewBox="0 0 16.92 16.215">
  <path id="Tracé_29425" data-name="Tracé 29425" d="M8.75,17.612v3.27a.529.529,0,0,0,.955.313l1.913-2.6Z" transform="translate(-2.581 -5.196)" fill="#db1f6a"/>
  <path id="Tracé_29426" data-name="Tracé 29426" d="M16.7.1A.529.529,0,0,0,16.146.06L.284,8.344a.529.529,0,0,0,.073.969l4.41,1.507,9.391-8.03L6.891,11.546l7.39,2.526a.541.541,0,0,0,.171.028.528.528,0,0,0,.523-.45L16.914.607A.53.53,0,0,0,16.7.1Z" transform="translate(0 0)" fill="#db1f6a"/>
</svg>
